<svg xmlns="http://www.w3.org/2000/svg" xmlns:xlink="http://www.w3.org/1999/xlink" version="1.1" x="0px" y="0px" viewBox="0 0 100 125" enable-background="new 0 0 100 100" xml:space="preserve"><path d="M43.873,5c2.366,0,4.731,0,7.097,0c0.162,0.069,0.321,0.187,0.487,0.198  c2.314,0.164,4.642,0.21,6.939,0.499c1.872,0.235,3.83,0.475,5.536,1.21c3.417,1.472,6.694,3.272,10.017,4.958  c4.999,2.536,9.069,6.259,12.26,10.745c3.345,4.702,6.055,9.851,7.313,15.572c0.773,3.517,1.17,7.1,0.937,10.733  c-0.22,3.423-0.271,6.856-0.484,10.279c-0.107,1.718-0.279,3.454-0.659,5.128c-0.393,1.732-1.073,3.398-1.629,5.092  c-0.317,0.967-0.482,2.024-0.985,2.882c-1.701,2.905-3.435,5.8-5.325,8.584c-1.608,2.369-3.787,4.206-6.178,5.796  c-3.357,2.233-6.599,4.663-10.62,5.649c-1.771,0.434-3.515,0.988-5.297,1.364c-2.429,0.512-4.875,1.214-7.329,1.282  c-4.008,0.11-8.037-0.117-12.042-0.412c-2.698-0.199-5.486-0.403-8.03-1.231c-5.967-1.944-11.549-4.67-15.822-9.536  c-1.842-2.097-3.991-3.931-5.767-6.078c-2.98-3.602-5.071-7.781-6.501-12.186c-1.814-5.59-2.82-11.358-2.064-17.295  c0.409-3.209,0.556-6.48,1.291-9.613c1.08-4.598,2.749-9.04,5.618-12.877c1.87-2.501,3.823-4.959,5.947-7.243  c1.623-1.745,3.588-3.169,5.371-4.769c3.898-3.496,8.481-5.727,13.445-7.203C39.523,5.899,41.714,5.503,43.873,5z M23.692,81.069  c0.074,0.074,0.148,0.148,0.223,0.222c0.688,0.697,1.154,1.87,2.508,1.145c0.09-0.048,0.304,0.137,0.46,0.213  c-0.117,0.203-0.233,0.406-0.283,0.493c0.521,0.414,1.026,0.816,1.558,1.24c0.565-1.117,1.346,0.014,2.277-0.065  c-0.523,0.314-0.852,0.511-1.353,0.811c1.144,0.523,2.053,0.938,2.962,1.354c-1.147-0.692-1.273-0.98-1.096-2.918  c1.114-0.053,1.114-0.053,1.009,1.803c0.606,0.27,1.189,0.529,1.753,0.78c0.769-0.909,1.423-1.916,2.294-2.671  c3.72-3.224,8.053-5.443,12.474-7.539c5.386-2.553,11.061-3.751,16.977-3.941c0.702-0.022,0.974-0.216,1.053-0.913  c0.156-1.385,0.426-2.757,0.596-4.14c0.227-1.844,0.403-3.695,0.592-5.451c-2.079,0-3.952-0.054-5.82,0.013  c-2.612,0.093-5.226,0.454-7.831,0.381c-5.085-0.142-10.164-0.485-15.243-0.783c-3.081-0.181-6.162-0.381-9.235-0.664  c-4.263-0.392-8.333-1.565-12.279-3.206c-2.15-0.894-4.325-1.73-6.737-2.691c0,1.578,0,2.933,0,4.247  c0.485,0.121,0.806,0.201,1.127,0.281c-0.001,0.071-0.002,0.143-0.003,0.214c-0.266,0.067-0.531,0.134-0.815,0.205  c0.067,0.207,0.114,0.383,0.18,0.552c0.498,1.293,0.287,3.059,2.247,3.382c0.002,0-0.007,0.069-0.026,0.237  c-0.283,0.014-0.587,0.029-1.131,0.055c0.557,0.86,1.036,1.599,1.557,2.404c0.032-0.019-0.168,0.098-0.36,0.211  c0.442,1.111,0.747,2.336,2.337,2.475c-0.842,0.851-0.842,0.851-0.355,1.687c0.148,0.255,0.293,0.512,0.453,0.76  c0.627,0.972,0.969,2.286,2.551,2.127c0.091-0.009,0.201,0.177,0.421,0.384c-0.344,0.225-0.615,0.403-0.899,0.589  c0.73,1.138,1.359,2.438,3.192,2.302c-0.046,0.104-0.092,0.209-0.138,0.313c-0.292,0.082-0.585,0.165-1.16,0.327  c0.917,0.635,1.647,1.142,2.378,1.648l-0.022-0.002C22.021,80.101,23.074,80.421,23.692,81.069z M19.621,24.846  c-0.721,0.816-1.294,1.342-1.722,1.968c-3.24,4.739-5.528,9.837-6.238,15.619c-0.375,3.056-0.408,6.08-0.158,9.127  c0.016,0.197,0.104,0.462,0.25,0.562c0.747,0.512,1.484,1.062,2.296,1.451c3.737,1.792,7.639,3.091,11.738,3.767  c3.132,0.516,6.249,1.155,9.398,1.518c3.471,0.401,6.968,0.609,10.459,0.79c3.168,0.164,6.35,0.345,9.513,0.215  c3.892-0.16,7.77-0.654,11.657-0.957c0.767-0.06,1.179-0.32,1.18-1.102c0.003-3.305,0.001-6.61,0.001-10.001  c-0.503,0-0.718-0.003-0.932,0c-4.755,0.072-9.491,0.006-14.167-1.09c-2.493-0.585-5.079-0.821-7.395-2.018  C40.056,41.879,35.4,38.027,31.162,33.64c-0.562-0.582-1.001-1.317-1.641-1.782C26.29,29.515,23.012,27.238,19.621,24.846z   M67.547,45.564c-0.1-0.717-0.114-1.348-0.281-1.936c-1.413-4.97-2.825-9.941-4.295-14.895c-1.6-5.389-3.369-10.695-6.589-15.417  c-1.326-1.944-2.763-3.357-5.244-3.45c-2.557-0.096-5.047,0.264-7.529,0.817c-6.213,1.385-11.831,4.128-17.085,7.629  c-1.606,1.07-2.997,2.473-4.431,3.785c-0.341,0.312-0.81,0.818-0.098,1.349c2.792,2.084,5.642,4.1,8.334,6.307  c3.387,2.776,6.742,5.608,9.929,8.609c4.4,4.142,9.784,5.67,15.547,6.321c2.559,0.289,5.135,0.437,7.704,0.633  C64.82,45.416,66.134,45.478,67.547,45.564z M56.729,10.847c0.11,0.196,0.162,0.335,0.252,0.444c2.23,2.682,3.953,5.662,5.194,8.917  c0.574,1.505,1.072,3.04,1.608,4.56c1.231,3.494,2.597,6.947,3.656,10.492c0.909,3.043,1.475,6.19,2.177,9.294  c0.161,0.713,0.475,0.984,1.232,0.714c0.716-0.255,1.469-0.431,2.219-0.567c4.622-0.838,9.034-2.124,12.666-5.348  c1.764-1.566,2.213-2.591,1.319-4.77c-0.748-1.822-1.696-3.564-2.587-5.325c-2.187-4.32-5.232-7.947-9.171-10.739  C69.74,14.58,63.881,11.282,56.729,10.847z M43.989,89.672c1.638,0.265,3.391,0.549,4.965,0.804c0.156-0.285,0.279-0.51,0.402-0.736  c0.284,0.164,0.593,0.295,0.843,0.5c0.204,0.168,0.337,0.423,0.382,0.482c0.396-0.378,0.665-0.791,0.819-0.752  c0.358,0.091,0.66,0.4,1.158,0.739c0.49-0.038,1.259-0.097,2.064-0.158c-0.177-0.807,0.49-1.163,0.865-0.72  c0.807,0.955,1.541,0.332,2.068,0.287c0.121-0.43,0.205-0.728,0.289-1.027c0.391,0.231,0.783,0.463,1.348,0.797  c0.216-0.089,0.649-0.268,0.98-0.405c-0.1-0.311-0.197-0.611-0.294-0.912c0.393,0,0.786,0,1.239,0  c2.047-4.459,3.637-9.169,4.582-14.124c-0.606,0-1.17-0.079-1.705,0.013c-3.649,0.622-7.211,1.564-10.6,3.077  c-1.54,0.687-3.025,1.5-4.574,2.163c-3.372,1.442-6.769,2.827-9.768,4.991c-0.251,0.181-0.441,0.443-0.681,0.642  c-0.264,0.219-0.553,0.409-0.831,0.612c-0.354,0.258-0.708,0.517-1.061,0.776c0.027,0.047,0.053,0.094,0.08,0.141  c-0.351,0.225-0.701,0.45-1.052,0.674c0.044,0.096,0.088,0.192,0.132,0.288c2.504,0.608,5.008,1.215,7.739,1.878  c-0.425-0.603-0.659-0.935-0.893-1.267c0.073-0.11,0.147-0.22,0.22-0.33c0.428,0.181,0.912,0.293,1.26,0.573  C44.115,88.802,43.989,89.269,43.989,89.672z M69.861,71.882c0.794,0.108,1.55,0.231,2.311,0.312  c2.98,0.316,5.805,1.086,8.316,2.794c0.425,0.289,0.818,0.723,1.284,0.827c0.477,0.106,1.291,0.077,1.5-0.217  c1.188-1.673,2.494-3.336,3.276-5.204c1.161-2.778,1.929-5.721,2.844-8.6c0.611-1.924,0.887-3.875,0.208-6.077  c-5.748,3.612-12.394,4.044-18.727,5.186C70.527,64.653,70.195,68.261,69.861,71.882z M71.092,58.785  c3.296-0.624,6.585-1.009,9.727-1.908c3.18-0.91,6.22-2.316,9.305-3.548c0.24-0.096,0.502-0.534,0.489-0.801  c-0.123-2.614-0.214-5.235-0.499-7.834c-0.172-1.566-0.673-3.095-1.053-4.761c-5.687,4.35-11.866,6.995-18.609,7.771  C70.667,51.415,70.868,54.9,71.092,58.785z M69.242,74.227c-0.111,0.477-0.228,0.896-0.305,1.322  c-0.645,3.567-1.486,7.066-3.281,10.272c-0.191,0.341-0.026,0.883-0.026,1.384c-0.38,0.307-0.887,0.717-1.394,1.127  c0.072,0.096,0.143,0.192,0.215,0.288c3.109-1.457,6.167-3.04,9.346-4.324c1.913-0.773,3.176-2.214,4.566-3.537  c0.909-0.866,1.572-1.989,2.373-3.032C77.288,75.161,73.532,73.987,69.242,74.227z M23.915,81.291c0.321,0,0.643,0,0.96,0  c0.078,0.977,0.556,1.128,1.582,0.768c1.122,0.434,1.972,0.783,2.84,1.075c0.133,0.045,0.436-0.134,0.512-0.284  c0.065-0.128-0.039-0.492-0.147-0.531c-0.683-0.244-1.387-0.426-2.179-0.656c-0.373-1.209-2.603-1.651-3.791-0.595  C23.766,81.143,23.84,81.217,23.915,81.291z M22.083,78.937c0.425-0.571,0.853-1.14,1.499-2c-0.725,0.039-1.276-0.064-1.666,0.141  c-0.219,0.115-0.172,0.738-0.295,1.405c0.026,0.024,0.256,0.24,0.486,0.456C22.107,78.94,22.085,78.938,22.083,78.937z   M20.473,74.015c-0.026-0.019-0.456,0.4-0.428,0.444c0.221,0.348,0.507,0.655,0.773,0.974c0.14-0.14,0.28-0.28,0.578-0.578  C21.007,74.484,20.759,74.224,20.473,74.015z M49.112,88.554c-0.735-0.041-1.471-0.082-2.206-0.122  c-0.012,0.241-0.025,0.481-0.037,0.722c0.745-0.017,1.489-0.034,2.234-0.05C49.106,88.92,49.109,88.737,49.112,88.554z   M41.947,85.481c0.443,0.231,0.882,0.471,1.34,0.669c0.025,0.011,0.203-0.33,0.31-0.508c-0.47-0.217-0.94-0.433-1.41-0.65  C42.107,85.155,42.027,85.318,41.947,85.481z"/></svg>