<svg xmlns="http://www.w3.org/2000/svg" xmlns:xlink="http://www.w3.org/1999/xlink" version="1.1" x="0px" y="0px" viewBox="0 0 100 125" enable-background="new 0 0 100 100" xml:space="preserve"><path d="M50.72,64.812c-0.447-1.606-1.291-2.42-3.017-2.303c-1.396,0.095-2.817-0.177-4.103-0.277  c-0.883,3.045-2.233,5.692-4.675,7.586c-2.404,1.865-4.938,3.563-7.443,5.293c-0.366,0.253-0.883,0.376-1.336,0.395  c-2.408,0.101-4.835,0.356-7.222,0.158c-2.458-0.204-4.924-0.705-7.294-1.397c-1.295-0.378-2.449-1.347-3.57-2.18  c-1.113-0.827-2.176-1.751-3.128-2.758c-0.722-0.764-1.344-1.671-1.821-2.611c-1.804-3.556-2.337-7.386-2.03-11.311  c0.169-2.166,0.625-4.309,1.923-6.164c0.292-0.418,0.496-0.917,0.653-1.407c0.507-1.583,1.837-2.446,3.028-3.374  c3.518-2.743,7.55-4.357,11.905-5.256c2.209-0.456,4.425-0.64,6.662-0.527c1.602,0.081,3.208,0.269,4.623,1.141  c0.354,0.218,0.481,0.146,0.761-0.171c0.914-1.035,1.106-1.934,0.277-3.225c-0.763-1.187-1.098-2.649-1.616-3.993  c-0.16-0.415-0.298-0.839-0.401-1.132c-1.198,0-2.313-0.015-3.427,0.004c-1.54,0.025-2.664-0.79-3.505-1.926  c-0.316-0.427-0.352-1.224-0.221-1.783c0.234-1.002,0.664-1.964,1.078-2.914c0.084-0.193,0.452-0.339,0.706-0.37  c1.407-0.169,2.747,0.132,4.058,0.633c1.521,0.581,3.029,1.216,4.586,1.679c1.125,0.335,2.326,0.413,3.488,0.631  c1.569,0.294,3.151,0.545,4.693,0.946c0.931,0.242,1.477,2.155,0.918,2.951c-0.126,0.18-0.453,0.314-0.685,0.31  c-1.459-0.028-2.917-0.104-4.375-0.157c-0.371-0.013-0.742-0.002-1.069-0.002c0.588,1.877,1.178,3.761,1.825,5.828  c8.057-0.378,16.191-0.759,24.477-1.148c-0.548-1.207-0.68-2.214,0.481-2.819c-0.551-0.935-1.148-1.789-1.58-2.719  c-0.623-1.341-0.241-2.279,1.126-2.779c1.902-0.695,3.859-1.196,5.894-1.33c1.637-0.108,3.277-0.346,4.91-0.303  c2.444,0.064,4.914,0.145,7.237,1.057c0.565,0.222,1.093,0.577,1.571,0.956c0.156,0.124,0.1,0.516,0.14,0.786  c-0.229-0.077-0.461-0.149-0.688-0.232c-0.705-0.26-1.404-0.539-2.118-0.773c-0.123-0.04-0.392,0.059-0.447,0.167  c-0.278,0.551-0.507,1.126-0.729,1.637c0.613,0.187,1.043,0.343,1.485,0.44c0.188,0.041,0.421,0.004,0.601-0.073  c0.745-0.317,1.473-0.673,2.215-0.996c0.442-0.192,1.148,0.25,1.077,0.686c-0.258,1.569-0.557,3.134-1.585,4.422  c-0.412,0.517-0.894,0.977-1.405,1.528c0.223,0.504-0.136,0.811-0.693,0.807c-0.812-0.005-1.643-0.049-2.43-0.231  c-1.117-0.258-1.374-1.175-0.63-2.071c0.75-0.901,1.212-1.923,1.444-3.001c-1.846-1.091-3.904-0.81-5.843-0.863  c-1.998-0.055-4.011,0.449-6.152,0.726c0.244,0.484,0.473,0.939,0.716,1.421c0.934-0.82,1.459-0.701,1.85,0.359  c0.813,2.204,1.606,4.415,2.338,6.432c1.097-0.05,2.216-0.236,3.305-0.123c2.21,0.23,4.395,0.663,6.488,1.454  c0.876,0.331,1.758,0.647,2.623,1.007c1.305,0.543,2.071,1.68,2.9,2.732c1.697,2.153,3.306,4.366,4.366,6.921  c1.384,3.335,1.395,6.707,0.309,10.128c-1.217,3.833-3.477,6.989-6.244,9.831c-1.177,1.209-2.77,1.582-4.268,2.153  c-2.168,0.827-4.423,1.177-6.728,1.293c-0.794,0.04-1.585,0.144-2.38,0.19c-1.351,0.078-2.658-0.117-3.965-0.496  c-1.393-0.404-2.837-0.633-4.247-0.982c-0.474-0.117-0.957-0.305-1.362-0.573c-2.081-1.378-4.398-2.445-5.977-4.502  c-0.136-0.178-0.529-0.258-0.784-0.229c-1.817,0.21-3.627,0.476-5.444,0.69c-1.009,0.119-2.027,0.165-3.039,0.259  c-1.108,0.104-2.085-0.791-2.051-1.897c0.015-0.498,0.04-0.996,0.044-1.495c0.004-0.528,0.34-0.712,0.735-0.522  C49.361,65.46,50.032,64.949,50.72,64.812z M31.763,44.298c-1.163-0.106-2.198-0.184-3.229-0.301  c-0.783-0.089-1.56-0.318-2.341-0.325c-1.341-0.011-2.683,0.118-4.025,0.162c-2.379,0.079-4.626,0.72-6.772,1.686  c-1.359,0.612-2.726,1.352-3.385,2.777c-0.752,1.628-1.444,3.303-1.952,5.02c-0.41,1.384-0.573,2.854-0.72,4.299  c-0.082,0.804,0.143,1.633,0.141,2.451c-0.009,3.773,1.738,6.531,4.868,8.487c1.419,0.886,3.002,1.357,4.62,1.749  c1.951,0.473,3.89,0.923,5.915,1c1.943,0.075,3.782-0.381,5.628-0.837c0.54-0.134,1.13-0.341,1.535-0.698  c1.737-1.531,3.446-3.098,5.1-4.718c0.878-0.86,1.496-1.931,1.936-3.079c-2.405-0.21-4.732-0.439-7.064-0.606  c-1.004-0.072-2.016-0.021-3.025-0.019c-0.891,0.002-1.815,0.136-2.53-0.743c0.178-0.167,0.355-0.461,0.596-0.531  c0.47-0.135,0.976-0.143,1.467-0.204c1.596-0.199,3.192-0.405,4.789-0.594c1.526-0.181,3.051-0.373,4.581-0.508  c1.881-0.165,3.766-0.276,5.539-0.403c0.215-1.055,0.42-2.06,0.631-3.093c-0.253-0.282-0.568-0.632-0.882-0.983  c-0.069,0.02-0.138,0.041-0.208,0.061c0,0.763,0,1.526,0,2.29c-0.079,0.011-0.158,0.022-0.237,0.033  c-0.163-0.339-0.326-0.677-0.444-0.923c-1.778,0.276-3.483,0.534-5.187,0.806c-2.097,0.335-4.192,0.685-6.289,1.019  c-0.562,0.089-1.128,0.197-1.693,0.202c-0.911,0.008-1.46-0.923-0.974-1.72c1.524-2.5,3.112-4.961,4.646-7.455  c0.425-0.692,1.128-1.249,1.09-2.199c-0.007-0.173,0.325-0.371,0.519-0.535c0.145-0.122,0.366-0.171,0.475-0.313  c0.377-0.492,0.725-1.007,1.075-1.519c0.715-1.045,1.391-2.118,2.159-3.122c0.186-0.243,0.694-0.398,1.001-0.335  c0.218,0.045,0.363,0.516,0.508,0.813c0.085,0.174,0.091,0.385,0.158,0.571c0.855,2.384,1.709,4.769,2.577,7.149  c0.432,1.186,0.893,2.362,1.353,3.576c0.999-0.264,1.919-0.506,2.743-0.724c-1.394-3.501-2.731-6.843-4.043-10.195  c-0.09-0.229,0.012-0.534,0.025-0.804c0.302,0.027,0.696-0.055,0.887,0.105c0.327,0.274,0.599,0.668,0.769,1.065  c1.043,2.446,2.029,4.916,3.081,7.357c0.359,0.833,0.854,1.607,1.29,2.406c0.159,0.291,0.327,0.578,0.486,0.86  c0.636,0.184,1.338,0.387,2.081,0.602c0.644-0.742,1.313-1.542,2.016-2.311c0.369-0.404,0.818-0.746,0.503-1.29  c0.463-0.214,0.971-0.314,1.286-0.615c2.682-2.563,5.33-5.162,7.986-7.752c0.445-0.434,0.88-0.877,1.398-1.394  c-1.167,0-2.167-0.055-3.159,0.012c-2.005,0.136-4.006,0.338-6.009,0.513c-1.458,0.127-2.914,0.277-4.374,0.379  c-1.952,0.136-3.907,0.258-5.862,0.332c-0.519,0.02-1.075-0.098-1.489-0.778c0.494-0.127,0.893-0.23,1.297-0.334  c0-0.581,0-1.165,0-1.648c-1.367-0.188-2.695-0.407-4.032-0.538c-0.637-0.062-1.018-0.384-1.239-0.902  c-0.242-0.567-0.383-1.177-0.592-1.759c-0.06-0.168-0.177-0.404-0.314-0.442c-0.905-0.252-1.823-0.458-2.818-0.699  c0.541,1.225,1.023,2.449,1.628,3.608c0.194,0.372,0.233,0.549,0.012,0.896c-1.187,1.862-2.327,3.753-3.51,5.617  c-2.393,3.772-4.777,7.55-7.227,11.285c-0.476,0.726-1.149,1.421-1.895,1.838c-0.561,0.313-0.93,0.705-0.925,1.192  c0.005,0.445,0.349,0.955,0.681,1.306c0.288,0.305,0.77,0.426,1.163,0.634c0.356,0.189,0.708,0.387,1.174,0.642  c-0.231,0.114-0.307,0.176-0.392,0.191c-1.507,0.271-2.732-0.258-3.744-1.35c-0.439-0.474-0.782-1-0.46-1.684  c0.358-0.759,0.649-1.58,1.674-1.708c0.164-0.02,0.349-0.205,0.448-0.362c1.65-2.627,3.282-5.265,4.929-7.895  C30.026,47.005,30.886,45.676,31.763,44.298z M69.614,44.654c-1.465,0.989-2.887,1.798-4.132,2.822  c-2.308,1.897-3.292,4.591-4.05,7.37c-0.613,2.246-0.52,4.537,0.179,6.701c0.635,1.967,1.493,3.904,3.051,5.398  c1.034,0.991,1.931,2.167,3.402,2.571c1.211,0.333,2.419,0.697,3.65,0.938c2.394,0.468,4.783,0.705,7.194-0.07  c1.755-0.564,3.636-0.766,5.127-2.001c0.632-0.523,1.265-1.047,1.928-1.53c1.966-1.434,3.47-3.23,4.104-5.601  c0.361-1.352,0.468-2.772,0.697-4.159c0.317-1.921,0.231-3.841-0.363-5.676c-0.526-1.624-1.254-3.141-2.834-4.143  c-1.352-0.857-2.495-2.04-3.827-2.934c-1.64-1.101-3.569-1.452-5.5-1.581c-0.976-0.065-1.976,0.141-2.956,0.29  c-0.468,0.071-0.869,0.965-0.668,1.265c0.279,0.419,0.603,0.838,0.756,1.307c0.901,2.76,1.769,5.53,2.624,8.305  c0.401,1.303,0.578,2.708,1.182,3.902c0.374,0.738,0.031,1.026-0.224,1.483c-0.317,0.568-0.779,0.921-1.459,0.757  c-1.31-0.317-2.379-0.855-3.135-2.149c-1.106-1.894-1.811-3.909-2.452-5.972C71.179,49.601,70.435,47.262,69.614,44.654z   M67.478,38.584c-3.936,3.814-7.821,7.578-11.798,11.432c0.563,0.474,0.965,0.813,1.354,1.14c1.502-1.602,2.901-3.156,4.367-4.643  c1.958-1.985,3.941-3.947,5.967-5.862c0.935-0.884,1.687-0.593,1.967,0.624c0.098,0.427,0.265,0.837,0.384,1.204  c1.287-0.098,2.484-0.189,3.755-0.285c-0.244-0.611-0.461-1.079-0.62-1.567c-0.683-2.098-1.341-4.203-2.03-6.299  c-0.076-0.231-0.277-0.585-0.44-0.596c-1.216-0.083-2.44-0.13-3.504,0.654c-0.351,0.259-0.508,0.496-0.366,0.991  c0.144,0.5,0.421,0.503,0.813,0.541c0.238,0.023,0.46,0.214,0.689,0.33c-0.163,0.229-0.283,0.52-0.501,0.67  c-0.232,0.16-0.551,0.227-0.841,0.263c-1.131,0.141-2.264,0.308-3.401,0.367c-2.982,0.154-5.967,0.255-8.95,0.378  c-1.79,0.074-3.581,0.142-5.371,0.229c-0.391,0.019-0.778,0.107-1.168,0.163c0,0.579,0,1.087,0,1.642  c0.964-0.065,1.855-0.097,2.74-0.19c2.12-0.223,4.231-0.563,6.356-0.691c2.632-0.159,5.274-0.139,7.91-0.236  c0.345-0.013,0.746-0.188,1.008-0.418C66.445,37.859,66.613,37.827,67.478,38.584z M30.379,55.277  c0.026,0.068,0.052,0.137,0.079,0.205c3.07-0.705,6.139-1.41,9.438-2.168c-1.009-1.489-1.853-2.925-2.89-4.204  c-0.818-1.009-1.96-0.998-2.547-0.12C33.069,51.066,31.735,53.179,30.379,55.277z M70.89,43.897c0.3,0.835,0.583,1.597,0.849,2.366  c1.223,3.537,2.445,7.075,3.659,10.615c0.405,1.18,1.22,1.87,2.416,2.135c0.23-0.318,0.443-0.612,0.647-0.894  c-1.963-1.933-2.288-4.584-3.108-6.994c-0.827-2.43-1.469-4.923-2.19-7.381C72.478,43.79,71.766,43.838,70.89,43.897z M57.157,53.59  c-0.659,0.794-1.236,1.463-1.783,2.155c-0.639,0.808-1.358,1.546-1.376,2.72c-0.007,0.456-0.443,0.922-0.73,1.352  c-0.242,0.363-0.552,0.682-0.827,1.013c0.662,1.056,1.286,2.072,1.936,3.07c0.107,0.164,0.329,0.359,0.497,0.358  c0.724-0.003,1.448-0.074,2.16-0.119C55.863,60.561,56.768,57.148,57.157,53.59z M48.482,60.555  c-0.342-0.554-0.63-1.007-0.901-1.469c-0.091-0.156-0.214-0.344-0.196-0.504c0.066-0.572,0.891-1.365,1.456-1.456  c0.56-0.09,1.373,0.411,1.713,0.978c0.288,0.48,0.647,0.916,0.975,1.371c-0.27-0.981-0.27-0.981,0.169-1.668  c0.66-1.032,0.587-1.584-0.172-2.341c-0.552,0.159-1.116,0.523-1.423,0.37c-0.745-0.371,0.07-0.914,0.074-1.405  c-0.231-0.121-0.441-0.231-0.741-0.388c0.054,0.209,0.109,0.322,0.106,0.434c-0.007,0.272-0.042,0.544-0.066,0.816  c-0.272-0.048-0.581-0.031-0.808-0.159c-0.384-0.217-0.716-0.526-1.163-0.867c-1.43,0.444-2.437,1.946-2.309,3.666  c0.037,0.495,0.294,0.59,0.723,0.648c0.454,0.061,0.891,0.247,1.336,0.378c0.004,0.119,0.008,0.237,0.013,0.356  c-0.389,0.173-0.777,0.346-1.197,0.533C46.653,60.557,47.432,60.699,48.482,60.555z M53.583,55.406  c0.713-0.887,1.403-1.748,2.045-2.546c-0.48-0.438-0.905-0.826-1.35-1.232c-0.701,0.828-1.399,1.652-2.091,2.468  C52.687,54.564,53.118,54.97,53.583,55.406z M68.648,32.309c-0.666-1.208-1.337-2.425-2.036-3.693  c-0.278,0.045-0.683,0.111-1.259,0.204c0.356,0.841,0.677,1.631,1.024,2.409C66.821,32.226,67.511,32.756,68.648,32.309z   M57.868,65.502c-1.778,0.162-3.501,0.318-5.234,0.476c0.077,0.331,0.137,0.589,0.209,0.897c1.673-0.116,3.338-0.232,5.025-0.349  C57.868,66.212,57.868,65.926,57.868,65.502z M84.978,30.483c-0.847,0.289-1.433,0.47-2,0.696c-0.156,0.062-0.321,0.241-0.372,0.402  c-0.177,0.554-0.306,1.123-0.51,1.904c0.615-0.065,1.449,0.076,1.652-0.219C84.284,32.485,84.547,31.516,84.978,30.483z   M80.547,27.577c-0.638-0.053-1.229-0.076-1.813-0.158c-0.763-0.108-1.006,0.343-1.113,0.962c-0.036,0.21-0.035,0.426-0.056,0.701  c0.338,0,0.642-0.081,0.873,0.013C79.82,29.662,80.163,28.701,80.547,27.577z M73.954,29.057c0.798-0.066,1.55-0.129,2.301-0.191  c0.147-0.483,0.286-0.938,0.44-1.442c-0.532,0-0.978-0.004-1.423,0.001c-1.288,0.012-1.288,0.014-1.347,1.297  C73.922,28.794,73.938,28.868,73.954,29.057z M70.237,27.888c-0.602,0.096-1.18,0.196-1.761,0.278  c-0.41,0.057-0.51,0.237-0.313,0.609c0.274,0.518,0.527,1.048,0.766,1.529c0.553-0.252,1.01-0.46,1.42-0.647  C70.31,29.043,70.274,28.482,70.237,27.888z M73.066,27.533c-0.498,0.028-0.92,0.014-1.325,0.089  c-0.261,0.048-0.682,0.196-0.71,0.356c-0.078,0.444,0.003,0.918,0.051,1.378c0.005,0.046,0.211,0.101,0.323,0.102  c1.276,0.007,1.559-0.26,1.633-1.518C73.045,27.819,73.055,27.699,73.066,27.533z M49.111,67.372  c1.315-0.165,2.388-0.299,3.523-0.441c-1.007-1.31-2.12-0.452-3.152-0.344C49.353,66.6,49.266,67.027,49.111,67.372z M46.704,38.396  c-1.149-0.187-1.496,0.408-1.06,1.676c0.366,0,0.721,0,1.06,0C46.704,39.481,46.704,38.962,46.704,38.396z M82.818,34.536  c-0.893-0.501-1.198-0.44-1.787,0.357C81.892,35.403,82.334,35.315,82.818,34.536z M56.616,51.698  c-0.495-0.329-0.955-0.635-1.42-0.944c-0.219,0.502,0.123,1.081,0.926,1.568C56.281,52.121,56.444,51.916,56.616,51.698z   M45.171,60.913c-0.315-0.388-0.606-0.746-0.985-1.212c-0.133,0.53-0.212,0.85-0.303,1.212  C44.371,60.913,44.771,60.913,45.171,60.913z M44.319,55.132c0.421-0.486,0.751-0.868,1.184-1.369  c-0.556,0.128-0.963,0.221-1.392,0.32C44.182,54.443,44.239,54.727,44.319,55.132z M38.496,60.27  c0.015,0.119,0.029,0.237,0.044,0.356c0.421-0.044,0.842-0.089,1.263-0.133c-0.009-0.074-0.019-0.149-0.028-0.223  C39.349,60.27,38.922,60.27,38.496,60.27z"/></svg>