<svg xmlns="http://www.w3.org/2000/svg" xmlns:xlink="http://www.w3.org/1999/xlink" version="1.1" x="0px" y="0px" viewBox="0 0 100 125" enable-background="new 0 0 100 100" xml:space="preserve"><path d="M11.71,23.769c0-0.465,0-0.931,0-1.396c0.316-0.815,0.484-1.735,0.974-2.427  c1.718-2.428,3.5-4.815,5.359-7.138c0.712-0.889,1.572-1.894,2.579-2.263c1.985-0.727,4.101-1.147,6.195-1.508  c2.304-0.397,4.645-0.571,6.967-0.864c3.499-0.441,6.993-0.923,10.494-1.345c3.076-0.371,6.186-0.532,9.234-1.061  c3.909-0.679,7.83-0.793,11.77-0.763c1.849,0.014,2.746,0.768,3.274,2.522c0.685,2.28,1.394,4.553,2.125,6.818  c2.121,6.568,4.639,13,6.289,19.728c1.952,7.959,4.315,15.807,6.947,23.571c1.467,4.327,2.916,8.66,4.373,12.99  c0,0.465,0,0.931,0,1.396c-0.333,1.528-0.587,3.079-1.014,4.58c-0.92,3.235-2.275,5.986-6.008,7.005  c-4.176,1.139-8.248,2.671-12.345,4.089c-2.89,1.001-5.766,2.051-8.614,3.166c-2.205,0.863-4.303,2.031-6.549,2.743  c-1.598,0.507-3.069,1.547-4.88,1.366c-3.19-0.32-6.285-1.072-9.312-2.081c-2.947-0.982-5.307-2.697-6.465-5.731  c-0.801-2.099-1.656-4.179-2.388-6.301c-1.733-5.025-3.418-10.066-5.1-15.108c-1.995-5.981-3.969-11.969-5.947-17.956  c-1.066-3.226-2.1-6.464-3.191-9.682c-0.933-2.75-1.959-5.469-2.882-8.222C12.914,27.872,12.334,25.813,11.71,23.769z M33.527,78.93  c0.146,0.723,0.292,1.445,0.467,2.317c2.324-2.402,4.455-4.605,6.629-6.852c-0.07-0.2-0.16-0.461-0.252-0.724  c-1.529,1.761-3.005,3.493-4.519,5.191c-0.928,1.041-1.349,1.031-2.345,0.088c0.245-0.478,0.409-1.026,0.75-1.421  c1.516-1.759,3.099-3.461,4.624-5.212c0.796-0.913,0.777-1.472,0.072-2.607c-1.848,2.41-3.657,4.857-5.573,7.218  C32.707,77.758,32.875,78.306,33.527,78.93z M85.262,70.582c-0.332-0.748-0.636-1.297-0.827-1.883  c-1.32-4.053-2.714-8.086-3.901-12.178c-2.603-8.978-5.044-18.004-7.654-26.98c-2.121-7.295-4.392-14.547-6.589-21.82  c-0.203-0.672-0.591-0.971-1.312-0.909c-2.601,0.222-5.215,0.33-7.804,0.643c-3.725,0.45-7.43,1.066-11.149,1.564  c-3.201,0.429-6.411,0.797-9.617,1.183c-3.959,0.476-7.918,0.951-11.879,1.409c-1.711,0.198-3.258,0.479-4.254,2.237  c-0.963,1.699-2.269,3.204-3.425,4.794c0.063,0.05,0.126,0.1,0.189,0.15c0.959-1.15,1.925-2.294,2.875-3.451  c0.606-0.738,1.198-1.489,1.776-2.25c0.205-0.27,0.349-0.585,0.521-0.88c0.284,0.287,0.706,0.524,0.83,0.868  c1.566,4.349,3.142,8.697,4.602,13.082c0.78,2.344,1.201,4.812,2.051,7.127c0.478,1.302,0.019,3.095,1.447,3.627  c0.073,0.927,0.113,1.599,0.18,2.269c0.127,1.277,1.017,2.305,1.106,3.63c0.064,0.969,0.455,1.924,0.752,2.869  c1.611,5.139,3.222,10.279,4.865,15.409c1.774,5.539,3.569,11.071,5.387,16.596c0.459,1.395,1.034,2.752,1.562,4.124  c1.219,3.168,2.428,6.34,3.688,9.492c0.091,0.229,0.563,0.437,0.85,0.427c0.517-0.018,1.043-0.164,1.538-0.335  c4.709-1.631,9.412-3.28,14.117-4.923c5.228-1.825,10.463-3.63,15.673-5.504c0.561-0.202,1.094-0.721,1.435-1.231  c0.449-0.672,0.78-1.455,1.013-2.234C84.015,75.143,84.652,72.759,85.262,70.582z M29.71,39.76c-2.028,2.641-3.98,5.258-6.022,7.803  c-0.732,0.912-0.472,1.643-0.044,2.429c1.942-2.513,3.801-5.063,5.83-7.47C30.245,41.607,30.391,40.871,29.71,39.76z M20.173,39.078  c0.34-0.544,0.599-1.044,0.937-1.483c1.717-2.226,3.401-4.481,5.212-6.63c0.736-0.874,0.858-1.609,0.168-2.619  c-2.261,3.079-4.511,6.142-6.777,9.227C19.852,38.032,20.001,38.518,20.173,39.078z M28.498,64.091  c0.194-0.222,0.344-0.386,0.486-0.557c1.634-1.952,3.183-3.985,4.937-5.822c0.77-0.806,0.989-1.418,0.36-2.422  c-1.932,2.231-3.834,4.473-5.793,6.663C27.816,62.705,27.991,63.326,28.498,64.091z M36.999,88.209  c0.128-0.093,0.276-0.163,0.374-0.276c1.582-1.821,3.102-3.701,4.759-5.451c0.793-0.838,0.827-1.542,0.226-2.43  c-1.637,1.872-3.214,3.782-4.917,5.572C36.664,86.439,36.336,87.158,36.999,88.209z M27.529,32.224  c-1.729,2.4-3.42,4.677-5.023,7.015c-0.529,0.772-1.032,1.237-2.126,0.71c0.282,0.824,0.507,1.479,0.715,2.086  c2.101-2.463,4.106-4.927,6.249-7.263C28.094,33.954,28.17,33.301,27.529,32.224z M30.881,43.843  c-2.128,3.139-4.158,6.125-6.166,9.125c-0.089,0.133,0.014,0.394,0.041,0.806c0.366-0.44,0.592-0.711,0.816-0.983  c1.677-2.043,3.288-4.146,5.063-6.1C31.391,45.858,31.671,45.173,30.881,43.843z M25.806,57.102  c0.086,0.013,0.171,0.026,0.257,0.039c0.094-0.086,0.199-0.164,0.282-0.261c1.799-2.115,3.572-4.252,5.402-6.339  c0.976-1.114,1.02-1.076,0.284-2.568c-2.069,2.712-4.118,5.374-6.123,8.07C25.726,56.286,25.833,56.743,25.806,57.102z   M25.15,24.541c-1.84,2.707-3.572,5.267-5.322,7.815c-0.348,0.507-0.772,0.962-1.265,1.57c0.048,0.123,0.182,0.466,0.308,0.787  c2.115-2.674,4.137-5.321,6.272-7.873C25.769,26.092,25.837,25.531,25.15,24.541z M36.691,62.335  c-2.045,2.787-4.01,5.434-5.921,8.119c-0.18,0.253-0.024,0.746-0.024,1.176c2.213-2.627,4.316-5.122,6.513-7.729  C37.147,63.591,36.959,63.075,36.691,62.335z M35.597,84.456c1.791-1.999,3.539-4.036,5.391-5.973  c0.69-0.722,0.77-1.294,0.086-2.164c-0.128,0.191-0.222,0.369-0.35,0.517c-1.667,1.93-3.303,3.89-5.03,5.765  C35.093,83.255,34.902,83.754,35.597,84.456z M29.038,36.635c-0.132-0.058-0.264-0.116-0.396-0.174  c-2.232,2.742-4.464,5.485-6.724,8.262c0.113,0.283,0.246,0.616,0.398,0.998c0.142-0.125,0.25-0.195,0.327-0.29  c2.029-2.487,4.072-4.962,6.061-7.481C28.96,37.627,28.933,37.08,29.038,36.635z M37.813,66.35c-1.978,2.65-3.887,5.183-5.753,7.746  c-0.169,0.232-0.066,0.663-0.089,1.001c2.06-2.262,3.849-4.565,5.737-6.784C38.222,67.711,38.424,67.253,37.813,66.35z   M33.102,51.832c-2.135,2.582-4.228,5.114-6.377,7.714c0.076,0.163,0.203,0.436,0.32,0.686c2.008-2.2,3.89-4.387,5.925-6.421  C33.647,53.134,33.697,52.686,33.102,51.832z M29.702,67.65c1.87-2.25,3.705-4.537,5.637-6.738c0.597-0.68,0.592-1.176,0.095-1.891  c-1.901,2.429-3.738,4.803-5.609,7.15C29.41,66.693,29.227,67.144,29.702,67.65z M22.488,15.531c-0.1-0.032-0.2-0.064-0.3-0.097  c-0.075,0.063-0.165,0.116-0.224,0.192c-2.245,2.867-4.467,5.752-6.748,8.59c-0.361,0.45-0.649,0.747-0.162,1.286  c0.108-0.127,0.213-0.247,0.313-0.372c2.279-2.842,4.567-5.677,6.821-8.538C22.399,16.325,22.394,15.889,22.488,15.531z   M17.696,31.534c0.102-0.129,0.164-0.194,0.208-0.268c1.832-3.045,3.949-5.872,6.395-8.456c0.23-0.243,0.182-0.748,0.263-1.131  c-0.125-0.05-0.249-0.1-0.374-0.15c-2.328,3.062-4.656,6.123-7.017,9.228C17.306,30.957,17.486,31.223,17.696,31.534z   M43.604,83.897c-1.497,1.828-2.935,3.583-4.41,5.383c0.421,0.194,0.763,0.352,1.088,0.502c1.055-1.233,2.002-2.476,3.097-3.571  C44.095,85.496,44.2,84.86,43.604,83.897z M23.479,18.528c-0.102-0.007-0.204-0.013-0.305-0.02c-2.093,2.725-4.181,5.454-6.287,8.17  c-0.262,0.338-0.617,0.603-1.012,0.983c0.06,0.188,0.165,0.515,0.275,0.858c0.116-0.065,0.189-0.084,0.226-0.131  c2.301-2.897,4.61-5.788,6.877-8.712C23.466,19.401,23.41,18.916,23.479,18.528z M45.151,88.768  c0.162,0.144,0.324,0.288,0.486,0.432c-0.247-0.605-0.494-1.209-0.774-1.894c-0.931,1.133-1.764,2.147-2.605,3.17  c1.428,0.725,1.469,0.74,2.344-0.42C44.874,89.694,44.972,89.201,45.151,88.768z M63.833,11.199  c0.471-0.008,1.172,0.013,0.933,1.213c-0.076,0.383,0.323,0.847,0.462,1.288c2.221,7.018,4.479,14.026,6.635,21.064  c1.16,3.787-0.252,6.989-2.838,9.671c-0.728,0.756-1.995,1.088-3.078,1.391c-6.524,1.823-13.067,3.578-19.601,5.361  c-1.006,0.275-2.004,0.583-3.006,0.871c-0.953,0.274-2.416-0.353-2.782-1.28c-1.362-3.449-2.772-6.883-4.003-10.38  c-1.59-4.517-3.018-9.091-4.534-13.634c-0.522-1.565-1.203-3.085-1.618-4.676c-0.308-1.179-0.183-2.469-0.468-3.657  c-0.34-1.418,0.72-1.382,1.463-1.547c4.481-0.995,8.962-1.994,13.467-2.868c3.546-0.688,7.121-1.237,10.694-1.774  C58.195,11.847,60.849,11.571,63.833,11.199z M63.142,12.792c-0.916,0.147-1.722,0.298-2.533,0.402  c-2.744,0.353-5.505,0.597-8.231,1.056c-3.757,0.632-7.486,1.43-11.231,2.138c-2.873,0.543-5.756,1.04-8.624,1.607  c-0.355,0.07-0.878,0.412-0.927,0.696c-0.157,0.901-0.491,1.761-0.082,2.769c1.117,2.75,2.102,5.555,3.076,8.359  c1.225,3.524,2.368,7.076,3.584,10.602c1.012,2.937,2.06,5.862,3.131,8.779c0.427,1.163,1.308,1.618,2.495,1.294  c7.772-2.118,15.538-4.254,23.301-6.406c0.356-0.099,0.743-0.341,0.964-0.631c1.912-2.517,3.129-5.085,1.99-8.463  c-1.961-5.815-3.608-11.735-5.403-17.606C64.181,15.852,63.65,14.333,63.142,12.792z M56.45,63.571  c-0.417-2.197-1.314-2.374-3.154-1.932c-0.054,0.013-0.122-0.034-0.245-0.072c-0.074-0.207-0.212-0.447-0.242-0.7  c-0.112-0.949-0.695-1.393-1.553-1.679c-1.051-0.35-1.898,0.245-2.839,0.437c-1.003,0.204-1.138,0.765-0.891,1.585  c0.215,0.716,0.467,1.42,0.702,2.127c-0.677,0.364-1.299,0.667-1.889,1.023c-0.826,0.498-1.387,1.094-0.782,2.156  c0.239,0.42,0.301,0.938,0.481,1.397c0.442,1.126,1.295,1.511,2.418,1.122c0.452-0.157,0.906-0.307,1.39-0.47  c0.155,0.458,0.25,0.807,0.389,1.137c0.42,0.996,1.47,1.559,2.249,1.235c0.289-0.12,0.617-0.164,0.884-0.319  c0.781-0.452,1.685-0.82,2.243-1.474c0.251-0.295-0.199-1.194-0.344-1.816c-0.045-0.192-0.134-0.374-0.204-0.565  c0.833-0.519,2.035-0.529,2.322-1.552C57.017,64.584,56.553,64.112,56.45,63.571z M77.534,54.661  c0.28-0.945,0.039-1.641-0.637-2.321c-0.886-0.891-1.912-1.098-3.134-1.122c-1.779-0.036-3.869,2.39-3.384,4.123  c0.354,1.266,1.822,2.327,3.224,2.33C75.426,57.676,77.013,56.422,77.534,54.661z M74.129,61.874  c-0.065-1.74-1.907-3.093-4.093-3.006c-1.58,0.063-2.922,1.743-2.872,3.562c0.036,1.309,1.714,3.157,3.449,2.837  C72.876,65.173,74.205,63.891,74.129,61.874z M68.702,70.067c-0.665,1.13-1.334,2.265-1.894,3.449  c-1.002,2.121-0.97,2.136,1.113,2.926c0.03,0.011,0.053,0.04,0.082,0.055c0.558,0.278,1.011,0.09,1.212-0.439  c0.708-1.864,1.381-3.742,2.014-5.632c0.063-0.187-0.177-0.625-0.382-0.721c-0.371-0.174-0.822-0.179-1.461-0.294  C69.222,69.564,68.879,69.767,68.702,70.067z M61.125,77.91c0.269-0.282,0.638-0.518,0.792-0.852  c0.796-1.727,1.511-3.492,2.309-5.218c0.407-0.88-0.302-1.008-0.768-1.298c-0.534-0.334-1.086-0.403-1.432,0.252  c-0.979,1.851-1.949,3.707-2.883,5.581c-0.33,0.661,0.094,1.251,0.866,1.3c0.32,0.02,0.642,0.003,0.963,0.003  C61.023,77.755,61.074,77.833,61.125,77.91z M80.563,68.662c-0.513-0.465-0.98-1.001-1.554-1.371  c-0.283-0.182-0.782-0.13-1.143-0.033c-0.117,0.031-0.251,0.693-0.13,0.81c1.608,1.555,3.226,3.104,4.92,4.563  c0.56,0.483,1.235,0.321,1.683-0.55C83.053,70.916,81.807,69.79,80.563,68.662z M82.611,74.235c0.071-0.095-0.111-0.493-0.278-0.638  c-1.674-1.45-3.352-2.896-5.079-4.282c-0.227-0.182-0.732-0.018-1.108-0.014c0.069,0.34,0.018,0.807,0.225,0.998  c1.478,1.372,3,2.697,4.529,4.013c0.232,0.2,0.57,0.278,0.937,0.448C82.121,74.582,82.44,74.463,82.611,74.235z M77.942,72.776  c-0.742-0.655-1.524-1.274-2.343-1.827c-0.236-0.16-0.665-0.034-1.006-0.04c0.088,0.315,0.083,0.718,0.282,0.929  c0.725,0.772,1.501,1.5,2.291,2.207c0.936,0.836,1.884,1.662,2.87,2.437c0.572,0.45,1.194,0.587,1.644-0.279  C80.426,75.049,79.205,73.889,77.942,72.776z M80.569,78.032c-1.822-1.566-3.629-3.151-5.477-4.688  c-0.53-0.441-1.15-0.87-2.06-0.398c0.291,0.393,0.49,0.776,0.79,1.047c1.397,1.258,2.811,2.497,4.244,3.714  c0.369,0.313,0.798,0.63,1.251,0.748c0.411,0.106,0.892-0.057,1.342-0.102C80.629,78.246,80.599,78.139,80.569,78.032z   M73.261,75.062c-0.144-0.117-0.353-0.216-0.532-0.215c-0.195,0.001-0.47,0.077-0.561,0.217c-0.08,0.124-0.028,0.462,0.09,0.567  c1.601,1.424,3.191,2.865,4.863,4.203c0.466,0.373,1.208,0.663,1.78-0.16C76.981,78.101,75.126,76.575,73.261,75.062z   M36.574,21.292c0.853-0.113,1.462-0.139,2.044-0.279c3.604-0.861,7.196-1.773,10.804-2.616c2.683-0.627,5.379-1.206,8.082-1.741  c1.049-0.208,2.133-0.271,3.205-0.313c0.205-0.008,0.542,0.351,0.621,0.603c1.122,3.559,2.257,7.115,3.293,10.7  c0.944,3.266,1.78,6.563,2.638,9.854c0.134,0.512,0.269,1.099,0.141,1.581c-0.094,0.354-0.572,0.74-0.958,0.862  c-3.191,1.015-6.39,2.004-9.606,2.938c-2.871,0.834-5.764,1.597-8.652,2.372c-0.947,0.254-1.903,0.486-2.868,0.659  c-0.748,0.134-1.042-0.427-1.263-1.014c-0.944-2.508-1.85-5.032-2.837-7.523c-1.684-4.252-2.954-8.627-4.02-13.066  C36.945,23.26,36.759,22.196,36.574,21.292z M47.58,44.282c0.208,0,0.312,0.024,0.4-0.003c3.754-1.141,7.511-2.272,11.252-3.455  c0.322-0.102,0.67-0.504,0.778-0.839c0.775-2.415,1.425-4.871,2.244-7.269c0.719-2.106,1.286-4.128,0.327-6.35  c-0.51-1.18-0.65-2.52-0.962-3.806C57.382,30.126,52.452,37.129,47.58,44.282z M41.516,33.447c2.734-4.649,5.501-9.354,8.315-14.139  c-1.666,0.362-3.305,0.701-4.93,1.094c-0.201,0.049-0.414,0.361-0.483,0.592c-0.954,3.208-1.889,6.421-2.817,9.636  C41.327,31.576,40.717,32.521,41.516,33.447z M37.968,29.217c-0.039-0.512-1.004-1.334-1.55-1.322  c-0.594,0.014-1.167,0.753-1.124,1.512c0.048,0.826,0.635,1.068,1.158,1.146C37.304,30.534,38.015,29.823,37.968,29.217z"/></svg>