<svg xmlns="http://www.w3.org/2000/svg" viewBox="0 0 100 125"><path d="M66.878 5c1.206.458 2.4.95 3.62 1.368 1.76.605 2.536 2.056 3 3.644.4 1.37.587 2.817.727 4.244.327 3.315.617 6.635.83 9.96.157 2.475.13 4.96.252 7.44.188 3.817.46 7.63.64 11.447.058 1.23.254 2.516-.495 3.46.96 1.277 1.906 2.42 2.724 3.65 4.182 6.277 8.303 12.595 12.51 18.857 1.104 1.646 2.523 3.084 3.61 4.74.376.572.185 1.52.244 2.295.008.11-.045.225-.048.338-.024.904-.882 1.576-.68 2.593.044.213-.647.737-1.072.854-4.268 1.18-8.595 2.165-12.82 3.477-6.698 2.078-13.61 3.223-20.38 4.962-2.538.65-5.01 1.56-7.536 2.26-3.696 1.02-7.407 2-11.128 2.93-2.076.52-4.184.91-6.276 1.36-.047.01-.082.07-.123.11h-2.57c-.07-.05-.135-.12-.21-.14-2.9-.59-5.044-2.1-6.1-4.96-.118-.32-.3-.61-.47-.91-2.063-3.6-4.172-7.18-6.18-10.82-.877-1.59-1.468-3.34-2.33-4.94-1.69-3.13-3.51-6.18-5.193-9.32-.324-.6-.375-1.42-.343-2.13.04-.75.32-1.49.5-2.26-1.6-.21-2.16-1.45-2.43-2.84-.32-1.68-.52-3.37-.73-5.07-.35-2.82-.77-5.64-.97-8.48-.28-3.93-.29-7.877-.58-11.8-.37-5.03-.91-10.05-1.37-15.07-.03-.34-.08-.72.03-1.02 1.11-2.897 1.73-6.1 5.68-6.767 1.69-.28 3.35-.56 5.06-.59 3.11-.05 6.21-.11 9.32-.25 3.51-.154 7.01-.42 10.51-.6 2.08-.105 4.17-.085 6.25-.23 5.83-.41 11.66-.87 17.49-1.34 1.44-.117 2.88-.33 4.31-.5h2.75zm6.662 41.808c.025-.168.047-.403.096-.632.138-.655.42-1.31.407-1.962-.043-2.14-.218-4.276-.293-6.414-.238-6.792-.358-13.59-.728-20.373-.134-2.446.137-4.987-1.234-7.314-1.345-2.283-3.242-3.412-5.79-3.36-3.132.066-6.26.314-9.39.47-1.51.077-3.023.085-4.53.196-4.18.3-8.354.69-12.536.97-4.183.28-8.372.46-12.558.68-4.415.24-8.828.53-13.246.69-1.862.07-3.273.7-3.675 2.57-.325 1.51-.463 3.1-.39 4.64.166 3.44.52 6.87.79 10.3.32 4.12.577 8.25.965 12.36.355 3.76.85 7.52 1.28 11.28.228 1.97.47 3.94.667 5.92.05.5.23.67.702.55 3.215-.77 6.488-1.04 9.78-1.18.174-.01.358-.1.515-.18.644-.37 1.277-.13 1.542.58.188.5.312 1.05.59 1.5.156.25.6.51.864.47 2.088-.34 4.173-.71 6.243-1.15 2.02-.42 4-.98 6.02-1.39 2.99-.61 5.99-1.11 8.98-1.7 2.52-.496 5.02-1.04 7.53-1.576 3.11-.66 6.21-1.33 9.36-2.007-.25-.674-.51-1.167-.6-1.69-.05-.313.06-.78.27-.977.16-.142.62.028.94.07.31.04.64.2.92.14 2.2-.494 4.38-1.032 6.53-1.55zM14.814 59.265c.32.59.55 1.01.775 1.436 2.13 4.06 4.23 8.13 6.39 12.16 1.86 3.49 3.72 6.98 5.7 10.4.82 1.41 1.95 2.65 3 3.92.38.46.91 1.06 1.4 1.09 1.91.11 3.88.26 5.75-.07 2.65-.46 5.23-1.33 7.85-2 8.76-2.24 17.52-4.46 26.28-6.69 3.55-.9 7.11-1.77 10.64-2.7 2.96-.78 5.9-1.67 8.86-2.47.75-.2.74-.5.35-1.06-2.44-3.44-4.87-6.89-7.27-10.35-1.67-2.41-3.32-4.84-4.94-7.29-1.65-2.49-3.23-5.02-4.87-7.52-.12-.18-.46-.35-.67-.33-1.07.11-2.13.25-3.18.47-1.39.28-2.76.65-4.24 1l1 1.93c-.187.11-.46.37-.77.44-4.907 1.06-9.81 2.144-14.73 3.13-4.59.918-9.21 1.726-13.81 2.586-3.96.74-7.92 1.49-11.89 2.2-.348.06-.82-.08-1.1-.3-.43-.34-.74-.83-1.16-1.322-3.02.45-6.16.91-9.41 1.397zm-1.614.728c-.418 1.484-.672 2.82-.205 4.037.577 1.503 1.436 2.902 2.222 4.32 2.33 4.203 4.747 8.36 7.01 12.598 1.98 3.708 4.13 7.293 6.643 10.665 1.18 1.584 2.834 1.88 4.557 1.595 2.302-.382 4.576-.962 6.838-1.547 3.653-.94 7.295-1.93 10.927-2.95 2.517-.71 4.984-1.61 7.517-2.25 6.54-1.66 13.22-2.78 19.69-4.79 4.19-1.3 8.47-2.31 12.7-3.46 1.1-.3 1.68-1.26 1.47-2.39-.11.02-.22.02-.33.04-5.7 1.53-11.38 3.12-17.09 4.57-5.45 1.39-10.93 2.59-16.39 3.92-6.82 1.66-13.61 3.46-20.45 5.02-1.7.39-3.57.27-5.33.07-2.22-.25-3.79-1.76-5.03-3.51-1.01-1.41-1.85-2.93-2.76-4.41-1.46-2.38-2.98-4.72-4.34-7.16-1.65-2.96-3.14-6-4.72-8.99-.92-1.74-1.9-3.46-2.95-5.36zM9.002 11.457c-.82 1.322-1.814 2.654-1.748 4.253.108 2.587.484 5.162.713 7.746.337 3.8.694 7.6.95 11.406.235 3.497.238 7.01.547 10.5.33 3.738.873 7.458 1.39 11.177.105.76.182 1.65 1.173 2.19-.03-.42-.04-.72-.072-1.01-.373-3.26-.79-6.51-1.115-9.76-.317-3.18-.508-6.38-.817-9.56-.253-2.61-.638-5.21-.89-7.82-.362-3.75-.69-7.49-.968-11.24-.198-2.67-.37-5.35.837-7.9zm7.328 5.156c-.016-.285-.12-.603-.025-.845.098-.253.37-.596.593-.618 2.022-.2 4.052-.328 6.077-.5 2.07-.175 4.14-.354 6.204-.57 2.42-.255 4.84-.595 7.27-.815 1.58-.144 3.18-.112 4.78-.208 4.04-.244 8.07-.53 12.11-.77 1.22-.073 2.45-.02 3.68-.083 1.98-.1 3.97-.282 5.96-.368 1.47-.064 2.95-.064 4.42-.003.23.01.59.474.63.765.21 1.433.38 2.876.47 4.322.11 1.753.11 3.512.19 5.268.11 2.508.24 5.016.39 7.523.25 4.19.5 8.38.78 12.56.09 1.31-.53 2.31-1.79 2.48-2.71.36-5.44.58-8.16.93-3.75.49-7.5 1.05-11.25 1.55-2.97.4-5.94.76-8.9 1.16-2.26.3-4.51.64-6.76.93-3.36.44-6.72.85-10.08 1.26-.93.11-1.86.19-2.79.24-.51.03-.72-.23-.77-.78-.38-4.35-.8-8.69-1.18-13.04-.42-4.89-.79-9.79-1.23-14.67-.17-1.9-.5-3.78-.76-5.67.03-.01.07-.01.1-.01zm4.146 32.28c.712 0 1.11.032 1.504-.005 2.18-.204 4.355-.497 6.54-.614 1.296-.07 2.39-.36 3.445-1.185 4.892-3.82 9.805-7.61 14.773-11.33 6.43-4.82 12.888-9.6 19.81-13.7.41-.25.48-.49.436-.96-.188-2.04-.312-4.09-.443-6.13-.03-.51 0-1.01 0-1.45-1.8 0-3.56-.01-5.32 0-1.65 0-3.3.03-4.96.04-.82 0-1.49.19-2.12.84-5.22 5.36-10.47 10.69-15.74 16-5.69 5.73-11.41 11.44-17.11 17.17-.29.3-.46.73-.8 1.29zm18.57-33.836c-.967.083-2.016.14-3.055.274-.63.09-1.36.12-1.86.45-4.83 3.22-9.62 6.48-14.41 9.76-.26.18-.49.63-.47.95.09 1.71.25 3.41.39 5.11l.32 3.76 19.1-20.29zm28.177 13.026L49.37 45.23c2.67-.112 5.174-.385 7.682-.624 1.648-.157 3.282-.297 3.935-2.21.018-.05.068-.09.1-.137 1.89-2.75 3.786-5.49 5.666-8.24.202-.3.438-.65.448-.98.05-1.59.03-3.19.03-4.96zM23.69 63.056c2.26-.377 4.547-.705 6.81-1.15 3.156-.62 6.3-1.302 9.438-2.004 1.97-.44 3.918-.975 5.88-1.45.803-.195 1.623-.32 2.423-.523 1.63-.42 3.24-.93 4.88-1.28 2.03-.44 4.11-.69 6.13-1.15 2.97-.68 5.92-1.46 8.87-2.21.88-.23 1.74-.53 2.61-.79.65-.2.92-.08 1.2.68.5 1.34 1.35 2.55 2.01 3.83.65 1.25 1.26 2.53 1.89 3.8.52 1.03 1.05 2.04 1.56 3.07.45.89.31 1.16-.69 1.38-1.8.39-3.63.71-5.42 1.17-3.31.84-6.58 1.83-9.9 2.63-4.57 1.1-9.18 2.04-13.76 3.12-4.22.98-8.41 2.07-12.63 3.09-1.73.42-3.49.76-5.23 1.16-.43.09-.64.02-.85-.41-1.82-3.79-3.67-7.56-5.5-11.34-.13-.28-.29-.57-.33-.87-.06-.44-.15-1 .65-.79zm16.043 10.037l-.287.13c-.275-.51-.516-1.045-.84-1.525-.18-.27-.54-.678-.744-.64-1.52.29-3.022.678-4.59 1.05l1.336 2.547c3.62-.89 7.197-1.767 10.702-2.627l-1.496-2.386c-1.685.416-3.364.83-5.14 1.27.362.745.71 1.463 1.06 2.18zm22.322-11.518c.8 2.522.982 2.677 3.02 2.214 1.62-.37 3.22-.83 4.87-1.26-.48-.78-.864-1.46-1.312-2.1-.122-.18-.464-.34-.657-.29-1.964.44-3.92.93-5.92 1.42zM56.74 65.9c-.586-.95-1.032-1.7-1.516-2.428-.083-.125-.35-.227-.498-.193-1.797.42-3.588.87-5.546 1.35l1.466 2.64 6.094-1.37zm-6.63 1.5c-.37-.8-.662-1.51-1.027-2.18-.11-.202-.453-.456-.632-.417-1.93.417-3.86.887-5.9 1.367.42.832.75 1.52 1.12 2.19.06.11.28.214.41.192 1.99-.365 3.97-.75 6.05-1.15zm1.902 3.063c-.114-.127-.21-.215-.283-.32-.47-.67-.79-1.676-1.41-1.925-.65-.256-1.59.204-2.39.39-1.17.27-2.33.574-3.47.86.37.698.65 1.313 1.01 1.88.14.22.49.507.68.466 1.94-.41 3.87-.883 5.85-1.35zm11.77-5.422c.315.54.59.99.86 1.46.323.56.782.79 1.408.57 1.804-.61 3.606-1.24 5.41-1.86-.272-.58-.447-1.06-.722-1.48-.113-.17-.47-.33-.666-.28-2.07.5-4.128 1.05-6.29 1.6zM51.237 67.9c.37.744.692 1.374.995 2.013.196.413.463.477.9.357 1.1-.3 2.216-.536 3.324-.808.62-.153 1.235-.325 1.91-.503-.404-.73-.722-1.37-1.103-1.97-.104-.16-.42-.32-.6-.29-1.782.36-3.557.77-5.426 1.18zm6.077-2.25l5.208-1.3c-.463-.812-.85-1.525-1.276-2.217-.087-.142-.33-.313-.46-.285-1.652.35-3.296.735-5.114 1.15l1.642 2.65zM40.03 60.51c.25.558.49 1.04.69 1.54.227.57.56.74 1.177.545 1.11-.35 2.244-.63 3.375-.912.652-.163 1.316-.28 2.07-.436-.304-.67-.536-1.245-.83-1.786-.077-.14-.37-.26-.53-.23-1.97.41-3.932.85-5.953 1.29zm26.584-4.08c-.543-1.663-.77-1.8-2.28-1.49-.222.047-.45.076-.67.126-1.457.326-2.912.653-4.475 1.005l1.05 2.07 6.37-1.7zm-32.952 5.44l-4.98 1.1c.36.84.663 1.6 1.018 2.332.07.14.372.29.523.254 1.475-.35 2.94-.736 4.44-1.12l-1-2.566zm6.82.947c-.355-1.953-.794-2.265-2.54-1.84-.36.09-.725.153-1.085.24-.84.203-1.68.414-2.614.644.332.69.563 1.31.917 1.85.15.23.6.46.843.4 1.506-.38 2.99-.84 4.478-1.28zm23.986 4.506c-.552-.72-1.036-1.364-1.538-1.993-.05-.063-.22-.072-.32-.048-1.59.383-3.177.78-4.886 1.2.42.75.76 1.4 1.146 2.017.074.12.34.22.48.18 1.648-.42 3.288-.87 5.118-1.36zm5.013-7.52c.41.74.79 1.47 1.22 2.17.09.15.37.32.52.287 1.37-.282 2.72-.606 4.19-.944l-1.44-2.637-4.49 1.12zm-32.17 7.79c.15.52.26.96.4 1.388.25.73.68 1.03 1.48.76.89-.3 1.81-.49 2.72-.74l1.48-.39c-.35-.7-.61-1.31-.95-1.86-.11-.18-.46-.36-.64-.32-1.46.35-2.91.76-4.46 1.17zm-5.79 1.417c.41.747.77 1.447 1.18 2.113.09.133.41.24.57.19 1.44-.414 2.87-.867 4.45-1.355-.38-.64-.69-1.237-1.09-1.76-.14-.19-.54-.332-.78-.278-1.41.316-2.8.7-4.31 1.087zm27.91-10.69c-.27-.607-.48-1.16-.76-1.677-.07-.135-.37-.26-.53-.22-1.82.457-3.63.946-5.51 1.447.31.487.55.988.91 1.367.23.236.68.462.97.395 1.63-.38 3.24-.85 4.94-1.31zm-35.46 5.57c.48.977.89 1.847 1.35 2.686.1.18.45.392.61.345 1.13-.33 2.24-.73 3.34-1.1-.4-.74-.73-1.43-1.13-2.07-.14-.22-.47-.51-.68-.48-1.12.15-2.23.39-3.47.63zm23.71-2.77l5.62-1.275c-.36-.613-.64-1.135-.97-1.624-.08-.12-.34-.23-.49-.2-1.67.31-3.33.66-5.04 1l.9 2.11zm-5.41 4.295c2.04-.502 4.02-.987 6.05-1.49l-.77-1.743-5.99 1.45.72 1.783zm25.71-6.405c-.21-.44-.39-.89-.65-1.29-.09-.15-.38-.29-.53-.25-2.06.51-4.11 1.05-6.21 1.593.22.41.36.8.61 1.093.16.19.52.367.74.32 2-.454 3.98-.96 6.07-1.475zM32.13 71.74c-.396-.787-.742-1.524-1.143-2.23-.08-.14-.4-.26-.56-.22-1.09.268-2.17.583-3.29.893.33.736.6 1.425.97 2.058.12.22.53.45.74.4 1.07-.24 2.12-.57 3.28-.9zm22.56-9.286c-.27-.454-.41-.768-.623-1.022-.19-.227-.5-.583-.69-.546-1.77.343-3.53.76-5.35 1.165.213.48.32.85.535 1.13.16.21.5.47.71.43 1.75-.33 3.49-.73 5.405-1.15zm-20.83 12.18c-.48-.784-.866-1.444-1.293-2.075-.09-.12-.36-.22-.5-.18-1.14.32-2.27.68-3.43 1.03l.63 2.1 4.584-.88zm2.057-7.67c-.23-.53-.37-.938-.58-1.294-.11-.175-.4-.39-.56-.36-1.53.295-3.04.638-4.69.995.263.55.406.952.637 1.293.15.223.47.546.645.507 1.51-.338 3.01-.748 4.53-1.142zm24.71-5.997c-.27-.54-.41-.95-.65-1.29-.13-.173-.46-.345-.65-.3-1.61.378-3.2.806-4.79 1.218.13.996.66 1.67 1.22 1.543 1.58-.36 3.15-.756 4.866-1.17zm10.68 2.08c.07.225.085.308.12.386.62 1.54.62 1.53 2.22 1.182.98-.213 1.98-.39 3.004-.592l-.93-2.08-4.41 1.104zm-35.33 1.97c.48 1.545.71 1.69 2.07 1.406.39-.08.788-.136 1.176-.228.84-.2 1.68-.418 2.57-.64l-.756-1.773c-1.71.416-3.38.825-5.06 1.235zm37.663-6.97c-.325-.603-.59-1.166-.925-1.682-.103-.157-.434-.304-.605-.257-1.31.363-2.602.774-3.9 1.17.37 1.555.72 1.78 2.197 1.45 1.027-.23 2.06-.434 3.233-.68zm-7.006-3.57l-.217.238c.46.48.94 1.38 1.37 1.358 1.415-.076 2.814-.487 4.406-.806-.56-.705-.512-1.584-1.52-1.413-1.342.228-2.69.417-4.036.623zM26.69 69.335l3.847-.88-.95-1.93-3.895.82 1 1.99zm22.82 5.66c-.012-1.07.888-1.116 1.47-1.28 3.153-.884 6.33-1.677 9.494-2.524 2.692-.72 5.384-1.44 8.06-2.22.76-.22 1.26-.01 1.643.59.99 1.56 1.963 3.13 2.934 4.7.26.41.52.83.7 1.27.31.73.07 1.26-.69 1.44-1.99.46-4 .85-5.99 1.32-.71.17-1.38.51-2.09.72-3.6 1.08-7.2 2.14-10.81 3.2-.51.15-.9.14-1.2-.42-.99-1.85-2.04-3.68-3.04-5.52-.21-.38-.31-.82-.46-1.24zm.66-.28c.16.42.243.754.4 1.046.914 1.7 1.86 3.38 2.76 5.08.23.43.453.57.924.39.64-.24 1.303-.41 1.958-.61 2.316-.7 4.628-1.42 6.95-2.1 2.65-.78 5.308-1.52 7.963-2.29l2.002-.57-3.607-5.74-19.342 4.81z"/></svg>