<svg xmlns="http://www.w3.org/2000/svg" xmlns:xlink="http://www.w3.org/1999/xlink" version="1.1" x="0px" y="0px" viewBox="0 0 100 125" enable-background="new 0 0 100 100" xml:space="preserve"><path d="M71.683,95c-0.139-0.586-0.405-1.174-0.4-1.759c0.124-12.888,0.207-25.778,0.46-38.664  c0.105-5.325,0.599-10.642,0.893-15.964c0.056-1.006,0.008-2.019,0.008-3.199c-1.334,1.074-2.584,2.079-3.833,3.086  c-3.641,2.934-7.282,5.869-10.921,8.806c-0.194,0.157-0.402,0.317-0.54,0.518c-0.681,0.992-1.288,1.158-1.993,0.178  c-1.408-1.957-2.759-3.98-3.894-6.104c-3.152-5.898-6.18-11.862-9.26-17.798c-0.092-0.178-0.212-0.341-0.503-0.46  c0.331,5.672,0.679,11.343,0.99,17.016c0.313,5.72,0.556,11.444,0.89,17.162c0.328,5.605,1.304,11.147,1.522,16.842  c0.009-0.002-0.205,0.11-0.316,0.045c-1.593-0.939-3.207-1.862-4.05-3.64c-0.091-0.192-0.23-0.362-0.354-0.536  c-2.183-3.073-4.373-6.141-6.544-9.222c-0.349-0.496-0.575-1.018-1.389-0.8c-0.18,0.048-0.747-0.563-0.793-0.916  c-0.498-3.807-0.967-7.618-1.363-11.437c-0.4-3.858-0.688-7.728-1.065-11.588c-0.345-3.529-0.7-7.057-1.134-10.576  c-0.381-3.086-0.864-6.16-1.326-9.235c-0.488-3.253-1.002-6.501-1.514-9.751c-0.026-0.166-0.137-0.319-0.208-0.479  c0-0.508,0-1.017,0-1.525c0.654,0,1.308,0,1.961,0c0.262,0.241,0.554,0.456,0.781,0.726c1.611,1.912,3.189,3.851,4.815,5.751  c2.188,2.558,4.409,5.088,6.66,7.682c0.531-1.296,0.678-1.276,1.856-0.741c1.04,0.471,1.225,1.451,1.679,2.283  c2.081,3.81,4.163,7.62,6.227,11.439c0.83,1.536,1.614,3.097,2.389,4.589c0.307-0.321,0.514-0.604,0.782-0.807  c2.218-1.674,4.421-3.371,6.683-4.984c1.61-1.148,3.274-2.231,4.98-3.231c0.578-0.339,1.346-0.78,2.137-0.063  c-0.273,0.433-0.534,0.845-0.971,1.539c2.573,1.068,5.079,2.112,7.591,3.139c0.127,0.052,0.324-0.016,0.471-0.073  c0.854-0.33,1.541,0.093,1.634,1.008c0.069,0.678,0.151,1.355,0.227,2.033c0,1.961,0,3.923,0,5.884  c-0.142,1.356-0.35,2.709-0.414,4.068c-0.249,5.286-0.514,10.573-0.66,15.862c-0.268,9.718-0.418,19.44-0.716,29.157  c-0.049,1.581,0.142,3.283-0.825,4.738C72.119,95,71.901,95,71.683,95z M70.375,95c0.086-0.534,0.27-1.075,0.23-1.6  c-0.043-0.564-0.322-1.107-0.455-1.669c-1.673-7.058-3.25-14.141-5.041-21.169c-1.005-3.945-2.346-7.805-3.57-11.692  c-0.216-0.686-0.729-1.327-1.509-1.058c-0.343,0.118-0.472,0.862-0.698,1.322c-0.76,0.242-1.642,0.547-2.205,1.15  c-3.807,4.081-7.555,8.217-11.293,12.362c-0.341,0.378-0.893,0.954-0.124,1.458c0.62,0.406,1.189,0.262,1.698-0.327  c1.516-1.757,3.064-3.487,4.605-5.223c0.636-0.716,1.285-1.42,2.023-2.235c0.114,0.318,0.18,0.442,0.203,0.574  c0.586,3.382,1.184,6.763,1.745,10.15c0.339,2.047,0.561,4.115,0.966,6.148c0.123,0.617,0.599,1.543,1.055,1.637  c1.061,0.218,1.661,0.924,2.324,1.567c2.084,2.02,4.094,4.117,6.185,6.13c0.583,0.562,1.356,0.923,2.027,1.398  c0.48,0.34,0.934,0.717,1.399,1.078C70.085,95,70.23,95,70.375,95z"/></svg>