<svg xmlns="http://www.w3.org/2000/svg" xmlns:xlink="http://www.w3.org/1999/xlink" version="1.1" x="0px" y="0px" viewBox="0 0 100 125" enable-background="new 0 0 100 100" xml:space="preserve"><path d="M59.316,5c1.36,0.513,2.74,0.981,4.066,1.569c0.373,0.165,0.59,0.684,0.878,1.041  c-0.443,0.152-0.882,0.316-1.33,0.449c-0.161,0.048-0.344,0.023-0.62,0.036c4.597,4.929,6.305,11.267,8.975,17.1  c1.524,3.33,3.003,6.685,4.378,10.079c3.039,7.496,6.003,15.023,8.989,22.54c0.843,2.121,1.853,4.2,2.436,6.392  c0.697,2.621,0.797,4.88-0.666,7.464c3.068,2.838,3.316,6.583,2.971,10.411c-0.076,0.847-0.801,1.814-1.502,2.393  c-2.419,1.999-5.395,2.936-8.355,3.713c-5.21,1.368-10.474,2.537-15.725,3.743c-3.609,0.829-7.205,1.821-10.864,2.291  c-3.256,0.418-6.524,1.275-9.9,0.397c-2.991-0.777-4.996-2.612-6.278-5.242c-2.493-5.111-4.948-10.246-7.23-15.453  c-2.573-5.869-4.93-11.831-7.398-17.746c-1.087-2.605-2.259-5.175-3.315-7.792c-2.343-5.809-4.651-11.633-6.937-17.465  c-0.314-0.801-0.412-1.686-0.638-2.524c-0.232-0.86-0.499-1.711-0.764-2.612c3.036-3.336,7.199-5.055,11.237-6.873  c8.817-3.969,17.717-7.754,26.589-11.602c2.694-1.168,5.505-1.887,8.44-2.104C56.957,5.19,57.151,5.071,57.35,5  C58.005,5,58.66,5,59.316,5z M40.886,91.282c0.573-0.4,0.874-0.684,1.23-0.846c3.085-1.401,6.202-2.732,9.267-4.174  c7.424-3.494,14.843-6.999,22.227-10.576c3.109-1.506,6.151-3.159,9.165-4.848c0.733-0.411,1.602-1.142,1.779-1.877  c0.535-2.219,0.192-4.452-0.673-6.578c-2.023-4.97-4.075-9.928-6.08-14.905c-1.545-3.834-2.975-7.714-4.565-11.528  c-2.762-6.627-5.593-13.226-8.428-19.822c-1.284-2.987-2.845-5.821-5.338-7.993c-0.466-0.406-1.211-0.711-1.819-0.696  c-2.884,0.068-5.578,0.973-8.224,2.064c-7.806,3.217-15.592,6.491-23.449,9.578c-4.225,1.66-8.364,3.412-12.009,6.168  c-1.025,0.775-1.265,1.731-0.741,2.885c0.254,0.561,0.479,1.136,0.692,1.714c1.162,3.164,2.255,6.354,3.488,9.49  c1.577,4.013,3.273,7.978,4.901,11.972c1.737,4.263,3.391,8.561,5.196,12.794c1.804,4.231,3.723,8.413,5.642,12.593  c1.846,4.019,3.669,8.054,5.67,11.996c1.476,2.909,3.769,4.995,7.282,4.697c2.859-0.243,5.724-0.714,8.516-1.378  c3.415-0.811,6.72-2.087,10.139-2.876c4.827-1.114,9.727-1.913,14.428-3.537c2.311-0.798,4.669-1.513,6.568-3.159  c0.272-0.236,0.423-0.61,0.785-1.151c-1.065,0.443-1.764,0.819-2.509,1.029c-7.304,2.059-14.583,4.219-21.936,6.088  c-5.397,1.372-10.888,2.377-16.347,3.496C44.213,92.216,42.679,92.086,40.886,91.282z M53.209,88.469  c0.003,0.058,0.007,0.116,0.01,0.174c0.178,0,0.366,0.036,0.534-0.005c3.203-0.787,6.429-1.495,9.6-2.396  c6.447-1.831,12.872-3.744,19.29-5.677c1.625-0.489,2.506-2.069,2.323-4.011c-1.412,2.123-3.597,2.753-5.703,3.511  c-1.082,0.39-2.177,0.744-3.265,1.119c-4.183,1.442-8.344,2.951-12.554,4.307C60.063,86.579,56.623,87.483,53.209,88.469z   M83.39,74.229c-5.28,2.415-10.436,4.774-15.592,7.132c0.194,0.063,0.363,0.04,0.519-0.017c3.598-1.314,7.172-2.698,10.801-3.921  C80.887,76.827,82.189,75.756,83.39,74.229z M60.377,31.563c-0.008,1.855-2.064,4.593-3.856,5.133  c-1.885,0.568-2.183,0.489-3.056-1.385c-0.822-1.764-1.543-3.579-2.226-5.402c-0.338-0.901-0.008-1.193,0.917-1.077  c0.355,0.044,0.758,0.012,1.09-0.112c1.639-0.615,3.273-1.105,5.005-0.354C59.722,29.003,60.384,29.995,60.377,31.563z   M53.322,29.976c0.843,1.904,1.607,3.629,2.515,5.678c0.917-1.42,1.781-2.541,2.407-3.782c0.799-1.583-0.372-3.119-2.114-2.813  C55.197,29.225,54.309,29.645,53.322,29.976z M35.361,53.863c-1.15-0.779-2.096-1.853-3.201-2.708  c-0.398-0.308-1.005-0.346-1.516-0.507c-0.029,0.453-0.2,0.957-0.059,1.348c0.342,0.948,0.741,1.9,1.282,2.745  c0.653,1.018,1.448,1.952,2.252,2.859c0.152,0.172,0.783,0.187,0.93,0.029c0.182-0.194,0.194-0.683,0.09-0.977  c-0.182-0.516-0.509-0.982-0.905-1.705c1.758,0.874,3.272,1.35,4.852,0.349c0.135-0.086,0.354-0.036,0.534-0.054  c0.893-0.091,1.07-0.404,0.673-1.183c-0.443-0.871-0.866-1.752-1.333-2.61c-0.43-0.791-0.811-1.642-1.4-2.3  c-0.298-0.332-1.007-0.296-1.53-0.427c-0.027,0.501-0.223,1.073-0.049,1.49c0.609,1.463,1.346,2.872,2.19,4.625  C37.062,54.47,36.085,54.353,35.361,53.863z M64.527,46.587c0.921-0.097,1.888-0.049,2.752-0.325  c1.335-0.426,2.009-1.425,1.866-2.349c-0.134-0.861-1.19-1.643-2.452-1.769c-1.007-0.1-2.018-0.158-3.028-0.226  c-0.831-0.056-1.314-0.619-1.208-1.426c0.149-1.141,1.229-2.146,2.36-2.344c0.434-0.076,0.821-0.416,1.229-0.636  c-0.036-0.132-0.072-0.264-0.108-0.396c-0.466-0.15-0.922-0.363-1.399-0.437c-1.989-0.31-2.961,1.03-3.8,2.474  c-1.013,1.745-0.595,3.027,1.244,3.869c0.511,0.234,1.098,0.352,1.661,0.411c1.315,0.139,2.636,0.209,3.955,0.308  c0.053,0.113,0.106,0.225,0.16,0.338c-1.124,0.667-2.247,1.333-3.371,2C64.434,46.248,64.48,46.417,64.527,46.587z M54.708,43.307  C54.386,42.6,54.48,42.134,55.33,42c0.104-0.016,0.231-0.061,0.292-0.137c0.202-0.252,0.379-0.524,0.566-0.788  c-0.357-0.149-0.743-0.468-1.063-0.411c-0.552,0.098-1.043,0.497-1.594,0.646c-0.84,0.228-0.969,0.731-0.752,1.465  c0.585,1.979,1.166,3.939,2.386,5.677c0.535,0.762,1.029,1.302,1.949,1.072c1.322-0.331,2.318-1.113,2.898-2.496  c-1.315-0.677-2.461-0.215-3.64,0.392c-0.168-0.381-0.307-0.694-0.372-0.841c0.918-0.687,1.743-1.304,2.567-1.921  c-0.068-0.19-0.136-0.38-0.204-0.569c-1.057,0.056-2.114,0.113-3.344,0.178C54.954,44.057,54.87,43.664,54.708,43.307z   M40.933,50.047c0.024-0.471,0.02-0.946,0.076-1.414c0.249-2.044,1.679-2.716,3.395-1.607c1.616,1.044,2.484,4.397,1.576,6.088  c-0.968,1.804-3.217,1.945-4.272,0.145c-0.541-0.923-0.665-2.091-0.978-3.149C40.798,50.089,40.865,50.068,40.933,50.047z   M43.634,53.223c1.655-1.245,1.3-4.335-0.643-5.765C42.162,49.516,42.59,51.385,43.634,53.223z M43.755,36.321  c-0.889,0.121-1.779,0.242-2.755,0.375c-0.272-0.598-0.598-1.312-0.899-1.973c1.119-0.698,2.193-1.368,3.267-2.039  c-0.065-0.113-0.13-0.226-0.195-0.338c-1.95-0.287-3.076,1.34-4.597,2.027c0.15,0.602,0.24,1.132,0.414,1.632  c0.451,1.293,0.858,2.611,1.434,3.848c0.642,1.379,1.81,1.632,3.035,0.82c0.423-0.281,0.896-0.497,1.283-0.817  c0.388-0.321,0.699-0.736,1.128-1.201c-1.466-0.553-2.443,0.154-3.44,0.644c-0.551-0.504-0.435-0.818,0.133-1.202  c0.517-0.349,0.919-0.868,1.372-1.312C43.875,36.63,43.815,36.475,43.755,36.321z M29.357,37.44c0.515,1.089,0.98,2.151,1.512,3.178  c0.629,1.216,1.282,2.424,2.005,3.585c0.167,0.269,0.663,0.333,1.007,0.491c0.035-0.36,0.191-0.763,0.082-1.073  c-0.309-0.877-0.727-1.715-1.072-2.502c0.852-0.596,1.642-1.148,2.432-1.701c-0.065-0.148-0.129-0.296-0.194-0.444  c-1.04,0.137-2.08,0.274-3.242,0.427c-0.235-0.407-0.537-0.93-0.847-1.466c1.414-0.925,2.757-1.803,4.207-2.751  C33.989,34.461,30.377,36.035,29.357,37.44z M45.421,45.437c1,0.965,1.757-0.065,2.577-0.214c0.573,1.461,1.053,2.902,1.706,4.259  c0.325,0.676,0.925,1.247,1.494,1.763c0.168,0.153,0.725,0.054,0.968-0.12c0.143-0.102,0.103-0.61,0.001-0.881  c-0.766-2.019-1.568-4.024-2.349-6.007c0.309-0.286,0.592-0.549,1.118-1.036C48.69,43.51,46.768,43.73,45.421,45.437z   M46.465,32.817c-0.172-0.332-0.712-0.473-1.083-0.702c-0.095,0.415-0.387,0.912-0.253,1.231c0.639,1.52,1.352,3.014,2.134,4.466  c0.231,0.429,0.795,1.003,1.165,0.974c1.334-0.104,2.385-0.817,3.105-1.932c-0.041-0.111-0.083-0.223-0.124-0.334  c-0.99,0.211-1.979,0.422-2.923,0.623C47.834,35.721,47.204,34.241,46.465,32.817z M36.074,35.95  c-0.072,0.322-0.272,0.681-0.193,0.959c0.288,1.007,0.587,2.027,1.041,2.966c0.448,0.927,1.045,1.795,1.677,2.611  c0.168,0.217,0.704,0.151,1.07,0.214c0.02-0.369,0.17-0.795,0.037-1.097c-0.712-1.62-1.469-3.221-2.271-4.798  c-0.189-0.371-0.613-0.622-0.929-0.928C36.362,35.902,36.218,35.926,36.074,35.95z"/></svg>