<svg xmlns="http://www.w3.org/2000/svg" xmlns:xlink="http://www.w3.org/1999/xlink" version="1.1" x="0px" y="0px" viewBox="0 0 100 125" enable-background="new 0 0 100 100" xml:space="preserve"><path d="M43.303,95c-0.396,0-0.793,0-1.189,0c-0.514-0.491-1.114-0.922-1.516-1.493  c-0.334-0.475-0.659-0.579-1.146-0.437c-0.438,0.128-0.869,0.284-1.308,0.41c-0.886,0.254-1.741,0.299-2.382-0.412  c-0.498,0.222-0.936,0.439-1.39,0.614c-0.887,0.342-1.5-0.051-1.809-0.85c-0.817-2.115-1.577-4.253-2.362-6.381  c-1.307-3.548-2.589-7.105-3.932-10.639c-1.203-3.163-2.525-6.281-3.705-9.452c-2.906-7.814-5.76-15.647-8.638-23.471  c-0.283-0.77-0.597-1.528-0.889-2.295c-0.955-2.515-1.907-5.031-2.858-7.548c-0.986-2.609-1.97-5.218-2.955-7.828  c0-0.066,0-0.132,0-0.198c0.613-0.528,1.226-1.057,1.793-1.545c-0.247-0.575-0.624-1.239-0.822-1.953  c-0.529-1.904,0.224-3.611,0.953-5.307c0.759-1.766,1.987-3.136,3.774-3.819c1.627-0.622,3.269-0.382,4.711,0.626  c1.744-1.69,3.667-2.372,5.945-1.455c0.123-0.156,0.217-0.249,0.281-0.36c1.589-2.733,3.653-3.344,6.405-1.918  c0.187,0.097,0.521,0.106,0.694,0.002c2.205-1.32,4.432-1.666,6.693-0.182c1.124-1.83,2.544-1.96,5.309-0.571  c1.853-1.364,3.783-2.108,6.071-1.207c0.233,0.092,0.611-0.033,0.864-0.167c1.625-0.859,3.302-1.056,5.006-0.339  c0.517,0.218,0.832,0.215,1.288-0.12c1.786-1.31,3.668-1.636,5.418-0.477C62.529,5.779,63.323,5.389,64.118,5  c0.198,0,0.396,0,0.595,0c0.147,0.063,0.29,0.165,0.442,0.183c2.806,0.332,4.032,2.129,3.073,4.769  c-0.331,0.91-0.226,1.599,0.085,2.437c2.456,6.621,4.876,13.254,7.296,19.888c2.184,5.987,4.353,11.979,6.532,17.968  c0.142,0.391,0.315,0.771,0.365,0.893c0.81,0.163,1.388,0.28,1.966,0.397c0.01,0.107,0.019,0.215,0.029,0.322  c-0.442,0.285-0.885,0.57-1.36,0.877c1.065,2.588,2.102,5.15,3.175,7.696c0.42,0.995,0.634,2.152,1.517,2.445  c0.143,0.886,0.127,1.554,0.362,2.116c1.169,2.794,2.395,5.563,3.624,8.332c0.237,0.533,0.573,1.022,0.957,1.694  c-0.229,0.752-0.851,1.395-1.812,1.745c-1.841,0.672-3.68,1.349-5.508,2.056c-5.677,2.196-11.322,4.479-17.03,6.591  c-5.142,1.903-10.371,3.567-15.521,5.447c-3.188,1.164-6.302,2.532-9.444,3.821C43.378,94.712,43.354,94.889,43.303,95z   M28.28,17.936c1.435,3.494,2.884,6.979,4.286,10.483c0.21,0.526,0.47,0.64,0.959,0.526c4.408-1.023,8.806-2.092,13.229-3.049  c5.544-1.199,11.108-2.308,16.664-3.451c1.686-0.347,3.375-0.679,5.143-1.035c-0.81-2.38-1.584-4.655-2.379-6.991  c-1.136,1.368-1.777,1.756-2.943,0.457c0.253-0.623,0.514-1.264,0.786-1.934c-1.126-0.082-1.853,0.232-2.257,1.261  c-0.234,0.595-0.642,1.15-1.072,1.634c-0.983,1.108-1.808,1.111-2.961,0.047c0.54-0.708,1.085-1.422,1.6-2.096  c-1.81-0.572-2.646,0.347-3.147,1.846c-0.121,0.361-0.351,0.735-0.637,0.98c-0.555,0.477-1.199,0.668-1.852,0.125  c-0.213-0.177-0.417-0.367-0.638-0.563c0.235-0.591,0.473-1.19,0.75-1.888c-1.617,0.192-3.139,0.04-3.975,1.906  c-0.686,1.53-1.628,1.56-2.979,0.458c0.164-0.418,0.334-0.851,0.547-1.392c-0.816,0.15-1.517,0.383-2.217,0.382  c-0.811-0.001-1.103,0.438-1.43,1.055c-0.809,1.526-1.423,1.629-2.821,0.572c0.062-0.292,0.125-0.589,0.207-0.975  c-1.133,0.181-2.198,0.133-2.662,1.455c-0.23,0.656-1.202,0.785-1.663,0.227c-0.703-0.851-1.46-1.072-2.462-0.699  c-0.175,0.065-0.394,0.027-0.591,0.013c-0.551-0.037-0.897,0.106-1.092,0.721c-0.182,0.575-0.501,1.192-1.329,1.063  c-0.768-0.119-1.201-0.598-1.426-1.288C29.367,17.835,28.818,17.886,28.28,17.936z M38.381,44.125  c4.819-1.265,9.587-2.473,14.329-3.773c6.279-1.722,12.534-3.532,18.813-5.255c0.546-0.15,1.194,0.07,1.794,0.118  c0.031,0.139,0.063,0.279,0.094,0.418c-0.35,0.232-0.674,0.531-1.056,0.68c-0.575,0.223-1.191,0.339-1.788,0.503  c-8.845,2.424-17.692,4.841-26.534,7.28c-1.721,0.475-3.42,1.034-5.173,1.567c0.562,1.728,1.085,3.338,1.614,4.967  c11.817-3.154,23.474-6.266,35.22-9.401c-1.101-3.151-2.158-6.179-3.23-9.248c-11.84,2.824-23.594,5.627-35.445,8.453  C37.53,41.816,37.959,42.981,38.381,44.125z M72.063,30.778c-1.026-2.79-1.973-5.368-2.959-8.049  c-12.006,2.561-23.858,5.089-35.805,7.637c0.574,1.517,1.071,2.831,1.551,4.101c0.119,0.024,0.154,0.042,0.183,0.035  c11.124-2.631,22.25-5.255,33.367-7.917c0.75-0.18,1.322-0.167,1.98,0.591c-0.408,0.229-0.745,0.523-1.13,0.617  c-4.531,1.107-9.069,2.19-13.608,3.266c-4.668,1.106-9.34,2.191-14.008,3.296c-2.047,0.485-4.088,0.996-6.173,1.504  c0.318,1.007,0.61,1.909,0.886,2.816c0.165,0.541,0.385,0.637,1.001,0.48c6.688-1.709,13.384-3.391,20.094-5.013  C62.252,32.978,67.086,31.919,72.063,30.778z M53.561,87.949c12.019-4.52,23.96-9.01,35.984-13.532  c-0.935-1.983-1.824-3.868-2.75-5.832c-11.653,4.878-23.448,9.248-35.587,12.779C52.039,83.691,52.788,85.784,53.561,87.949z   M44.763,63.195c11.676-3.711,23.313-7.409,35.028-11.132c-0.672-1.708-1.371-3.486-2.038-5.181  C66.101,50.561,54.579,54.2,42.93,57.879C43.554,59.688,44.16,61.445,44.763,63.195z M41.326,89.899  c-9.184-22.135-16.582-44.875-25.866-66.897c-0.687,0.317-1.3,0.599-1.977,0.911c0.157,0.424,0.281,0.793,0.427,1.153  c1.938,4.78,3.915,9.544,5.805,14.343c0.986,2.505,1.817,5.071,2.723,7.608c1.338,3.743,2.677,7.487,4.023,11.227  c1.347,3.742,2.674,7.491,4.066,11.216c1.242,3.325,2.567,6.619,3.845,9.93c1.419,3.675,2.827,7.355,4.216,10.97  C39.46,90.214,40.256,90.079,41.326,89.899z M46.77,68.762c11.822-3.743,23.538-7.452,35.35-11.192  c-0.636-1.534-1.179-2.846-1.786-4.31c-11.738,3.728-23.374,7.423-35.106,11.149C45.761,65.912,46.238,67.26,46.77,68.762z   M50.741,80.286c12.275-3.572,23.933-8.273,35.586-13.047c-0.403-0.92-0.766-1.75-1.094-2.5c-12.133,3.516-24.157,7-36.278,10.512  C49.547,76.92,50.147,78.613,50.741,80.286z M47.339,70.315c0.318,1.011,0.618,1.985,0.93,2.956  c0.143,0.444,0.364,0.586,0.885,0.421c1.209-0.383,2.462-0.623,3.677-0.988c9.225-2.771,18.444-5.557,27.665-8.34  c1.355-0.409,2.707-0.827,4.159-1.27c-0.67-1.442-1.275-2.744-1.832-3.944C70.948,62.887,59.159,66.596,47.339,70.315z   M76.193,42.585c-11.83,3.151-23.547,6.272-35.239,9.386c0.423,1.35,0.825,2.568,1.182,3.799c0.191,0.658,0.421,0.872,1.185,0.626  c8.28-2.663,16.581-5.263,24.866-7.911c3.003-0.96,5.98-2.002,9.028-3.027C76.85,44.434,76.513,43.487,76.193,42.585z   M36.525,90.371c-0.395-1.008-0.79-1.944-1.131-2.898c-1.229-3.433-2.399-6.888-3.669-10.306c-1.557-4.188-3.257-8.323-4.778-12.523  c-2.003-5.528-3.823-11.123-5.85-16.643c-2.504-6.818-5.134-13.59-7.727-20.375c-0.345-0.903-0.791-1.766-1.212-2.694  c-0.566,0.291-1.017,0.523-1.479,0.762c7.984,21.684,16.602,43.044,23.8,64.898C35.18,90.516,35.792,90.45,36.525,90.371z   M17.07,21.118c1.492,3.617,2.981,7.224,4.404,10.675c3.226-0.787,6.37-1.553,9.587-2.338c-1.315-3.794-2.621-7.559-3.926-11.323  c-0.339,0.203-0.432,0.413-0.512,0.628c-0.404,1.085-1.302,1.328-2.069,0.359c-0.315-0.398-0.537-0.474-0.909-0.434  c-0.67,0.072-1.335,0.188-2.002,0.285c0.077,0.066,0.154,0.132,0.232,0.199c-0.337,0.689-0.568,1.481-1.075,2.005  c-0.152,0.157-1.077-0.434-1.821-0.758C18.483,20.599,17.723,20.879,17.07,21.118z M52.476,88.458  c-0.874-2.185-1.733-4.335-2.626-6.567c-2.753,0.949-5.518,1.901-8.317,2.866c0.937,2.541,1.841,4.994,2.735,7.421  C47.079,90.904,49.801,89.67,52.476,88.458z M47.577,75.528c-2.921,0.805-5.774,1.591-8.702,2.399  c0.764,1.974,1.542,3.983,2.353,6.079c2.787-1.06,5.49-2.088,8.232-3.131C48.829,79.083,48.221,77.355,47.577,75.528z   M41.325,58.313c-2.969,0.946-5.848,1.863-8.836,2.815c0.703,1.86,1.367,3.615,2.062,5.451c3.009-0.918,5.865-1.79,8.747-2.669  C42.609,61.956,41.977,60.164,41.325,58.313z M29.875,54.125c3.094-1.002,6.078-1.968,9.122-2.954  c-0.575-1.828-1.092-3.472-1.6-5.085c-3.235,0.9-6.298,1.752-9.427,2.622C28.61,50.531,29.22,52.263,29.875,54.125z M30.209,54.907  c0.588,1.578,1.165,3.187,1.81,4.769c0.075,0.185,0.578,0.37,0.794,0.296c1.818-0.624,3.612-1.32,5.421-1.971  c0.884-0.318,1.785-0.585,2.703-0.883c-0.522-1.573-1.014-3.056-1.484-4.477C36.341,53.405,33.306,54.149,30.209,54.907z   M33.319,34.922c-0.51-1.218-1-2.292-1.406-3.396c-0.196-0.532-0.47-0.614-0.969-0.5c-1.173,0.27-2.361,0.476-3.533,0.747  c-1.794,0.416-3.58,0.866-5.476,1.327c0.511,1.295,0.962,2.351,1.34,3.433c0.217,0.621,0.591,0.679,1.138,0.544  c1.357-0.336,2.721-0.644,4.079-0.973C30.065,35.724,31.635,35.335,33.319,34.922z M27.601,47.688c3.18-1.05,6.243-2.06,9.314-3.074  c-0.435-1.252-0.831-2.395-1.228-3.54c-3.315,0.615-6.562,1.217-9.862,1.829C26.422,44.51,26.991,46.045,27.601,47.688z   M45.211,69.036c-0.483-1.28-0.998-2.644-1.462-3.872c-2.796,0.724-5.411,1.425-8.042,2.063c-0.621,0.15-0.876,0.286-0.591,0.966  c0.533,1.272,0.995,2.575,1.508,3.921C39.506,71.08,42.346,70.062,45.211,69.036z M35.243,39.909  c-0.446-1.164-0.799-2.19-1.247-3.171c-0.097-0.213-0.571-0.422-0.819-0.373c-3.026,0.602-6.042,1.252-9.146,1.908  c0.442,1.196,0.891,2.414,1.39,3.765C28.698,41.328,31.926,40.628,35.243,39.909z M47.158,74.25  c-0.39-1.032-0.707-2.003-1.136-2.923c-0.113-0.243-0.618-0.519-0.858-0.455c-2.675,0.708-5.333,1.479-8.152,2.278  c0.543,1.391,1.059,2.709,1.558,3.986c1.5-0.552,2.864-1.088,4.251-1.554C44.208,75.117,45.617,74.72,47.158,74.25z M13.557,20.403  c0.937-2.29,3.097-2.054,5.107-2.483c-0.683-0.987-1.225-1.937-1.93-2.744c-0.859-0.983-2.117-1.129-3.208-0.423  c-1.435,0.929-2.346,2.263-2.736,3.942c-0.291,1.254-0.257,2.456,0.412,3.478c1.014-0.464,1.967-0.901,2.96-1.356  C13.976,20.69,13.779,20.555,13.557,20.403z M24.972,12.371c0.517,1.076,0.968,2.056,1.463,3.013c0.11,0.213,0.388,0.506,0.564,0.49  c1.027-0.094,2.047-0.269,3.07-0.417c-0.012-1.614-0.489-2.944-1.315-4.182c-0.393-0.59-0.811-0.707-1.397-0.35  C26.544,11.42,25.729,11.912,24.972,12.371z M36.919,14.84c-0.203-1.207-0.328-2.365-0.609-3.483  c-0.231-0.919-0.997-1.21-1.858-0.954c-0.77,0.229-1.494,0.613-2.145,0.888c0.342,1.354,0.651,2.575,0.98,3.88  C34.406,15.069,35.534,14.966,36.919,14.84z M45.089,13.547c0.916-0.132,1.946-0.268,2.968-0.444  c0.144-0.025,0.377-0.256,0.364-0.368c-0.127-1.097-0.255-2.198-0.493-3.274c-0.048-0.218-0.567-0.483-0.857-0.469  c-0.987,0.047-1.968,0.21-2.765,0.306C44.574,10.753,44.814,12.056,45.089,13.547z M24.169,16.232  c-0.493-1.202-0.492-2.64-1.897-3.098c-1.266-0.413-2.123,0.439-2.911,1.235c0.451,0.663,0.826,1.288,1.282,1.847  c0.19,0.233,0.568,0.473,0.838,0.45C22.349,16.592,23.207,16.397,24.169,16.232z M60.219,11.694c0.047-0.96,0.152-1.838,0.104-2.707  c-0.022-0.411-0.381-1.165-0.512-1.148c-0.705,0.087-1.422,0.295-2.055,0.617c-0.23,0.118-0.331,0.667-0.332,1.021  c-0.003,0.796,0.092,1.593,0.155,2.506C58.364,11.897,59.197,11.806,60.219,11.694z M41.857,14.075  c0.398-3.416-0.305-4.8-3.003-4.244c0.314,1.483,0.629,2.966,0.959,4.523C40.403,14.274,41.111,14.177,41.857,14.075z M51.108,8.95  c0.142,1.259,0.271,2.413,0.407,3.615c0.795-0.082,1.612-0.145,2.42-0.267c0.172-0.026,0.458-0.284,0.443-0.406  c-0.108-0.913-0.154-1.872-0.501-2.697c-0.112-0.265-1.069-0.191-1.642-0.239C51.849,8.924,51.458,8.95,51.108,8.95z M63.038,11.256  c1.059-0.166,2.293-0.022,2.495-1.635c0.106-0.846,0.339-1.782-0.509-2.197c-0.5-0.245-1.291,0.104-1.986,0.19  C63.038,8.961,63.038,10.069,63.038,11.256z"/></svg>