<svg xmlns="http://www.w3.org/2000/svg" xmlns:xlink="http://www.w3.org/1999/xlink" version="1.1" x="0px" y="0px" viewBox="0 0 100 125" enable-background="new 0 0 100 100" xml:space="preserve"><path d="M11.945,58.023c0.206-1.268,0.447-2.531,0.607-3.804c0.184-1.461,0.648-2.582,1.998-3.52  c4.581-3.183,9.284-6.134,14.306-8.571c0.7-0.34,1.346-0.788,2.027-1.192c-0.858-1.066-2.039-1.877-2.284-3.391  c-2.342-0.158-2.916-2.264-3.904-3.988c0.333-0.468,0.682-0.958,1.049-1.473c-2.061-0.324-3.559-3.472-2.819-5.332  c-1.251-0.359-2.046-1.256-2.574-2.381c-0.508-1.082-1.345-2.171-0.222-3.394c-2.104-0.326-3.832-1.841-4.184-3.864  c-0.094-0.542,0.435-1.192,0.688-1.817c-1.627-1.056-1.786-4.151,0.264-5.321c1.884-1.074,3.637-2.375,5.467-3.546  c2.269-1.453,4.798-1.561,7.303-1.343c0.474,0.864,0.933,1.703,1.396,2.539c0.34,0.615,0.7,1.189,1.432,1.448  c0.235,0.083,0.449,0.397,0.552,0.654c0.418,1.043,0.824,2.095,1.162,3.166c0.133,0.421,0.072,0.903,0.109,1.509  c0.989,1.741,2.094,3.669,3.172,5.613c0.129,0.233,0.116,0.548,0.156,0.827c0.036,0.249-0.032,0.652,0.097,0.728  c1.155,0.672,1.019,2.092,1.778,2.997c0.228,0.272,0.133,0.813,0.195,1.23c0.027,0.182,0.015,0.466,0.121,0.527  c1.165,0.66,1.358,1.912,1.846,2.978c0.352,0.767,0.643,1.532,1.575,1.832c0.599,0.193,0.852,0.695,1.071,1.339  c0.907,2.672,0.873,2.801,3.607,1.691c4.82-1.955,9.577-4.064,14.367-6.091c1.036-0.438,2.786-0.116,3.319,0.808  c1.991,3.452,3.994,6.908,5.744,10.485c0.899,1.836-0.087,5.163-1.609,6.783c0.352,0.526,0.697,1.101,1.099,1.633  c2.969,3.924,5.893,7.885,8.96,11.731c1.009,1.265,2.406,2.217,3.615,3.324c0.479,0.438,0.967,0.877,1.378,1.375  c0.264,0.319,0.396,0.747,0.587,1.127c-0.397,0.08-0.794,0.159-1.185,0.238c0.306,0.445,0.682,0.992,1.065,1.549  c-3.772-0.072-7.032-1.216-9.703-3.831c1.152,0.72,2.305,1.441,3.712,2.32c-0.071-0.545-0.173-0.846-0.106-0.891  c0.716-0.474,0.183-0.713-0.152-1.021c-0.8-0.736-1.586-1.487-2.312-2.32c0.947,0.488,1.893,0.975,2.84,1.463  c0.075-0.101,0.15-0.202,0.225-0.303c-0.39-0.498-0.738-1.036-1.175-1.488c-3.704-3.836-6.598-8.264-9.391-12.769  c-0.68-1.097-1.358-2.203-2.136-3.23c-0.294-0.388-0.868-0.563-1.315-0.835c-0.121,0.129-0.242,0.259-0.363,0.388  c2.704,4.228,5.409,8.456,8.113,12.685c-0.106,0.069-0.212,0.138-0.317,0.207c-3.773-3.598-6.389-8.032-8.921-12.599  c-0.448,0.146-0.925,0.301-1.478,0.482c0.53,0.942,1.043,1.855,1.557,2.768c-0.118,0.076-0.236,0.152-0.355,0.228  c-0.469-0.635-0.977-1.245-1.395-1.912c-0.369-0.589-0.701-0.817-1.471-0.589c-4.591,1.361-9.048,3.039-13.403,5.045  c-4.346,2.001-8.814,3.734-13.198,5.654c-2.399,1.05-4.792,2.141-7.076,3.414c-1.318,0.735-2.412,1.871-3.449,2.701  c3.022,6.252,7.266,11.551,11.168,17.078c0.482,0.682,1.047,1.45,1.76,1.796c2.062,1.003,3.636,2.628,5.446,3.945  c0.239,0.174,0.518,0.293,0.779,0.437c0.343,0.275,0.686,0.55,1.028,0.825c0.621,0.558,1.242,1.116,2.066,1.856  c-0.687,0.225-1.142,0.373-1.754,0.573c1.338,0.334,2.586,0.647,3.936,0.984c-0.304,0.258-0.573,0.487-0.906,0.769  c0.481,0.158,0.927,0.305,1.373,0.452c-1.372,0.698-2.821,0.663-4.209,0.401c-1.282-0.242-2.529-0.738-3.747-1.232  c-1.643-0.667-3.242-1.44-5.065-2.26c2.677,3.259,5.818,5.189,9.947,5.39c-1.182,1.336-2.616,1.419-4.068,1.197  c-2.227-0.342-4.013-1.611-5.684-3.014c-4.049-3.399-7.244-7.5-9.844-12.089c-1.678-2.961-3.4-5.897-5.148-8.818  c-0.17-0.284-0.668-0.361-0.994-0.567c-0.596-0.377-1.356-0.653-1.735-1.191c-2.081-2.954-4.067-5.976-6.089-8.972  c-0.093-0.137-0.214-0.256-0.321-0.383C11.945,59.255,11.945,58.639,11.945,58.023z M64.016,30.425  c-5.538,2.145-10.885,4.386-16.36,6.252c-2.14,0.729-4.397,1.075-6.394,2.265c-1.075,0.64-2.255,1.111-3.402,1.625  c-2.183,0.978-4.377,1.931-6.314,2.784c1.901,3.302,3.76,6.533,5.67,9.85c0.037-0.015,0.314-0.123,0.588-0.238  c4.05-1.698,8.082-3.438,12.152-5.085c4.849-1.961,9.726-3.85,14.601-5.746c0.784-0.305,1.609-0.518,2.431-0.706  c0.976-0.223,1.716,0.206,1.755,1.159c0.402-0.991,0.703-1.694,0.201-2.627C67.235,36.78,65.622,33.55,64.016,30.425z   M15.577,52.863c0.406,0.76,0.867,1.519,1.23,2.323c0.725,1.604,1.607,3.117,1.193,5.074c-0.284,1.341-0.054,2.79-0.054,4.191  c0.273-0.154,0.319-0.328,0.377-0.499c0.445-1.314,0.832-2.654,1.378-3.925c0.15-0.348,0.777-0.491,1.185-0.728  c0.181,0.364,0.362,0.727,0.6,1.205c4.07-1.935,8.3-3.945,12.458-5.922c-1.865-3.226-3.684-6.373-5.543-9.587  C24.042,47.67,19.82,50.259,15.577,52.863z M28.684,8.691c-3.434,2.214-7.3,3.804-9.815,7.127c0.634,1.303,1.254,2.577,1.937,3.982  c2.825-3.506,6.221-5.666,10.843-5.885c-1.178-1.534-0.856-3.597-2.115-4.33c-0.619-1.224-1.011-2.071-1.487-2.868  C27.973,6.593,27.472,6.6,27.249,6.71c-1.46,0.724-2.948,1.414-4.332,2.269c-1.694,1.045-3.295,2.241-4.938,3.373  c0.362,0.634,0.591,1.035,0.844,1.478C21.621,11.085,24.737,9.092,28.684,8.691z M37.442,26.102  c-2.59,1.179-5.334,2.205-7.606,4.121c-0.689,0.581-1.398,1.143-2.053,1.76c-0.137,0.129-0.167,0.498-0.093,0.699  c0.258,0.702,0.646,1.359,0.87,2.069c0.347,1.095,1.477,0.983,2.187,1.509c0.064,0.048,0.361-0.139,0.492-0.273  c2.388-2.457,5.155-4.273,8.721-5.04C39.106,29.305,38.306,27.766,37.442,26.102z M34.727,20.988  c-3.519,1.247-6.704,2.951-9.385,5.497c-0.269,0.256-0.409,0.886-0.301,1.251c0.247,0.839,0.695,1.618,1.042,2.429  c0.288,0.672,0.537,0.811,1.178,0.233c2.447-2.208,5.227-3.862,8.443-4.709c0.501-0.132,1.016-0.214,1.664-0.348  c-0.89-1.332-0.698-3.139-2.469-3.714C34.798,21.594,34.795,21.256,34.727,20.988z M31.556,14.8  c-1.811,0.902-3.463,1.621-5.007,2.523c-1.644,0.961-1.521,0.519-0.749,2.372c0.208,0.5,0.498,0.967,0.699,1.47  c0.186,0.467,0.303,0.961,0.48,1.538c-1.385-0.21-1.407-0.235-3.227-3.439c-0.43,0.726,0.601,3.706,1.687,4.743  c2.664-2.208,5.673-3.631,9.484-3.417C33.735,18.545,32.702,16.769,31.556,14.8z M32.079,40.333  c3.714-1.586,7.325-3.128,10.974-4.687c-0.955-1.286-1.16-3.101-3.033-3.875c-0.591,0.222-1.392,0.524-2.193,0.825  c0.014,0.067,0.029,0.135,0.043,0.202c0.854,0,1.708,0,2.562,0c-3.554,1.246-6.831,2.867-9.5,5.617  C31.329,39.08,31.694,39.69,32.079,40.333z M36.129,53.66c-0.476-0.768-0.887-1.431-1.298-2.093  c-1.452-2.338-2.897-4.681-4.372-7.005c-0.12-0.188-0.444-0.246-0.674-0.365c0.037,0.27-0.014,0.602,0.125,0.801  c1.999,2.882,3.818,5.854,4.843,9.297C35.183,54.096,35.601,53.904,36.129,53.66z M16.282,61.962  c0.265-1.606,0.508-3.086,0.769-4.665c-0.323-0.234-0.835-0.606-1.545-1.12C16.377,58.122,15.039,60.154,16.282,61.962z   M22.874,23.047c-0.237-0.991-0.414-1.729-0.603-2.519C21.583,21.178,21.632,21.384,22.874,23.047z M66.781,76.515  c0.299,0.041,0.598,0.087,0.898,0.122c1.921,0.227,3.838,0.569,5.764,0.633c1.101,0.036,2.322,0.009,3.389-0.804  c-0.55-0.174-0.982-0.311-1.415-0.449c3.993,0.56,6.01,0.341,6.799-0.98c-1.342-0.319-2.628-0.625-3.532-0.84  c0.877-0.292,2.074-0.704,3.284-1.076c0.179-0.055,0.414,0.088,0.626,0.122c1.225,0.197,2.446,0.495,3.678,0.543  c0.748,0.029,1.49-0.359,1.783-1.178c-2.419,0-4.796,0-7.326,0c1.231-0.334,2.271-0.616,3.579-0.971  c-0.79-0.497-1.319-0.83-2.072-1.304c0.579,0.07,0.9,0.108,1.344,0.162c-0.388-0.434-0.677-0.758-1.169-1.31  c1.869,0.657,3.49,1.216,5.137,0.222c-1.413-0.607-2.866-1.022-4.268-1.57c-1.138-0.445-2.212-0.999-3.483-0.506  c-0.232,0.09-0.539,0.011-0.807-0.023c-1.973-0.247-3.501-1.361-5.004-2.544c-0.226-0.178-0.6-0.167-0.906-0.243  c0.147,0.258,0.231,0.612,0.452,0.76c1.293,0.863,2.624,1.67,3.931,2.513c0.573,0.369,1.119,0.78,1.677,1.171  c-0.053,0.131-0.105,0.263-0.158,0.394c-0.764-0.153-1.525-0.326-2.294-0.45c-0.379-0.061-0.904-0.2-1.136-0.017  c-0.918,0.724-1.783,0.405-2.681,0.055c-0.212-0.083-0.429-0.153-0.734-0.261c0.153,0.237,0.254,0.393,0.382,0.592  c-0.437,0.044-0.816,0.081-1.219,0.121c0.133,0.188,0.231,0.326,0.396,0.558c-1.737-0.691-1.79-0.675-2.641,0.788  c0.913,0.58,1.829,1.162,2.746,1.744c-1.938-0.648-3.765-1.472-5.314-2.844c-0.799-0.708-1.711-1.284-2.992-0.882  c2.069,1.277,4.138,2.555,6.428,3.969c-2.432,0.311-4.267-0.556-5.892-1.69c-1.421-0.992-2.94-1.504-4.633-1.872  c4.422,3.911,9.726,5.63,15.385,6.557c-0.238,0.137-0.443,0.191-0.627,0.152c-2.442-0.521-4.903-0.975-7.314-1.613  c-1.791-0.474-3.513-1.209-5.276-1.795c-1.04-0.346-1.203-0.265-1.613,0.637c0.816,0.515,1.626,1.072,2.48,1.551  c0.81,0.454,1.666,0.826,2.502,1.233C65.552,76.099,66.166,76.307,66.781,76.515z M64.937,75.892  c0.615,0.208,1.23,0.415,1.845,0.623c1.646,0.721,3.293,1.441,4.939,2.162c-0.027,0.173-0.054,0.346-0.081,0.519  c-0.951,0.068-1.903,0.116-2.851,0.215c-0.343,0.036-0.777,0.093-0.993,0.313c-2.619,2.673-5.682,3.002-9.046,1.766  c-1.003-0.369-1.978-0.815-2.966-1.227c1.934,2.064,2.27,3.28,8.718,2.993c-0.092,0.858-0.729,1.215-1.395,1.439  c-1.409,0.474-2.851,0.593-4.325,0.242c-0.398-0.095-0.865-0.104-1.257,0.005c-3.078,0.85-5.993,0.372-8.772-1.071  c-0.511-0.265-0.88-0.802-1.315-1.214c0.057-0.091,0.114-0.181,0.172-0.272c0.636,0.028,1.271,0.056,1.907,0.084  c0.052-0.092,0.104-0.184,0.156-0.276c-0.862-0.762-1.724-1.523-2.719-2.403c1.121,0.468,2.075,0.866,3.028,1.263  c0.056-0.092,0.112-0.183,0.167-0.275c-0.525-0.415-1.05-0.83-1.576-1.245c0.093-0.121,0.185-0.242,0.278-0.363  c0.976,0.449,1.952,0.898,2.965,1.363c0.249-0.866-0.953-0.988-1.118-1.726c0.655,0.179,1.296,0.354,1.742,0.476  c0.3-0.261,0.5-0.434,0.914-0.794c-1.08-0.891-2.271-1.874-3.462-2.857c0.148-0.175,0.296-0.351,0.444-0.526  c1.059,0.666,2.174,1.257,3.163,2.013c1.953,1.492,3.696,2.253,5.54,2.199c-1.829-1.288-3.601-2.536-5.374-3.784  c0.043-0.084,0.085-0.169,0.128-0.253c2.26,0.655,4.52,1.31,6.792,1.969c-1.09-0.685-2.252-1.274-3.242-2.077  c-0.992-0.804-1.811-1.821-2.705-2.744c0.084-0.12,0.169-0.241,0.253-0.361c2.283,1.268,4.566,2.535,6.849,3.803  c0.036-0.048,0.071-0.096,0.107-0.144c-0.367-0.387-0.733-0.774-1.19-1.256C62.164,74.971,63.55,75.431,64.937,75.892z   M60.849,78.419c1.467,0.235,2.692,0.431,3.916,0.627c0.02-0.131,0.039-0.261,0.059-0.392  C63.546,78.826,62.519,77.272,60.849,78.419z M48.926,88.495c3.143,0.801,6.192,0.461,9.004-1.28  c0.196-0.122,0.332-0.342,0.618-0.646c-1.469,0-2.731,0.113-3.965-0.022c-3.034-0.332-5.818-1.446-8.403-3.043  c-1.183-0.731-2.302-1.562-3.474-2.312c-1.333-0.853-2.69-1.667-4.04-2.494c-0.223-0.137-0.462-0.249-0.693-0.373  c-0.07,0.101-0.139,0.202-0.209,0.303c2.833,2.346,5.666,4.693,8.689,7.196c-2.593-0.622-4.572-2.008-6.697-3.067  c1.133,1.065,2.267,2.129,3.4,3.194c0.343,0.275,0.686,0.55,1.028,0.825C45.764,87.358,47.305,88.082,48.926,88.495z M40.79,76.388  c-0.133,0.933,2.846,3.702,5.344,4.889C44.245,79.549,42.521,77.971,40.79,76.388z"/></svg>