<svg xmlns="http://www.w3.org/2000/svg" xmlns:xlink="http://www.w3.org/1999/xlink" version="1.1" x="0px" y="0px" viewBox="0 0 100 125" enable-background="new 0 0 100 100" xml:space="preserve"><path d="M23.257,9.444c1.409-0.565,1.798-2.159,2.935-2.945c0.791-0.547,1.806-0.771,2.727-1.123  c0.151-0.058,0.35,0.008,0.498-0.053c1.404-0.577,1.868-0.452,2.588,0.966c1.577,3.105,3.1,6.238,4.69,9.447  c0.919-0.71,1.47-0.318,1.96,0.56c1.879,3.364,3.808,6.699,5.701,10.055c1.914,3.392,3.899,6.748,5.687,10.206  c2.72,5.261,5.316,10.586,7.927,15.903c1.05,2.137,1.861,4.402,3.026,6.471c2.334,4.148,4.018,8.615,6.408,12.732  c0.975,1.681,2.017,3.366,2.677,5.177c0.814,2.234,1.319,4.589,1.848,6.916c0.425,1.87,0.645,3.785,1.047,5.661  c0.121,0.564,0.558,1.056,0.826,1.594c0.316,0.633,0.994,1.183,0.466,2.031c-0.064,0.102,0.055,0.39,0.17,0.519  c0.679,0.758,0.202,1.123-0.459,1.44c-0.136,0-0.272,0-0.407,0c-1.556-1.432-2.969-2.978-3.948-4.878  c-0.119-0.23-0.264-0.472-0.459-0.634c-2.155-1.799-4.377-3.524-6.46-5.403c-0.855-0.772-1.396-1.885-2.119-2.813  c-0.701-0.899-1.595-1.677-2.158-2.651c-3.027-5.232-6.087-10.45-8.922-15.787c-2.645-4.981-5.019-10.107-7.523-15.164  c-0.284-0.574-0.624-1.121-0.963-1.665c-0.091-0.145-0.288-0.339-0.417-0.326c-0.715,0.073-1.439-0.187-2.068-0.167  c-1.321,0.043-2.105-0.633-2.68-1.509c-1.421-2.166-2.83-4.36-3.995-6.668c-1.732-3.432-3.265-6.966-4.847-10.472  c-0.356-0.789-0.72-1.64-0.102-2.495c0.184-0.255,0.368-0.513,0.581-0.742c0.552-0.596,1.12-1.076,0.965-2.11  c-0.115-0.767,0.293-1.613,0.487-2.506c-2.164-2.28-3.505-5.32-5.063-8.224c-0.205-0.381-0.416-0.759-0.624-1.139  C23.257,9.58,23.257,9.512,23.257,9.444z M60.575,78.424c2.621,4.525,7.114,7.132,10.59,10.833  c-0.918-3.576-1.828-7.122-2.734-10.655c-0.707,0.419-1.419,0.841-2.13,1.263c-0.102-0.131-0.205-0.262-0.307-0.393  c0.721-0.754,1.441-1.508,2.131-2.229c-0.63-0.994-1.269-2.002-1.934-3.05C63.954,75.131,62.102,76.547,60.575,78.424z   M33.752,16.964c0.848,1.261,1.636,2.404,2.392,3.569c0.293,0.452,0.511,0.952,0.766,1.428c1.706,3.186,3.536,6.312,5.094,9.569  c3.4,7.108,6.747,14.238,10.649,21.092c0.304,0.534,0.569,0.896,1.277,0.434c-0.435-0.948-0.824-1.919-1.31-2.838  c-3.63-6.856-7.316-13.683-10.907-20.559c-1.859-3.558-3.576-7.191-5.324-10.807c-0.358-0.74-0.567-1.552-0.899-2.481  C34.989,16.542,34.308,16.774,33.752,16.964z M31.325,12.157c-3.359,2.5-2.517,3.051-1.079,5.381c1.314-0.73,2.623-1.456,3.93-2.182  c-0.376-0.54-0.825-1.133-1.218-1.761c-0.413-0.66-0.767-1.357-1.159-2.03c-0.098-0.168-0.211-0.376-0.37-0.451  c-1.351-0.638-3.138,0.568-3.187,2.22C29.03,12.334,29.984,11.865,31.325,12.157z M29.684,7.001  c-2.728,0.987-3.907,3.453-2.405,5.072c0.971-1.333,2.255-1.932,3.983-1.465C30.699,9.322,30.191,8.159,29.684,7.001z M66.28,73.426  c-0.85-0.038-1.563,0.135-1.989-0.138c-0.638-0.409-1.098-1.114-1.59-1.729c-0.382-0.477-0.698-1.008-1.075-1.563  c-0.522,0.341-0.889,0.581-1.052,0.688c0.875,1.212,1.689,2.342,2.552,3.538C63.994,74.003,65.023,73.743,66.28,73.426z   M37.162,39.087c0.069-0.084,0.137-0.168,0.206-0.253c-1.593-2.908-3.187-5.815-4.847-8.845c-0.048,0.239-0.091,0.316-0.07,0.364  c1.244,2.737,2.477,5.479,3.769,8.193C36.347,38.816,36.839,38.911,37.162,39.087z M55.824,57.347  c-0.341-0.941-0.644-1.777-0.968-2.672c-0.554,0.236-1.054,0.449-1.432,0.61c0.507,0.821,0.992,1.607,1.474,2.387  C55.199,57.566,55.474,57.469,55.824,57.347z M58.023,62.295c-0.739,0.123-0.893,0.46-0.55,1.07c0.313,0.555,0.528,1.17,0.874,1.701  c0.154,0.235,0.524,0.329,0.797,0.487c0.046-0.088,0.092-0.176,0.138-0.264C58.868,64.304,58.454,63.32,58.023,62.295z   M56.412,61.178c0.333-0.15,0.615-0.278,0.978-0.441c-0.365-0.736-0.687-1.387-1.047-2.111c-0.312,0.177-0.556,0.315-0.854,0.484  C55.808,59.823,56.095,60.466,56.412,61.178z M60.669,68.765c0.045-0.083,0.089-0.166,0.134-0.249  c-0.305-0.591-0.61-1.181-0.953-1.847c-0.944,0.789,0.005,1.287,0.18,1.843C60.073,68.65,60.447,68.683,60.669,68.765z"/></svg>