<svg width="56" height="50" viewBox="0 0 56 50" xmlns="http://www.w3.org/2000/svg">\<path d="M40.765 0l-29.87 4.01L0 22.204 30.984 50l24.95-34.294L40.764 0zM29.227 9.21l-8.845 1.072V6.328l8.903-1.187-.058 4.07zm-8.786 4.745l8.79-1.074-.06 3.96-8.724 1.244V13.96zm8.73 6.497l-.06 4.068-8.61 1.073v-3.898l8.67-1.243zM20.5 29.21l8.55-1.074-.058 3.954-8.492 1.074V29.21zm-3.69 3.163l-9.782-8.757 9.723-1.413.06 10.17zm12.182 3.333l-.058 7.57-7.38-6.666 7.438-.904zm3.866-15.762l17.278-2.486-17.454 24.01.176-21.524zm16.4-5.99L32.916 16.33l.118-11.695 6.384-.848 9.84 10.17zM13.178 7.29l3.515-.452.058 11.808-11.36 1.636 7.79-12.994z" fill="#EB6852"/></svg>