<?xml version="1.0" encoding="utf-8"?>
<!-- Generator: Adobe Illustrator 21.0.0, SVG Export Plug-In . SVG Version: 6.00 Build 0)  -->
<svg version="1.1" id="Layer_1" xmlns="http://www.w3.org/2000/svg" xmlns:xlink="http://www.w3.org/1999/xlink" x="0px" y="0px"
	 width="280px" height="150px" viewBox="0 0 280 150" enable-background="new 0 0 280 150" xml:space="preserve">
<g>
	<g>
		<path fill="#3C3736" d="M41,55.6v6c4.7-6.6,11.9-8.2,19.7-6.4v7.8c-10.1-3-19.7,4.4-19.7,15v26.6h-8.8V55.6H41z"/>
		<path fill="#3C3736" d="M114.1,55.5v49.2h-8.9v-6.6c-3.5,5.4-11.4,7.4-17.5,7.5c-17.2,0-26.4-12.1-26.4-25.6
			c0-13.3,9.6-25.2,26.3-25.2c6.1,0,13.4,1.5,17.8,7.4l-0.1-6.5H114.1z M87.3,62.5c-10.7,0.2-17.2,7.7-17.2,17.4
			c0,9.4,6.6,18,17.9,17.7c8.1-0.2,17.2-6,17.2-17.5C105.2,68.3,95.6,62.4,87.3,62.5z"/>
		<path fill="#3C3736" d="M131.4,61.9c4.3-5.8,10.4-7.2,16.5-7.2c16.6,0,25.3,11.9,25.3,25.2c0,13.5-8.3,25.6-25.4,25.6
			c-6.1-0.1-12.8-2.1-16.4-7.5v6.6h-8.9V41.1h8.9V61.9z M147.4,97.6c11.3,0.3,17-8.7,16.9-17.7c-0.1-8.6-5.5-17.2-16.2-17.4
			c-8.4-0.1-16.7,5.7-16.7,17.5C131.4,91.6,139.3,97.4,147.4,97.6z"/>
		<path fill="#3C3736" d="M189,55h-8.9v49.7h8.9V55z"/>
		<path fill="#3C3736" d="M238.9,41.1h8.9v63.6h-8.9v-6.6c-3.5,5.4-10.3,7.4-16.4,7.5c-17.2,0-26.2-11-26.2-25.6
			c0-14.1,9.4-25.2,26.1-25.2c6.1,0,12.3,1.4,16.5,7.2V41.1z M222.2,62.5c-10.7,0.2-16.9,8.7-17,17.4c-0.1,10.4,6.4,18,17.6,17.7
			c8.2-0.2,16.1-6,16.1-17.5C238.9,68.3,230.5,62.4,222.2,62.5z"/>
	</g>
	<g>
		<path fill-rule="evenodd" clip-rule="evenodd" fill="#E44125" d="M179.5,35.2l5-10.5l5,10.5c0,0,1.4,2.8,2.1,5.1
			c0.1,0.5,0,0.9,0.1,1.3l-0.1,1.9c-1,1.2-3.5,2.3-7.3,2.3c-3.9,0-7.2-1-7.2-2.9c0-0.2,0-0.4,0-0.6c0-0.1-0.1-0.7,0-0.8
			c0.1-0.3,0-0.7,0.2-1.1C178.1,38.1,179.5,35.2,179.5,35.2z M181.9,45.7c0.9,0.4,4.4,0.4,5.3,0c2.8-1.1-2.7-6.9-2.7-6.9
			S179.3,44.5,181.9,45.7z"/>
		<path opacity="0.4" fill-rule="evenodd" clip-rule="evenodd" fill="#010101" d="M180.1,33.9l4.4,4.8c0,0-1.1,1.2-1.9,2.5l-2.6-7
			L180.1,33.9z"/>
		<polygon fill-rule="evenodd" clip-rule="evenodd" fill="#E44125" points="184.5,24.5 179.9,33.7 185,39.3 189.3,34.5 		"/>
		<path opacity="0.1" fill-rule="evenodd" clip-rule="evenodd" fill="#010101" d="M190,36c1.8,7.2-1.7,8.9-2.3,9.3
			c2.5-0.8,4.1-2.4,4-5.1C191.3,39.2,190.6,37.4,190,36z"/>
		<path opacity="5.000000e-02" fill-rule="evenodd" clip-rule="evenodd" fill="#010101" d="M181.2,44.6c0,0.2,0.1,0.5,0.2,0.7
			c0.6,0.6-4.8-0.2-4-4.9C177.4,40.4,180.5,44.3,181.2,44.6z"/>
		<path fill-rule="evenodd" clip-rule="evenodd" fill="#3E5BA9" d="M177.4,40.4c-0.7,2.7,0.7,7.3,1.1,7.7c2.7,2.7,9.1,2.9,12,0
			c0.3-0.3,1.8-5.1,1.2-7.8c0.2,3.5-2.8,4.7-4,5.1c-1.5,0.5-4.6,0.4-6.2-0.1C180.2,45,177.3,44.4,177.4,40.4z"/>
		<path opacity="0.1" fill-rule="evenodd" clip-rule="evenodd" fill="#010101" d="M178.9,44.2c0,0,0.2,3.6,0.6,4.7
			c-0.3-0.2-0.9-0.6-1.1-0.8c-0.7-1.2-1.7-5.1-1.1-7.7C177.4,42,177.6,43.2,178.9,44.2z"/>
		<path opacity="0.1" fill-rule="evenodd" clip-rule="evenodd" fill="#010101" d="M189.9,44.2l-0.4,4.7c0.4-0.3,0.7-0.5,1-0.8
			c0.4-0.5,1.8-5.1,1.2-7.8C191.7,42.1,191.2,43.2,189.9,44.2z"/>
		<polygon fill-rule="evenodd" clip-rule="evenodd" fill="#E44125" points="179.9,33.7 180,34.2 180.1,34 		"/>
		<polygon opacity="0.1" fill-rule="evenodd" clip-rule="evenodd" fill="#FFFFFF" points="179.9,33.7 180,34.2 180.1,34 		"/>
	</g>
</g>
</svg>
