<?xml version="1.0" encoding="utf-8"?>
<!-- Generator: Adobe Illustrator 21.0.0, SVG Export Plug-In . SVG Version: 6.00 Build 0)  -->
<svg version="1.1" id="Layer_1" xmlns="http://www.w3.org/2000/svg" xmlns:xlink="http://www.w3.org/1999/xlink" x="0px" y="0px"
	 width="180px" height="100px" viewBox="0 0 180 100" enable-background="new 0 0 180 100" xml:space="preserve">
<g>
	<g>
		<path d="M71.4,36.2c-0.1,0.1-0.1,0.2-0.1,0.2c-0.1,0.9-0.2,1.8-0.3,2.7c-0.1,0.9-0.2,1.8-0.3,2.8c-0.1,1-0.2,1.9-0.3,2.9
			c-0.1,0.5-0.1,1-0.2,1.5c0,0.1,0,0.3-0.1,0.4c-0.1,0.2-0.2,0.3-0.5,0.3c-0.2,0-0.3,0-0.5,0c-1.1,0-2.3,0-3.4,0
			c-0.2,0-0.3,0-0.5-0.1c-0.3,0-0.4-0.2-0.4-0.5c0-0.1,0-0.3,0-0.5c0.1-0.9,0.2-1.7,0.3-2.6c0.1-0.7,0.1-1.4,0.2-2.1
			c0.1-0.8,0.2-1.6,0.2-2.4c0.1-0.7,0.1-1.4,0.2-2.1c0.1-0.8,0.2-1.6,0.2-2.4c0.1-0.7,0.1-1.4,0.2-2.1c0.1-0.8,0.2-1.5,0.2-2.3
			c0.1-0.7,0.1-1.4,0.2-2.1c0-0.4,0.1-0.7,0.1-1.1c0-0.1,0-0.2,0.1-0.3c0.1-0.4,0.3-0.5,0.7-0.6c0.1,0,0.2,0,0.3,0
			c1.4,0,2.8,0,4.2,0c0.1,0,0.2,0,0.2,0c0.4,0,0.7,0.2,0.9,0.6c0.1,0.1,0.1,0.3,0.2,0.4c1.1,3.8,2.3,7.6,3.4,11.4
			c0.1,0.2,0.1,0.4,0.2,0.6c0.1,0,0.1-0.1,0.2-0.2c0.4-1.3,0.8-2.6,1.2-3.9c0.8-2.6,1.6-5.3,2.4-7.9c0.1-0.2,0.1-0.3,0.2-0.5
			c0.1-0.3,0.3-0.4,0.6-0.5c0.1,0,0.2,0,0.4,0c1.4,0,2.9,0,4.3,0c0.2,0,0.3,0,0.4,0.1c0.2,0.1,0.4,0.2,0.5,0.5
			c0.1,0.1,0.1,0.3,0.1,0.4c0.1,0.7,0.1,1.3,0.2,2c0.1,0.8,0.2,1.6,0.2,2.4c0.1,0.7,0.1,1.4,0.2,2.1c0.1,0.8,0.2,1.6,0.3,2.4
			c0.1,0.7,0.1,1.4,0.2,2.1c0.1,0.7,0.2,1.5,0.2,2.2c0.1,0.7,0.1,1.4,0.2,2.1c0.1,0.8,0.2,1.7,0.3,2.5c0,0.4,0.1,0.9,0.1,1.3
			c0,0.6-0.1,0.8-0.8,0.9c-0.2,0-0.3,0-0.5,0c-1,0-2,0-2.9,0c-0.2,0-0.4,0-0.5-0.1c-0.3-0.1-0.5-0.2-0.6-0.5
			c-0.1-0.1-0.1-0.3-0.1-0.4c-0.1-0.6-0.1-1.3-0.2-1.9c-0.1-0.8-0.2-1.5-0.2-2.3c-0.1-0.7-0.1-1.3-0.2-2c-0.1-0.7-0.2-1.4-0.2-2
			c0-0.4-0.1-0.8-0.1-1.1c0-0.2-0.1-0.4-0.2-0.5c-0.1,0-0.1,0.1-0.1,0.2c0,0.1,0,0.1-0.1,0.2c-0.5,1.6-0.9,3.2-1.4,4.7
			c-0.4,1.5-0.9,3.1-1.3,4.6c-0.1,0.2-0.1,0.4-0.2,0.6C79.2,46.8,79,47,78.5,47c-0.1,0-0.2,0-0.3,0c-0.8,0-1.7,0-2.5,0
			c-0.8,0-1.1-0.3-1.3-0.9c-0.3-1-0.6-2.1-0.9-3.1c-0.6-2-1.2-4.1-1.8-6.1C71.7,36.6,71.6,36.4,71.4,36.2z"/>
		<path d="M103.6,39.1c0.1-0.2,0.1-0.2,0.1-0.3c1.2-3.8,2.3-7.6,3.5-11.5c0.1-0.2,0.1-0.4,0.2-0.6c0.2-0.5,0.5-0.8,1.1-0.8
			c1.5,0,2.9,0,4.4,0c0.1,0,0.2,0,0.2,0c0.4,0.1,0.6,0.3,0.7,0.7c0,0.2,0.1,0.4,0.1,0.5c0.1,1.4,0.3,2.7,0.4,4.1
			c0.1,1.3,0.3,2.6,0.4,4c0.1,1,0.2,2.1,0.3,3.1c0.1,1,0.2,2,0.3,3.1c0.1,1,0.2,2,0.3,3.1c0,0.4,0.1,0.8,0.1,1.3c0,0.2,0,0.5,0,0.7
			c0,0.3-0.2,0.5-0.5,0.6c-0.2,0-0.5,0.1-0.7,0.1c-1,0-2.1,0-3.1,0c-0.2,0-0.3,0-0.5-0.1c-0.3-0.1-0.4-0.2-0.5-0.5
			c0-0.1-0.1-0.2-0.1-0.4c-0.1-0.9-0.2-1.8-0.3-2.7c-0.1-1-0.2-1.9-0.3-2.9c-0.1-0.6-0.1-1.3-0.2-1.9c-0.1-0.9-0.2-1.7-0.3-2.6
			c0,0,0-0.1-0.1-0.1c0,0-0.1,0-0.1,0c0,0.1-0.1,0.2-0.1,0.3c-0.9,3.1-1.8,6.1-2.7,9.2c-0.1,0.2-0.1,0.4-0.1,0.5
			c-0.1,0.2-0.1,0.3-0.2,0.5c-0.2,0.3-0.4,0.5-0.8,0.5c-0.1,0-0.2,0-0.4,0c-0.8,0-1.6,0-2.4,0c-0.1,0-0.1,0-0.2,0
			c-0.7,0.1-1.1-0.3-1.2-0.9c-0.2-0.8-0.5-1.6-0.7-2.5c-0.6-2.2-1.3-4.5-2-6.7c-0.1-0.2-0.1-0.4-0.2-0.6c0-0.1-0.1-0.1-0.1-0.1
			c-0.1,0-0.1,0.1-0.1,0.1c0,0.2-0.1,0.4-0.1,0.5c-0.1,0.6-0.1,1.2-0.2,1.7c-0.1,0.7-0.2,1.4-0.2,2.1c-0.1,0.7-0.1,1.3-0.2,2
			c-0.1,0.8-0.2,1.5-0.2,2.3c0,0.4-0.1,0.7-0.1,1.1c0,0.1,0,0.3-0.1,0.4c-0.1,0.2-0.3,0.4-0.5,0.5c-0.2,0-0.3,0.1-0.5,0.1
			c-1.1,0-2.2,0-3.3,0c-0.2,0-0.4,0-0.5-0.1c-0.2-0.1-0.4-0.2-0.4-0.4c0-0.1-0.1-0.3,0-0.5c0.1-0.6,0.1-1.2,0.2-1.8
			c0.1-0.8,0.2-1.6,0.2-2.4c0.1-0.7,0.2-1.5,0.2-2.2c0.1-0.7,0.1-1.5,0.2-2.2c0.1-0.8,0.2-1.6,0.2-2.4c0.1-0.7,0.1-1.4,0.2-2.1
			c0.1-0.8,0.2-1.6,0.2-2.4c0.1-0.7,0.1-1.4,0.2-2.1c0.1-0.6,0.1-1.1,0.2-1.7c0,0,0-0.1,0-0.1c0.1-0.4,0.3-0.6,0.7-0.6
			c0.1,0,0.2,0,0.4,0c1.4,0,2.8,0,4.2,0c0.6,0,0.9,0.2,1.1,0.8c0.3,0.8,0.5,1.6,0.7,2.5c0.9,3,1.8,6.1,2.7,9.1
			C103.5,38.6,103.5,38.8,103.6,39.1z"/>
		<path d="M140.5,64.7c-0.1,0.4-0.1,0.7-0.1,1.1c0,2.4,0,4.8,0,7.2c0,0.2,0,0.4,0,0.6c0,0.4-0.2,0.5-0.5,0.6c-0.1,0-0.3,0-0.4,0
			c-1.4,0-2.8,0-4.1,0c-0.2,0-0.3,0-0.5-0.1c-0.2-0.1-0.4-0.2-0.4-0.4c0-0.2,0-0.3,0-0.5c0-0.1,0-0.3,0-0.4c0-6.7,0-13.4,0-20.1
			c0-0.3,0-0.6,0.1-1c0.1-0.4,0.2-0.5,0.6-0.5c0.2,0,0.5,0,0.7,0c1.1,0,2.3,0,3.4,0c0.2,0,0.5,0,0.7,0c0.4,0,0.5,0.2,0.6,0.6
			c0,0.2,0,0.4,0,0.5c0,2.1,0,4.2,0,6.3c0,0.6,0,0.5,0.5,0.5c2.2,0,4.5,0,6.7,0c0.4,0,0.4,0,0.4-0.4c0-2.1,0-4.2,0-6.3
			c0-0.2,0-0.4,0-0.6c0.1-0.4,0.2-0.6,0.7-0.6c0.6-0.1,1.2,0,1.8,0c0.8,0,1.6,0,2.4,0c0.2,0,0.3,0,0.5,0c0.3,0,0.5,0.2,0.6,0.5
			c0,0.2,0,0.3,0,0.5c0,1.7,0,3.4,0,5.1c0,4.7,0,9.4,0,14.1c0,0.6,0,1.2,0,1.7c0,0.2,0,0.3,0,0.5c-0.1,0.4-0.3,0.5-0.7,0.6
			c-0.1,0-0.2,0-0.3,0c-1.3,0-2.7,0-4,0c-0.2,0-0.4,0-0.6-0.1c-0.2-0.1-0.3-0.2-0.4-0.4c0-0.1-0.1-0.3-0.1-0.4c0-0.2,0-0.4,0-0.6
			c0-2.5,0-5,0-7.5c0-0.1,0-0.2,0-0.3c0-0.2,0-0.2-0.2-0.2c-0.1,0-0.2,0-0.2,0c-2.2,0-4.4,0-6.6,0C140.8,64.7,140.6,64.7,140.5,64.7
			z"/>
		<path d="M98.8,60.2c0.2,0,0.4,0,0.5,0c2.2,0,4.5,0,6.7,0c0.2,0,0.4,0,0.6,0.1c0.3,0.1,0.4,0.3,0.5,0.5c0,0.1,0,0.2,0,0.4
			c0,0.8,0,1.6,0,2.3c0,0.2,0,0.5,0,0.7c0,0.4-0.2,0.5-0.6,0.6c-0.2,0-0.5,0-0.7,0c-2.1,0-4.2,0-6.4,0c-0.1,0-0.2,0-0.4,0
			c-0.2,0-0.2,0-0.2,0.2c0,1.2,0,2.3,0,3.5c0,0.2,0,0.2,0.2,0.2c0.1,0,0.2,0,0.4,0c3,0,6.1,0,9.1,0c0.2,0,0.5,0,0.7,0
			c0.4,0.1,0.5,0.2,0.5,0.5c0,0.2,0,0.4,0,0.6c0,1,0,2,0,2.9c0,0.2,0,0.3,0,0.5c-0.1,0.4-0.3,0.7-0.8,0.8c-0.1,0-0.3,0-0.4,0
			c-1.8,0-3.5,0-5.3,0c-3.1,0-6.2,0-9.4,0c-0.2,0-0.3,0-0.5,0c-0.4,0-0.6-0.2-0.7-0.6c0-0.2,0-0.4,0-0.6c0-2.1,0-4.2,0-6.3
			c0-4.2,0-8.3,0-12.5c0-0.7,0-1.4,0-2.1c0-0.2,0-0.4,0.1-0.6c0.1-0.2,0.2-0.3,0.4-0.3c0.2,0,0.4,0,0.6,0c4.8,0,9.7,0,14.5,0
			c0.2,0,0.4,0,0.6,0c0.2,0,0.4,0.2,0.5,0.4c0,0.2,0.1,0.4,0.1,0.5c0,1.1,0,2.2,0,3.3c0,0.1,0,0.2,0,0.4c-0.1,0.4-0.3,0.6-0.8,0.7
			c-0.2,0-0.3,0-0.5,0c-3,0-5.9,0-8.9,0c-0.2,0-0.3-0.1-0.4,0c-0.1,0.1-0.1,0.3-0.1,0.5c0,0.9,0,1.8,0,2.8
			C98.8,59.8,98.8,60,98.8,60.2z"/>
		<path d="M136.8,36.5c0-2.2,0-4.5,0-6.7c0-0.9,0-1.8,0-2.8c0-0.2,0-0.3,0-0.5c0-0.3,0.3-0.5,0.5-0.5c0.1,0,0.2,0,0.4,0c3,0,6,0,9,0
			c3.3,0,6,2.3,6.7,5.5c0.5,2.3-0.1,4.3-1.7,6c-0.3,0.4-0.7,0.7-1.1,1c-0.1,0.1-0.3,0.2-0.4,0.3c-0.1,0.1-0.1,0.1,0,0.2
			c0.1,0.1,0.1,0.2,0.2,0.3c1.1,2.1,2.2,4.2,3.3,6.3c0.1,0.2,0.2,0.4,0.3,0.6c0,0.1,0.1,0.2,0.1,0.3c0.1,0.3,0,0.5-0.3,0.6
			c-0.3,0.1-0.5,0.1-0.8,0.1c-0.5,0-1.1,0-1.7,0c-0.6,0-1.2,0-1.8,0c-0.1,0-0.2,0-0.4,0c-0.6,0-1-0.2-1.3-0.7c0-0.1-0.1-0.1-0.1-0.2
			c-0.8-1.5-1.6-3-2.4-4.5c-0.1-0.2-0.2-0.4-0.3-0.6c-0.1-0.2-0.2-0.3-0.3-0.5c-0.3-0.4-0.7-0.6-1.2-0.6c-0.4,0-0.8,0-1.1,0
			c-0.1,0-0.2,0-0.2,0.2c0,0.1,0,0.2,0,0.4c0,1.8,0,3.5,0,5.3c0,0.2,0,0.5-0.1,0.7c-0.1,0.3-0.2,0.4-0.5,0.4c-0.2,0-0.5,0.1-0.7,0.1
			c-1.1,0-2.2,0-3.3,0c-0.2,0-0.3,0-0.5-0.1c-0.2-0.1-0.4-0.2-0.4-0.4c-0.1-0.2-0.1-0.4-0.1-0.6c0-1,0-2,0-3.1c0-0.6,0-1.1,0-1.7
			C136.8,39.6,136.8,38,136.8,36.5z M142.4,32.9c0,0.6,0,1.2,0,1.7c0,0.2-0.1,0.5,0,0.7c0.2,0.1,0.5,0,0.7,0c0.8,0,1.6,0,2.4,0
			c1,0,1.8-0.6,2.1-1.6c0.4-1.2-0.1-2.3-0.8-2.9c-0.4-0.3-0.8-0.5-1.3-0.5c-1-0.1-2,0-2.9,0c-0.2,0-0.2,0-0.2,0.2
			C142.4,31.4,142.4,32.2,142.4,32.9z"/>
		<path d="M62.6,33.5c0,2.1,0,4.2-0.1,6.3c0,1.1-0.3,2.1-0.7,3.1c-0.8,1.8-2.1,3-3.9,3.7C57,47,56,47.2,55,47.3
			c-0.6,0.1-1.3,0.1-1.9,0.1c-1.1,0-2.2-0.2-3.3-0.6c-2.5-0.9-4.1-2.6-4.8-5.2c-0.2-0.6-0.3-1.3-0.3-2c-0.1-1.7,0-3.5,0-5.2
			c0-0.5,0-1,0-1.5c0-0.8,0-1.7,0-2.5c0-1,0-2.1,0-3.1c0-0.2,0-0.4,0-0.6c0.1-0.4,0.3-0.6,0.7-0.6c0.1,0,0.2,0,0.3,0
			c1.2,0,2.3,0,3.5,0c0.2,0,0.3,0,0.5,0.1c0.3,0.1,0.4,0.3,0.5,0.5c0.1,0.2,0.1,0.4,0.1,0.6c0,1.3,0,2.6,0,3.9c0,2.5,0,5,0,7.5
			c0,0.5,0,1,0.2,1.5c0.4,1.2,1.2,2,2.5,2.2c2.7,0.5,4.1-1.5,4.1-3.3c0-1.2,0-2.3,0-3.5c0-2.8,0-5.5,0-8.3c0-0.3,0-0.5,0.1-0.8
			c0-0.2,0.2-0.4,0.4-0.4c0.2,0,0.3-0.1,0.5-0.1c1.3,0,2.5,0,3.8,0c0.1,0,0.3,0,0.4,0.1c0.2,0.1,0.4,0.2,0.4,0.5
			c0.1,0.2,0.1,0.4,0.1,0.5C62.6,29.2,62.6,31.3,62.6,33.5z"/>
		<path d="M123.9,38.6c-0.1,0.1,0,0.2,0,0.3c0,0.9,0,1.9,0,2.8c0,0.1,0,0.1,0,0.2c0,0.1,0,0.2,0.2,0.2c0.1,0,0.2,0,0.3,0
			c2.8,0,5.7,0,8.5,0c0.2,0,0.3,0,0.5,0c0.4,0.1,0.6,0.3,0.7,0.7c0,0.1,0,0.2,0,0.3c0,0.9,0,1.9,0,2.8c0,0.2,0,0.3,0,0.5
			c-0.1,0.3-0.3,0.5-0.6,0.6c-0.2,0-0.4,0.1-0.5,0.1c-0.8,0-1.5,0-2.3,0c-3.2,0-6.4,0-9.7,0c-0.5,0-0.9,0-1.4,0
			c-0.2,0-0.4,0-0.5-0.1c-0.3-0.1-0.5-0.4-0.6-0.6c0-0.2,0-0.4,0-0.5c0-3.1,0-6.1,0-9.2c0-3.1,0-6.3,0-9.4c0-0.2,0-0.3,0-0.5
			c0-0.4,0.3-0.6,0.7-0.7c0.1,0,0.3,0,0.4,0c4.4,0,8.8,0,13.2,0c0.2,0,0.4,0,0.6,0.1c0.3,0.1,0.4,0.3,0.5,0.5c0,0.2,0,0.3,0,0.5
			c0,0.9,0,1.7,0,2.6c0,0.2,0,0.4-0.1,0.6c-0.1,0.3-0.2,0.5-0.5,0.6c-0.2,0.1-0.4,0.1-0.6,0.1c-1.6,0-3.1,0-4.7,0
			c-1.1,0-2.3,0-3.4,0c-0.1,0-0.2,0-0.2,0c-0.2,0-0.2,0-0.2,0.2c0,1,0,2,0,3c0,0,0,0.1,0,0.1c0,0.1,0,0.1,0.1,0.1c0.1,0,0.2,0,0.4,0
			c2,0,4.1,0,6.1,0c0.2,0,0.3,0,0.5,0c0.4,0,0.5,0.2,0.6,0.6c0,0.1,0,0.2,0,0.2c0,0.9,0,1.7,0,2.6c0,0.1,0,0.2,0,0.3
			c-0.1,0.3-0.2,0.5-0.6,0.6c-0.2,0-0.4,0.1-0.6,0.1c-1.6,0-3.2,0-4.8,0c-0.4,0-0.9,0-1.3,0C124,38.6,124,38.6,123.9,38.6z"/>
		<path d="M124,50.7c2.4,0,4.5,0.7,6.4,1.9c0.2,0.1,0.3,0.2,0.4,0.4c0.2,0.2,0.2,0.4,0.1,0.6c-0.1,0.2-0.2,0.4-0.3,0.6
			c-0.4,0.6-0.9,1.3-1.3,1.9c-0.2,0.4-0.5,0.7-0.7,1.1c-0.1,0.1-0.2,0.2-0.2,0.3c-0.2,0.3-0.5,0.3-0.8,0.2c-0.1-0.1-0.3-0.1-0.4-0.2
			c-0.7-0.4-1.4-0.7-2.2-0.9c-2-0.3-3.7,0.2-5.1,1.6c-0.9,1-1.4,2.1-1.6,3.4c-0.2,1.5,0,2.9,0.8,4.2c0.9,1.5,2.2,2.4,3.8,2.7
			c1.2,0.3,2.4,0.1,3.5-0.4c0.3-0.2,0.6-0.3,1-0.5c0.1-0.1,0.3-0.2,0.4-0.2c0.2-0.1,0.4-0.1,0.6,0.1c0.1,0.1,0.2,0.2,0.3,0.4
			c0.7,1.1,1.5,2.1,2.2,3.2c0.1,0.2,0.2,0.3,0.3,0.5c0.1,0.2,0.1,0.5-0.1,0.6c-0.1,0.1-0.3,0.2-0.4,0.3c-1.1,0.7-2.3,1.3-3.6,1.6
			c-1,0.3-2.1,0.4-3.1,0.4c-5.3-0.2-10-3.7-11.3-9.2c-0.3-1.2-0.4-2.4-0.3-3.6c0.2-2.9,1.3-5.4,3.4-7.4c1.6-1.6,3.5-2.7,5.7-3.2
			C122.2,50.8,123.2,50.7,124,50.7z"/>
		<path d="M45.8,63c0-3.3,0-6.6,0-10c0-0.3,0-0.6,0-1c0-0.4,0.2-0.5,0.6-0.6c0.3,0,0.5,0,0.8,0c4.5,0,9,0,13.5,0c0.2,0,0.5,0,0.7,0
			c0.3,0,0.4,0.2,0.4,0.4c0,0.2,0,0.5,0,0.7c0,1,0,2.1,0,3.1c0,0.1,0,0.2,0,0.3c0,0.4-0.3,0.6-0.7,0.7c-0.2,0-0.3,0-0.5,0
			c-2.8,0-5.6,0-8.4,0c-0.5,0-0.4,0-0.4,0.4c0,1.3,0,2.6,0,3.9c0,0.1,0,0.2,0,0.3c0,0.1,0.1,0.1,0.1,0.1c0.3,0,0.5,0,0.8,0
			c1,0,2.1,0,3.1,0c0.8,0,1.7,0,2.5,0c0.2,0,0.4,0,0.5,0c0.3,0,0.4,0.2,0.5,0.5c0,0.2,0,0.4,0,0.5c0,1,0,2,0,3c0,0.2,0,0.4,0,0.5
			c0,0.4-0.2,0.5-0.6,0.6c-0.2,0-0.5,0-0.7,0c-1.9,0-3.8,0-5.7,0c-0.2,0-0.4-0.1-0.5,0c0,0.2,0,0.3-0.1,0.5c0,0.2,0,0.4,0,0.6
			c0,1.8,0,3.7,0,5.5c0,0.2,0,0.3,0,0.5c0,0.4-0.3,0.6-0.7,0.7c-0.1,0-0.2,0-0.3,0c-1.3,0-2.7,0-4,0c-0.1,0-0.2,0-0.3,0
			c-0.4,0-0.6-0.2-0.7-0.7c0-0.2,0-0.5,0-0.7c0-2.6,0-5.1,0-7.7C45.8,64.6,45.8,63.8,45.8,63z"/>
		<path d="M34.3,47.2c-3.1,0-5.7-1.1-7.8-3.5c-0.1-0.1-0.2-0.3-0.3-0.4c-0.2-0.4-0.2-0.6,0.1-1c0.1-0.1,0.1-0.1,0.2-0.2
			c0.6-0.6,1.3-1.3,1.9-1.9c0.1-0.1,0.2-0.2,0.3-0.3c0.3-0.2,0.6-0.2,0.9-0.1c0.1,0.1,0.3,0.2,0.4,0.3c0.4,0.3,0.8,0.6,1.2,0.9
			c0.3,0.3,0.7,0.5,1.1,0.7c0.5,0.2,0.9,0.3,1.5,0.4c0.5,0,0.9,0,1.4,0c0.6,0,1-0.3,1.2-0.8c0.1-0.2,0.2-0.5,0.2-0.8
			c0-0.4-0.1-0.7-0.3-1c-0.2-0.2-0.4-0.3-0.7-0.5c-0.7-0.4-1.4-0.7-2.2-0.9c-0.8-0.3-1.5-0.6-2.2-0.9c-1.1-0.5-2-1.1-2.8-2
			c-1-1.1-1.6-2.4-1.6-3.8c0-2.2,1-3.8,2.9-4.9c0.5-0.3,1.2-0.5,1.8-0.6c0.8-0.2,1.7-0.4,2.5-0.5c0.3,0,0.7,0,1,0
			c2.3,0.1,4.3,0.9,6,2.5c0.2,0.1,0.3,0.3,0.4,0.5c0.2,0.3,0.2,0.6,0,0.8c-0.1,0.2-0.2,0.3-0.3,0.4c-0.6,0.7-1.2,1.3-1.9,2
			c-0.1,0.1-0.2,0.1-0.2,0.2c-0.3,0.2-0.6,0.2-0.9,0.1c-0.2-0.1-0.3-0.2-0.4-0.3c-0.3-0.3-0.7-0.6-1.1-0.8c-0.4-0.3-0.9-0.5-1.3-0.6
			c-0.5-0.1-1-0.1-1.5,0c-0.2,0-0.4,0.1-0.6,0.3c-0.2,0.2-0.4,0.3-0.6,0.5c-0.2,0.2-0.2,0.5-0.1,0.8c0.1,0.4,0.3,0.7,0.7,0.9
			c0.3,0.2,0.7,0.4,1,0.5c1.1,0.4,2.1,0.8,3.2,1.2c0.7,0.3,1.4,0.5,2,0.9c0.6,0.4,1.2,0.8,1.7,1.3c0.8,0.9,1.2,1.9,1.3,3.1
			c0.1,1.1-0.1,2.1-0.5,3c-0.5,1.2-1.4,2.2-2.5,2.9c-0.9,0.6-1.9,1-3,1.2c-0.4,0.1-0.8,0.1-1.1,0.2C34.9,47.3,34.6,47.2,34.3,47.2z"
			/>
		<path d="M83.4,64.9c0,2.6,0,5.2,0,7.8c0,0.2,0,0.5,0,0.7c-0.1,0.4-0.2,0.6-0.6,0.7c-0.1,0-0.3,0-0.4,0c-1.3,0-2.7,0-4,0
			c-0.1,0-0.2,0-0.3,0c-0.3-0.1-0.6-0.3-0.7-0.6c0-0.2-0.1-0.4-0.1-0.5c0-1.3,0-2.5,0-3.8c0-4.1,0-8.2,0-12.3c0-0.1,0-0.2,0-0.3
			c0-0.1,0-0.1-0.1-0.1c-0.1,0-0.2,0-0.4,0c-1.4,0-2.8,0-4.3,0c-0.2,0-0.4,0-0.6,0c-0.4,0-0.5-0.2-0.6-0.6c-0.1-0.5,0-1,0-1.5
			c0-0.7,0-1.5,0-2.2c0-0.2,0-0.3,0-0.5c0.1-0.3,0.2-0.5,0.6-0.6c0.2,0,0.4,0,0.6,0c4.5,0,9,0,13.5,0c0.8,0,1.5,0,2.3,0
			c0.2,0,0.4,0,0.5,0c0.3,0,0.4,0.2,0.5,0.4c0.1,0.1,0.1,0.3,0.1,0.5c0,1.1,0,2.3,0,3.4c0,0.1,0,0.1,0,0.2c0,0.5-0.3,0.8-0.8,0.8
			c-0.2,0-0.3,0-0.5,0c-1.5,0-2.9,0-4.4,0c-0.1,0-0.2,0-0.2,0c-0.1,0-0.1,0-0.1,0.1c0,0.1,0,0.3,0,0.4
			C83.4,59.6,83.4,62.3,83.4,64.9z"/>
		<path d="M41.8,55.2c0.5,0.9,0.8,1.8,1,2.8c0.2,1.7-0.1,3.3-0.9,4.8c-1.2,2.1-3,3.4-5.3,3.8c-2.2,0.5-4.3,0-6.2-1.3
			c-1.7-1.2-2.8-2.9-3.1-5c-0.3-1.9,0-3.6,1-5.3c0-0.1,0.1-0.2,0.1-0.2c1.2,0,2.3,0,3.5-0.1c0.2,0,0.4,0.1,0.5,0.1
			c0.5,0.2,0.9,0.4,1.4,0.7c0.3,0.1,0.5,0.3,0.8,0.4c-0.1,0-0.2,0.1-0.3,0.1c-1,0.2-1.7,0.8-2.1,1.7C32,58.3,32,59,32.1,59.7
			c0.2,1,0.7,1.7,1.6,2.1c0.5,0.2,1,0.3,1.5,0.3c1.2-0.1,2.1-0.6,2.6-1.7c0.2-0.5,0.3-1,0.3-1.6c0-0.8-0.3-1.4-0.8-2
			c-0.1-0.1-0.1-0.2-0.2-0.2c0.2,0,0.3,0,0.5,0c0.2,0,0.5,0,0.7,0c0.7-0.1,1.3-0.2,1.9-0.5C40.7,55.9,41.3,55.6,41.8,55.2z"/>
		<path d="M35.1,74.5c-2.2,0-4.4,0-6.6,0c-0.3,0-0.6,0-0.9-0.1c-0.6-0.1-1-0.4-1.1-1c-0.3-1.2-0.1-2.3,0.6-3.2
			c1-1.2,2.1-2.1,3.6-2.5c0.6-0.2,1.1-0.2,1.7-0.2c1.2,0,2.4,0,3.7,0c0.7,0,1.4,0,2.1,0c1.6,0.1,2.9,0.8,4,2
			c0.3,0.3,0.6,0.7,0.8,1.1c0.3,0.4,0.4,0.9,0.4,1.4c0,0.5,0,0.9-0.1,1.4c-0.1,0.5-0.3,0.8-0.8,0.8c-0.3,0-0.5,0.1-0.8,0.1
			C39.6,74.5,37.4,74.5,35.1,74.5C35.1,74.5,35.1,74.5,35.1,74.5z"/>
		<path d="M37,52.8c-0.3,0-0.5-0.1-0.8-0.1c-0.1,0-0.2,0-0.3,0.1c-0.1,0.1-0.3,0.3-0.4,0.4c-0.1,0.1-0.1,0.1-0.2,0.1
			c0-0.1,0-0.2,0-0.3c0-0.1,0-0.2,0-0.4c0-0.2-0.1-0.4-0.3-0.4c-0.2-0.1-0.3-0.2-0.4-0.2c-0.1,0-0.1-0.1-0.1-0.2
			c0.2-0.1,0.4-0.2,0.6-0.3c0.2-0.1,0.4-0.2,0.4-0.5c0-0.2,0.1-0.4,0.1-0.6c0-0.1,0.1-0.1,0.1,0c0.1,0.2,0.3,0.3,0.4,0.5
			C36,51,36.2,51,36.4,51c0.2-0.1,0.4-0.1,0.6-0.1c0.1,0.2-0.1,0.3-0.1,0.4c-0.4,0.6-0.3,0.5,0,1.1C36.9,52.5,36.9,52.6,37,52.8
			C37,52.7,37,52.7,37,52.8z"/>
	</g>
	<rect x="33.2" y="49.8" fill="#FFFFFF" width="4.1" height="4.1"/>
	<path fill="#E5453C" d="M34.7,55.9c-0.3-0.1-0.5-0.3-0.8-0.4c-0.5-0.2-0.9-0.4-1.4-0.7c-0.2-0.1-0.3-0.2-0.5-0.1
		c-1.2,0.1-2.3,0.1-3.5,0.1c-0.1-0.1-0.2-0.2-0.2-0.4c-0.2-0.9-0.4-1.8-0.5-2.6c0,0,0-0.1,0-0.1c-0.1-0.3,0-0.6,0.3-0.7
		c0.3-0.2,0.5-0.3,0.8-0.4c0.7-0.2,1.3-0.4,2-0.6c0.8-0.3,1.7-0.5,2.4-0.9c0.8-0.4,1.7-0.5,2.6-0.5c0.5,0,1,0.2,1.5,0.4
		c0.3,0.2,0.6,0.4,0.7,0.8c0.2,0.7,0.4,1.3,0.6,2c0.1,0.2,0.2,0.3,0.4,0.4c1.2,0.2,2.3,0.4,3.5,0.6c0,0,0.1,0,0.1,0
		c0.2,0,0.2,0.1,0.2,0.2c0.1,0.7-0.2,1.4-0.6,2c-0.1,0.1-0.2,0.3-0.3,0.4c-0.5,0.4-1.1,0.7-1.7,1c-0.6,0.3-1.2,0.4-1.9,0.5
		c-0.2,0-0.5,0-0.7,0c-0.1,0-0.3,0-0.5,0c-0.5-0.2-1.1-0.3-1.6-0.5C35.2,56,34.9,56,34.7,55.9z M37,52.8C37,52.7,37,52.7,37,52.8
		c0-0.2-0.1-0.3-0.1-0.4c-0.3-0.6-0.3-0.5,0-1.1c0.1-0.1,0.2-0.2,0.1-0.4c-0.2,0-0.4,0-0.6,0.1c-0.2,0.1-0.4,0-0.5-0.2
		c-0.1-0.2-0.3-0.3-0.4-0.5c0,0-0.1,0-0.1,0c0,0.2-0.1,0.4-0.1,0.6c0,0.3-0.2,0.4-0.4,0.5c-0.2,0.1-0.4,0.1-0.6,0.3
		c0,0.1,0.1,0.1,0.1,0.2c0.1,0.1,0.3,0.2,0.4,0.2c0.2,0.1,0.3,0.2,0.3,0.4c0,0.1,0,0.2,0,0.4c0,0.1,0,0.2,0,0.3
		c0.1,0,0.2-0.1,0.2-0.1c0.1-0.1,0.3-0.3,0.4-0.4c0.1-0.1,0.2-0.1,0.3-0.1C36.4,52.7,36.7,52.8,37,52.8z"/>
</g>
</svg>
