<?xml version="1.0" encoding="utf-8"?>
<!-- Generator: Adobe Illustrator 21.0.0, SVG Export Plug-In . SVG Version: 6.00 Build 0)  -->
<svg version="1.1" id="Layer_1" xmlns="http://www.w3.org/2000/svg" xmlns:xlink="http://www.w3.org/1999/xlink" x="0px" y="0px"
	 width="180px" height="100px" viewBox="0 0 180 100" enable-background="new 0 0 180 100" xml:space="preserve">
<g>
	<defs>
		<rect id="SVGID_16_" x="29.3" y="11.4" width="122.4" height="76.1"/>
	</defs>
	<clipPath id="SVGID_2_">
		<use xlink:href="#SVGID_16_"  overflow="visible"/>
	</clipPath>
	<polygon clip-path="url(#SVGID_2_)" fill="#E41F28" points="29.2,11.4 29.2,87.6 151.7,87.6 151.7,11.4 29.2,11.4 	"/>
</g>
<g id="FISH">
	<path fill="#FFFFFF" d="M53.8,62.5c2.3,0.5,3,1.9,3,3.3c0,2-1.5,3.6-4.6,3.6c-3.3,0-4.7-1.6-4.7-2.9c0-0.6,0.5-1.1,1.1-1.1
		c1.4,0,1,2,3.6,2.1c1.3,0,2.1-0.8,2.1-1.5c0-0.5-0.2-1-1.1-1.2l-2.9-0.7c-2.3-0.6-2.8-1.9-2.8-3.1c0-2.5,2.3-3.5,4.5-3.5
		c2,0,4.4,1.1,4.4,2.6c0,0.6-0.6,1-1.2,1c-1.2,0-1-1.7-3.4-1.7c-1.2,0-1.9,0.6-1.9,1.3c0,0.8,0.9,1,1.8,1.2L53.8,62.5L53.8,62.5z"/>
	<path fill="#FFFFFF" d="M60.4,59.1c0-1.1,0.5-1.5,1.6-1.5c0.5,0,1,0.2,1.3,0.7l4.5,7.3l0,0v-6.7c0-0.8,0.5-1.2,1.2-1.2
		c0.8,0,1.2,0.4,1.2,1.2v8.9c0,1-0.4,1.6-1.5,1.6c-0.8,0-1.1-0.2-1.4-0.7l-4.5-7.1h0v6.5c0,0.8-0.5,1.2-1.2,1.2
		c-0.8,0-1.2-0.4-1.2-1.2V59.1L60.4,59.1z"/>
	<path fill="#FFFFFF" d="M78.6,60.4L78.6,60.4L77,64.9l3,0L78.6,60.4L78.6,60.4z M77,58.4c0.2-0.6,0.6-0.8,1.3-0.8h0.6
		c0.6,0,1.1,0.1,1.4,0.9l3.1,8.7c0.1,0.2,0.3,0.7,0.3,1c0,0.6-0.5,1.1-1.2,1.1c-0.6,0-1-0.2-1.2-0.7l-0.7-1.9h-4.1l-0.7,1.9
		c-0.2,0.5-0.5,0.7-1.1,0.7c-0.7,0-1.2-0.4-1.2-1.1c0-0.3,0.2-0.7,0.2-1L77,58.4L77,58.4z"/>
	<path fill="#FFFFFF" d="M111.6,59.3c0-1.1,0.6-1.5,1.5-1.5h6c0.8,0,1.3,0.2,1.3,1c0,0.8-0.5,1-1.3,1h-5v2.4h4.4
		c0.7,0,1.2,0.2,1.2,1c0,0.8-0.5,1-1.2,1h-4.4V67l5.1,0c0.7,0,1.3,0.2,1.3,1c0,0.8-0.6,1-1.3,1l-6.2,0c-0.9,0-1.5-0.4-1.5-1.5V59.3
		L111.6,59.3z"/>
	<path fill="#FFFFFF" d="M126.5,62.8h2.6c1,0,1.9-0.2,2-1.5c0-1.2-0.7-1.5-1.9-1.5l-2.7,0V62.8L126.5,62.8z M124,59.3
		c0-1.2,0.6-1.5,1.5-1.5h4.3c3.1,0,3.9,1.7,3.9,3.2c0,1.2-0.7,2.4-1.9,2.7v0c1.3,0.2,1.5,1.1,1.5,2.3c0,1.3,0.3,1.8,0.3,2.3
		c0,0.6-0.6,1-1.2,1c-1.4,0-1.5-1.4-1.5-1.8c0-2-0.4-2.8-1.8-2.8h-2.5V68c0,0.8-0.5,1.3-1.3,1.3c-0.8,0-1.3-0.5-1.3-1.3V59.3
		L124,59.3z"/>
	<path fill="#FFFFFF" d="M89.4,68c0,0.8-0.5,1.3-1.3,1.3c-0.8,0-1.3-0.5-1.3-1.3v-8.7c0-1.2,0.6-1.5,1.5-1.5h3.9
		c2.2,0,3.9,1.1,3.9,3.6c0,2.1-1.4,3.6-3.9,3.6H91c-0.6,0-1-0.4-1-1c0-0.6,0.4-1,1-1l0.7,0c1,0,1.8-0.6,1.8-1.6
		c0-1.1-0.8-1.6-2.1-1.6h-2.1L89.4,68L89.4,68z"/>
	<path fill="#FFFFFF" d="M101.8,68c0,0.8-0.5,1.3-1.3,1.3c-0.8,0-1.3-0.5-1.3-1.3v-8.7c0-1.2,0.6-1.5,1.5-1.5l3.9,0
		c2.2,0,3.9,1.1,3.9,3.6c0,2.1-1.4,3.6-3.9,3.6h-1.2c-0.6,0-1-0.4-1-1c0-0.6,0.4-1,1-1l0.7,0c1,0,1.8-0.6,1.8-1.6
		c0-1.1-0.8-1.6-2.1-1.6h-2.1V68L101.8,68z"/>
	<g>
		<path fill="#FFFFFF" d="M104.8,47.5c-0.4,0-0.8-0.2-1-0.4l-5.5-5.2c0.4-0.4,1.7-1.6,2.1-2l5.4,5.1c0.3,0.3,0.4,0.6,0.4,1
			C106.2,46.8,105.6,47.5,104.8,47.5"/>
		<path fill="#FFFFFF" d="M105.8,32.5l-13,12.3c-1.9,1.8-4.6,3-7.6,3c-5.7,0-10.4-4.1-10.4-9.1c0-5,4.6-9.1,10.4-9.1
			c3,0,5.7,1.1,7.6,2.9l0,0l3.3,3.1l-2.1,2l-3.1-3c-1.4-1.3-3.4-2.2-5.7-2.2c-4.1,0-7.5,2.8-7.5,6.3c0,3.5,3.4,6.3,7.5,6.3
			c2.3,0,4.4-0.9,5.8-2.2l12.9-12.3c0.3-0.2,0.6-0.4,1-0.4c0.8,0,1.4,0.6,1.4,1.4C106.2,31.9,106.1,32.3,105.8,32.5"/>
		<path fill="#FFFFFF" d="M83.4,36.2c0,0.9-0.7,1.4-1.4,1.4c-0.7,0-1.4-0.5-1.4-1.4c0-0.9,0.7-1.4,1.4-1.4
			C82.8,34.8,83.4,35.3,83.4,36.2"/>
		<g>
			<path fill="#FFFFFF" d="M107.5,30.8h-0.2c-0.1,0-0.1-0.1-0.1-0.1c0-0.1,0.1-0.1,0.1-0.1h0.7c0.1,0,0.1,0.1,0.1,0.1
				c0,0.1-0.1,0.1-0.1,0.1h-0.2v0.8c0,0.1-0.1,0.1-0.1,0.1c-0.1,0-0.1-0.1-0.1-0.1V30.8z"/>
			<path fill="#FFFFFF" d="M108.3,30.7c0-0.1,0.1-0.1,0.1-0.1h0c0.1,0,0.1,0,0.1,0.1l0.3,0.5l0.3-0.5c0,0,0.1-0.1,0.1-0.1h0
				c0.1,0,0.1,0.1,0.1,0.1v0.9c0,0.1-0.1,0.1-0.1,0.1c-0.1,0-0.1-0.1-0.1-0.1V31l-0.2,0.3c0,0-0.1,0.1-0.1,0.1c0,0-0.1,0-0.1-0.1
				l-0.2-0.3v0.5c0,0.1-0.1,0.1-0.1,0.1c-0.1,0-0.1-0.1-0.1-0.1V30.7z"/>
		</g>
	</g>
</g>
</svg>
