<?xml version="1.0" encoding="utf-8"?>
<!-- Generator: Adobe Illustrator 21.0.0, SVG Export Plug-In . SVG Version: 6.00 Build 0)  -->
<svg version="1.1" id="Layer_1" xmlns="http://www.w3.org/2000/svg" xmlns:xlink="http://www.w3.org/1999/xlink" x="0px" y="0px"
	 width="280px" height="150px" viewBox="0 0 280 150" enable-background="new 0 0 280 150" xml:space="preserve">
<g>
	<g>
		<path fill="#313948" d="M45.2,64.9c0-10.1-6.6-14.9-20.1-14.9c-5.6,0-10.9,0.3-14.1,0.6c0,0-1,0.1-1,1.1v49c0,0,0,1,1,1h8.1
			c0,0,1,0,1-1V82.1c0,0,0-1,1-1h4.6c0,0,1,0,1.4,0.9l8.6,18.7c0,0,0.4,0.9,1.4,0.9h9.1c0,0,1,0,0.5-0.9L36.2,79.4
			c0,0-0.4-0.9-0.4-1c0,0,0,0.1,0,0c0,0,0-0.1,0.9-0.4C41.2,76.7,45.2,71.7,45.2,64.9 M34.9,65.6c0,4.8-3.6,7.8-9,7.8h-4.7
			c0,0-1,0-1-1V59.2c0,0,0-1,0.6-1c0.6,0,2.5-0.2,5-0.2C31.4,58,34.9,59.8,34.9,65.6"/>
		<path fill="#313948" d="M269,101.6c0,0,1,0,1-1V51.2c0,0,0-1-1-1h-7.7c0,0-1,0-1,1V70c0,0,0,1,0,2l0.3,13.4c0,0,0,1,0,1
			c0,0,0.1,0,0,0c0,0-0.1,0-0.5-0.9C255,74.2,248,62.1,241.9,51.1c0,0-0.5-0.9-1.5-0.9h-9.6c0,0-1,0-1,1v49.4c0,0,0,1,1,1h7.7
			c0,0,1,0,1-1V81c0,0,0-1,0-2l-0.3-13.3c0,0,0-1,0.1-1c0,0-0.1,0,0,0c0,0,0.1,0,0.5,0.9c3.5,7.4,9,17.2,18.8,35.1
			c0,0,0.5,0.9,1.4,0.9H269z"/>
		<path fill="#313948" d="M200.7,102.3c13.9,0,20.3-7.7,20.3-22.8V51.2c0,0,0-1-1-1h-8.3c0,0-1,0-1,1v30.3c0,8.3-3.4,12.5-9.8,12.5
			c-6.2,0-9.6-4.6-9.6-12.5V51.2c0,0,0-1-1-1H182c0,0-1,0-1,1v29.8C181.1,95.6,188.2,102.3,200.7,102.3"/>
		<path fill="#313948" d="M121.5,50.2c0,0-1,0-1.4,0.9l-4.8,11.5l-4.1,11.3h-0.1c0,0-0.1,0-0.4-0.9l-3.8-10.4l-4.7-11.5
			c0,0-0.4-0.9-1.3-0.9h-9.7c0,0-1,0-0.5,0.9l14.7,29.8c0,0,0.4,0.9,0.4,1.9v17.9c0,0,0,1,1,1h8.8c0,0,1,0,1-1V82.8c0,0,0-1,0.4-1.9
			l14.8-29.8c0,0,0.4-0.9-0.5-0.9H121.5z"/>
		<path fill="#313948" d="M164.3,80.3c0,0-1,0-1,1v10.9c0,0,0,1-0.5,1.2c-0.6,0.2-2.4,0.5-4.7,0.5c-9.5,0-15.6-6.6-15.6-17.8
			c0-11.6,6.4-17.8,16-17.8c5,0,9.9,0.8,13.1,2.1L172,53c0,0,0-1-0.9-1.4c-2-0.9-7-2-12.7-2c-16.7,0-26.5,10.9-26.5,26.6
			c0,15.2,8.4,25.9,25.6,25.9c6,0,12.3-1.3,14.9-2.3c0,0,0.9-0.3,0.9-1.3V81.3c0,0,0-1-1-1H164.3z"/>
		<path fill="#313948" d="M65.7,80.3l2.5-9.7l3-12h0.2c0,0,0.2,0,0.4,1l2.7,11.1l2.6,9.6h10.3l-8.9-29.2c0,0-0.3-1-1.3-1H66
			c0,0-1,0-1.3,1l-8.8,29.2H65.7z"/>
		<path fill="#313948" d="M89.8,88.3H79.2l3.3,12.2l0.2,0.5c0,0,0.2,0.5,1.1,0.5h9.1c0,0,1,0,0.7-0.9L89.8,88.3z"/>
		<path fill="#313948" d="M53.5,88.3l-3.7,12.3c0,0-0.3,0.9,0.7,0.9h8.8c0,0,1,0,1.2-0.9l3.2-12.3H53.5z"/>
	</g>
</g>
</svg>
