<?xml version="1.0" encoding="utf-8"?>
<!-- Generator: Adobe Illustrator 21.0.0, SVG Export Plug-In . SVG Version: 6.00 Build 0)  -->
<svg version="1.1" id="Layer_1" xmlns="http://www.w3.org/2000/svg" xmlns:xlink="http://www.w3.org/1999/xlink" x="0px" y="0px"
	 width="380px" height="200px" viewBox="0 0 380 200" enable-background="new 0 0 380 200" xml:space="preserve">
<path fill="#7E1416" d="M56.3,91.3v33.6H63h6.7v-3c0-1.6,0.1-3,0.2-3c0.2,0,0.5,0.4,0.7,0.8c0.7,1.3,3.8,4,5.6,4.9
	c5.3,2.5,12.5,2.3,18.2-0.5c9.3-4.7,13.4-13.3,12.8-26.5c-0.2-5.2-1.1-8.5-3-12.6c-2.7-5.5-7-9.2-12.6-10.6
	c-2.7-0.7-8.1-0.8-10.8-0.3c-2.9,0.6-6,2.3-8.3,4.6l-2.2,2.1V69.3V57.7h-7h-7V91.3z M86.2,86.2c4.2,1.9,6.4,6,6.7,12.7
	c0.3,7.5-2.2,12.9-7.2,15.4c-1.9,0.9-2.1,1-4.7,0.8c-2.1-0.1-3.1-0.3-4.1-0.8c-3.2-1.7-5.8-5.2-6.6-9c-0.6-2.7-0.2-9.7,0.6-12.2
	c1.2-3.7,3.4-6.2,6.6-7.3C79.4,85.1,84.2,85.3,86.2,86.2z"/>
<path fill="#7E1416" d="M110.1,91.3v33.6h7.2h7.2V91.3V57.7h-7.2h-7.2V91.3z"/>
<path fill="#696B73" d="M328.1,91.3v33.6h7h7v-15c0-16.2,0.1-17.2,1.6-19.9c2.1-3.5,5.2-5,9.8-4.8c3.9,0.2,5.8,1.3,7.1,4.1
	c0.5,1.2,0.6,2.7,0.7,18.4l0.1,17.2h7.1h7.2V107c0-10.4-0.1-18.6-0.3-19.8c-0.9-5.9-5.5-10.6-12.1-12.3c-2.8-0.7-9-0.7-11.8,0
	c-3.3,0.9-6.3,2.5-7.9,4.2l-1.5,1.6V69.2V57.7h-7h-7V91.3z"/>
<path fill="#696B73" d="M180.4,86.2c0.1,22.6,0.2,24.7,0.7,26.5c1.6,5.7,4.4,9.2,9.5,11.6c3.9,1.9,6.4,2.4,11.4,2.4
	c4.9,0,7.6-0.5,10.9-2.2c3.5-1.7,5.8-4,7.5-7.4c2.1-4.4,2.9-9.5,2.9-19.7v-5.2h-6.5h-6.5V96c0,5.7-0.5,11.4-1.1,13.6
	c-0.6,2.2-2.2,4.3-3.8,4.9c-1.2,0.5-4.7,0.6-6.4,0.1c-1.7-0.5-3.2-2.1-3.8-4c-0.4-1.4-0.5-3.6-0.7-13.7l-0.2-12h14.5h14.5v-4.8v-4.8
	h-14.5h-14.5v-6.7v-6.7h-7h-7L180.4,86.2z"/>
<path fill="#7E1416" d="M22.2,74.3C12,76.2,7.3,80.8,6.1,89.9l-0.2,1.6h6.9c6.3,0,6.9,0,6.9-0.6c0-0.8,1.2-3.2,2-4.1
	c0.4-0.4,1.5-1.2,2.5-1.6c2.6-1.2,6-1.3,8.6-0.1c2.1,1,2.7,1.5,3.5,3c1.1,2.2,0.6,3.6-1.6,4.8c-1.6,0.8-2.5,1-9.3,2
	c-10.4,1.5-13.8,2.7-16.9,5.7c-2.8,2.8-3.9,5.9-3.9,10.9c0,5.8,1.7,9,6.3,11.8c6.2,3.8,18.7,3.4,24.6-0.7c1-0.7,1.8-1.2,1.9-1
	c0.1,0.1,0.3,0.9,0.5,1.7l0.4,1.5h6.7h6.7l-0.1-18.1c-0.1-18-0.1-18.1-0.8-20.3c-2.1-6.3-6.1-9.9-12.9-11.7
	C34.3,73.9,25.6,73.6,22.2,74.3z M36.6,102.3c0.1,0.6,0.1,2.3,0.1,3.8c-0.3,4.6-1.6,6.7-5.5,8.7c-4.3,2.1-8.8,2.4-11.1,0.6
	c-2.5-2-2.2-7.3,0.6-9.4c1.5-1.1,3-1.6,8.2-2.7c2.4-0.5,5-1.2,5.8-1.5C36.4,101.1,36.3,101.1,36.6,102.3z"/>
<path fill="#7E1416" d="M145.8,74.4c-9,1.9-15.1,7.8-17.4,16.8c-1.3,5.2-1.1,13.5,0.5,19.1c1.2,4.1,2.7,6.7,5.5,9.5
	c3.9,3.9,8.2,5.7,15.5,6.4c12.4,1.2,22.3-3.9,26.2-13.7l0.8-2l-7.2-0.1c-4.9-0.1-7.2,0-7.3,0.2c-0.4,1.2-2.3,3-3.9,3.9
	c-1.7,0.9-2.1,0.9-5.3,0.9c-3.1,0-3.6-0.1-5-0.8c-2-1.1-3-1.9-4.1-3.6c-0.9-1.3-2-4.1-2.4-6.2l-0.2-1h18.1h18.1l-0.2-3.7
	c-0.7-11-3.9-18.3-10-22.4c-4.3-2.9-8-3.8-15.1-3.8C149.8,73.9,147,74.1,145.8,74.4z M156.9,85.7c3,1.5,5.4,4.7,5.9,8L163,95h-10.5
	H142l0.2-1c0.3-1.5,1.8-4.6,2.8-5.8c1-1.2,3-2.6,4.4-3.1C151.1,84.5,155.1,84.8,156.9,85.7z"/>
<path fill="#696B73" d="M243.2,74.4c-9,1.9-15.1,7.8-17.4,16.8c-1.3,5.2-1.1,13.5,0.5,19.1c1.2,4.1,2.7,6.7,5.5,9.5
	c3.9,3.9,8.2,5.7,15.5,6.4c12.4,1.2,22.3-3.9,26.2-13.7l0.8-2l-7.2-0.1c-4.9-0.1-7.2,0-7.3,0.2c-0.4,1.2-2.3,3-3.9,3.9
	c-1.7,0.9-2.1,0.9-5.3,0.9c-3.1,0-3.6-0.1-5-0.8c-2-1.1-3-1.9-4.1-3.6c-0.9-1.3-2-4.1-2.4-6.2l-0.2-1h18.1H275l-0.2-3.7
	c-0.7-11-3.9-18.3-10-22.4c-4.3-2.9-8-3.8-15.1-3.8C247.1,73.9,244.4,74.1,243.2,74.4z M254.2,85.7c3,1.5,5.4,4.7,5.9,8l0.2,1.3
	h-10.5h-10.5l0.2-1c0.3-1.5,1.8-4.6,2.8-5.8c1-1.2,3-2.6,4.4-3.1C248.4,84.5,252.4,84.8,254.2,85.7z"/>
<path fill="#696B73" d="M294.8,74.3c-9.1,2-14.7,7.7-17.2,17.5c-0.6,2.3-0.7,3.6-0.7,8.9c0,5.5,0.1,6.5,0.7,8.7
	c2.5,9.1,8.2,14.7,16.9,16.4c3.7,0.8,11.1,0.5,14.2-0.5c7.6-2.4,13-7.4,15.2-14c0.4-1.3,0.9-2.9,1-3.5l0.2-1.2h-7.2h-7.2l-0.2,1.2
	c-0.7,3.9-4.2,6.9-8.6,7.2c-3.8,0.2-6.7-1.3-8.5-4.5c-1.2-2.2-1.7-4-2.1-7.6c-0.7-6.4,0.6-11.5,3.8-15c2.1-2.3,4.2-3.1,7.3-2.9
	c3.7,0.2,6.6,2.5,7.9,6.1l0.7,1.9h7h7l-0.2-1.9c-0.9-8.5-7.3-14.9-17.1-16.9C305.2,73.8,297.2,73.8,294.8,74.3z"/>
<path fill="#696B73" d="M300.3,137c-3.4,0.8-6.8,3.6-8.4,7.1c-0.9,1.9-1,2.4-1,4.9c0,4.4,1.8,7.9,5.2,10.2c2.5,1.7,4.4,2.2,8.1,2
	c2.9-0.1,3.4-0.2,5.3-1.1c2.4-1.2,4.7-3.5,5.8-5.9c1.1-2.2,1.2-7,0.3-9.5C313.4,138.9,306.7,135.5,300.3,137z M306.4,139.9
	c1.8,0.6,3.9,2.1,5.1,3.7c2.5,3.6,2.2,8.4-0.7,11.7c-2,2.2-4.2,3.2-7.1,3.2c-4,0-7.2-2-8.8-5.7C291.5,145.6,298.6,137.6,306.4,139.9
	z"/>
<path fill="#696B73" d="M143.9,137.2c-0.1,0.1,1.6,5.5,3.7,11.9l3.8,11.7l1.3,0.1l1.3,0.1l0.5-2c0.3-1.1,1.3-5.1,2.3-9
	c1.3-5.2,1.9-6.8,2-6.2c0.1,0.4,1.2,4.4,2.3,8.9l2.1,8.1l1.3,0.1l1.3,0.1l1-3c0.5-1.7,2.2-6.9,3.8-11.6c1.5-4.7,2.8-8.7,2.8-9
	c0-0.3-0.4-0.4-1.4-0.3l-1.4,0.1l-2.9,8.9c-1.6,4.9-2.9,8.9-2.9,8.8s-1-3.5-2.1-7.6c-1.1-4.2-2.1-8.2-2.3-8.9
	c-0.4-1.3-0.4-1.3-1.7-1.3h-1.3l-2.3,8.9c-1.2,4.9-2.4,8.8-2.5,8.6c-0.1-0.2-1.5-4.1-3-8.9l-2.7-8.6h-1.3
	C144.6,137,143.9,137.1,143.9,137.2z"/>
<path fill="#696B73" d="M175.6,137.2c-0.1,0.1-0.2,5.5-0.2,12v11.8h6.7h6.7v-1.4v-1.4h-5.1h-5.1v-3.9v-3.9h5.1h5.1V149v-1.4h-5.1
	h-5.1v-3.9v-3.9h5.1h5.1v-1.4V137h-6.5C178.7,137,175.7,137.1,175.6,137.2z"/>
<path fill="#696B73" d="M193.6,137.2c-0.1,0.1-0.2,5.5-0.2,12V161l4.8-0.1c5.3-0.1,6.8-0.6,8.4-2.4c2.3-2.7,1.9-7.7-0.7-9.7
	c-1.2-0.8-1.2-0.9-0.6-1.4c1.1-1,1.6-3,1.4-4.9c-0.4-3-2-4.5-5.4-5.2C199.4,137,193.9,136.9,193.6,137.2z M201.9,140.6
	c1.3,0.7,1.9,1.8,1.7,3.3c-0.1,0.7-0.4,1.5-0.7,1.8c-0.7,0.8-2.5,1.3-4.7,1.3h-1.7v-3.6v-3.6l2.3,0.2
	C200,140.1,201.4,140.4,201.9,140.6z M203,150.6c1.3,0.6,2,1.8,2,3.4c0,2.7-1.5,3.8-5.6,4.1l-2.8,0.2v-4.3v-4.3l2.7,0.2
	C200.7,149.9,202.4,150.3,203,150.6z"/>
<path fill="#696B73" d="M263.1,149v12h1.4h1.4l0.1-9.5l0.1-9.5l3.9,9.4l3.9,9.5l1.3,0.1l1.4,0.1l3.9-9.4l3.9-9.4l0.1,9.3l0.1,9.4
	h1.6h1.6l-0.1-11.9l-0.1-11.9l-2-0.1l-2-0.1l-4,9.8c-2.7,6.6-4.1,9.6-4.3,9.3c-0.2-0.3-6.7-15.9-7.9-18.7c-0.1-0.2-0.8-0.4-2.1-0.4
	h-2V149z"/>
<path fill="#696B73" d="M320.2,137.2c-0.1,0.1-0.2,5.5-0.2,12V161l4.8-0.1c5.3-0.1,6.8-0.6,8.4-2.4c2.3-2.7,1.9-7.7-0.7-9.7
	c-1.2-0.8-1.2-0.9-0.6-1.4c1.1-1,1.6-3,1.4-4.9c-0.4-3-2-4.5-5.4-5.2C325.9,137,320.5,136.9,320.2,137.2z M328.4,140.6
	c1.3,0.7,1.9,1.8,1.7,3.3c-0.1,0.7-0.4,1.5-0.7,1.8c-0.7,0.8-2.5,1.3-4.7,1.3h-1.7v-3.6v-3.6l2.3,0.2
	C326.6,140.1,328,140.4,328.4,140.6z M329.5,150.6c1.3,0.6,2,1.8,2,3.4c0,2.7-1.5,3.8-5.6,4.1l-2.8,0.2v-4.3v-4.3l2.7,0.2
	C327.3,149.9,328.9,150.3,329.5,150.6z"/>
<path fill="#696B73" d="M338.5,137.2c-0.1,0.1-0.2,5.5-0.2,12v11.8h1.6h1.6v-12v-12h-1.3C339.4,137,338.6,137.1,338.5,137.2z"/>
<path fill="#696B73" d="M346.3,137.2c-0.1,0.1-0.2,5.5-0.2,12v11.8h5.8h5.8v-1.4v-1.4h-4.2h-4.2v-10.6V137h-1.3
	C347.1,137,346.4,137.1,346.3,137.2z"/>
<path fill="#696B73" d="M361.2,137.2c-0.1,0.1-0.2,5.5-0.2,12v11.8h6.7h6.7v-1.4v-1.4h-5.1h-5.1v-3.9v-3.9h5.1h5.1V149v-1.4h-5.1
	h-5.1v-3.9v-3.9h5.1h5.1v-1.4V137h-6.5C364.4,137,361.3,137.1,361.2,137.2z"/>
<path fill="#696B73" d="M234.2,145.4v4.4h-4.7h-4.7v1.1v1.1h4.7h4.7v4.5v4.5h1.1h1.1v-4.5v-4.5h4.5h4.5v-1.1v-1.1h-4.5h-4.5v-4.4
	V141h-1.1h-1.1V145.4z"/>
</svg>
