<?xml version="1.0" encoding="utf-8"?>
<!-- Generator: Adobe Illustrator 21.0.0, SVG Export Plug-In . SVG Version: 6.00 Build 0)  -->
<svg version="1.1" id="Layer_1" xmlns="http://www.w3.org/2000/svg" xmlns:xlink="http://www.w3.org/1999/xlink" x="0px" y="0px"
	 width="380px" height="200px" viewBox="0 0 380 200" enable-background="new 0 0 380 200" xml:space="preserve">
<g id="bnz-logo-blue-copy" transform="translate(15.000000, 9.000000)">
	<g id="Layer_1_1_">
		<g id="Group">
			<path id="Shape" fill="#203568" d="M71.4,84.3c3.6-4.1,10.8-6.8,16.9-6.6c13.5,0.5,21.9,7.9,21.9,22.5
				c0,27.9-16.6,43.6-41.3,43.6c-9.7,0-20.8-2.1-29.4-5.4l14.4-80.9c1.1-6.6,3.7-9.2,11.8-9.2c5,0,9.5,0,12,0L71.4,84.3L71.4,84.3z
				 M64.1,126c2.2,0.6,2.7,0.7,5.6,0.7c10.2,0,17.3-9.7,17.3-23.3c0-6.2-2.9-8.6-7.9-8.6c-4.4,0-9.8,3.9-10.6,5.5L64.1,126L64.1,126
				z"/>
			<path id="Shape_1_" fill="#203568" d="M181.6,140.7c0.7,1.6,2.6,3.3,6.9,3.2c4.9,0,10.4-0.8,16.4-0.8c9.4,0,12.7,0.6,25,0.8
				c4.8,0.1,7.4-1.6,8.5-6.7c0.6-3,1.3-6.5,2-11.4c-5,0.5-9.8,0.2-13.9-0.1c-5.7-0.4-11.8-0.7-16.6-0.3c2.2-3.4,5.8-7.8,11.7-13.4
				c2.8-2.7,7.9-6.9,13.3-12.8c5.4-5.9,11.7-12.7,9.8-21.4c-6,0.4-10.3,0.6-18.2,0.6c-9.8,0-22-0.6-28.5-0.6c-5.6,0-8.2,1.8-9.2,6.3
				c-0.9,3.8-2.4,12.1-2.4,12.1c1-0.3,5.3-0.5,9-0.5c3.7,0,13.6,0.3,15.8,0.6c-0.9,2.8-9.7,9.3-15.2,15.4
				c-3.4,3.8-9.2,10.3-12.1,15.2c-7.6,4-11.9,2.8-11.3-3.1l3.1-17.6c0.3-3.4,1.2-7,1.1-10.3c-0.6-11.4-8-18.5-20.6-18.5
				c-6.9,0-11.9,3.5-15.7,6.7c0,0-1-5.3-8.1-5.7c0,0-12.3,0-12.3,0l-9.9,56.2c-1.4,7.3,1.2,8.4,7.8,8.4c0.1,0,12.5,0,12.5,0
				l7.6-42.2c0.9-2,5.3-6.4,10.9-6.4c3.6,0,6.7,1.7,5.9,6.3c-0.2,1.4-3.9,22.7-3.9,22.7c-1,7.3,1.5,13.1,4,15.3
				c3.3,3.4,7.9,4.9,12.5,5.1C172.9,144.1,178.7,142.9,181.6,140.7L181.6,140.7L181.6,140.7z"/>
			<g id="Shape_2_" transform="translate(47.886002, 0.000000)">
				<path fill="#FAA71C" d="M246.4,0.6c1.6,10.2,1.6,10.2,1.6,10.2c0.2,1,1,1.7,2,1.7h10.7c-9.7,6.3-9.7,6.3-9.7,6.3
					c-0.9,0.6-1.5,1.7-1.3,2.7c0,0,1.6,10.2,1.6,10.2l0,0c-7.6-6.3-7.6-6.3-7.6-6.3c-0.7-0.6-1.9-0.6-2.8,0c0,0-9.8,6.3-9.8,6.3
					c5-10.2,5-10.2,5-10.2c0.5-1,0.3-2.1-0.4-2.7c0,0-7.6-6.3-7.6-6.3l0,0h10.7c1,0,2.1-0.7,2.6-1.6C241.3,10.8,246.4,0.6,246.4,0.6
					L246.4,0.6L246.4,0.6z"/>
				<path fill="#FAA71C" d="M213,21.8c1.6,10.2,1.6,10.2,1.6,10.2c0.2,1,1,1.7,2,1.7h10.7c-9.7,6.3-9.7,6.3-9.7,6.3
					c-0.9,0.6-1.5,1.7-1.3,2.7c0,0,1.6,10.2,1.6,10.2l0,0c-7.6-6.3-7.6-6.3-7.6-6.3c-0.7-0.6-1.9-0.6-2.8,0c0,0-9.8,6.3-9.8,6.3
					c5-10.2,5-10.2,5-10.2c0.5-1,0.3-2.1-0.4-2.7c0,0-7.6-6.3-7.6-6.3l0,0h10.7c1,0,2.1-0.7,2.6-1.6C208,31.9,213,21.8,213,21.8
					L213,21.8L213,21.8z"/>
				<path fill="#FAA71C" d="M272.3,21.8c1.6,10.2,1.6,10.2,1.6,10.2c0.2,1,1,1.7,2,1.7h10.7c-9.7,6.3-9.7,6.3-9.7,6.3
					c-0.9,0.6-1.5,1.7-1.3,2.7c0,0,1.6,10.2,1.6,10.2l0,0c-7.6-6.3-7.6-6.3-7.6-6.3c-0.7-0.6-1.9-0.6-2.8,0c0,0-9.8,6.3-9.8,6.3
					c5-10.2,5-10.2,5-10.2c0.5-1,0.3-2.1-0.4-2.7c0,0-7.6-6.3-7.6-6.3l0,0h10.7c1,0,2.1-0.7,2.6-1.6
					C267.3,31.9,272.3,21.8,272.3,21.8L272.3,21.8L272.3,21.8z"/>
				<path fill="#FAA71C" d="M234.1,65.6c1.6,10.2,1.6,10.2,1.6,10.2c0.2,1,1,1.7,2,1.7h10.7c-9.7,6.3-9.7,6.3-9.7,6.3
					c-0.9,0.6-1.5,1.7-1.3,2.7c0,0,1.6,10.2,1.6,10.2l0,0c-7.6-6.3-7.6-6.3-7.6-6.3c-0.7-0.6-1.9-0.6-2.8,0c0,0-9.8,6.3-9.8,6.3
					c5-10.2,5-10.2,5-10.2c0.5-1,0.3-2.1-0.4-2.7c0,0-7.6-6.3-7.6-6.3l0,0h10.7c1,0,2.1-0.7,2.6-1.6
					C229.1,75.8,234.1,65.6,234.1,65.6L234.1,65.6L234.1,65.6z"/>
			</g>
		</g>
	</g>
</g>
</svg>
