<?xml version="1.0" encoding="utf-8"?>
<!-- Generator: Adobe Illustrator 21.0.0, SVG Export Plug-In . SVG Version: 6.00 Build 0)  -->
<svg version="1.1" id="Layer_1" xmlns="http://www.w3.org/2000/svg" xmlns:xlink="http://www.w3.org/1999/xlink" x="0px" y="0px"
	 width="80px" height="50px" viewBox="0 0 80 50" enable-background="new 0 0 80 50" xml:space="preserve">
<g>
	<path fill="#100E0F" d="M15.6,23.5H9c-0.2,0-0.3,0.1-0.3,0.3V27c0,0.2,0.1,0.3,0.3,0.3h2.6v4c0,0-0.6,0.2-2.2,0.2
		c-1.9,0-4.6-0.7-4.6-6.5c0-5.9,2.8-6.6,5.4-6.6c2.3,0,3.2,0.4,3.8,0.6c0.2,0.1,0.4-0.1,0.4-0.3l0.7-3.1c0-0.1,0-0.2-0.1-0.2
		c-0.3-0.2-1.8-1-5.6-1c-4.4,0-9,1.9-9,11c0,9.1,5.2,10.5,9.6,10.5c3.6,0,5.9-1.6,5.9-1.6c0.1-0.1,0.1-0.2,0.1-0.2V23.8
		C15.9,23.6,15.8,23.5,15.6,23.5z"/>
	<path fill="#100E0F" d="M50,15.4c0-0.2-0.1-0.3-0.3-0.3h-3.8c-0.2,0-0.3,0.1-0.3,0.3c0,0,0,7.3,0,7.3h-5.8v-7.3
		c0-0.2-0.1-0.3-0.3-0.3h-3.8c-0.2,0-0.3,0.1-0.3,0.3V35c0,0.2,0.1,0.3,0.3,0.3h3.8c0.2,0,0.3-0.1,0.3-0.3v-8.4h5.8c0,0,0,8.4,0,8.4
		c0,0.2,0.1,0.3,0.3,0.3h3.8c0.2,0,0.3-0.1,0.3-0.3V15.4z"/>
	<g>
		<g>
			<ellipse fill="#100E0F" cx="20.3" cy="17.9" rx="2.4" ry="2.4"/>
			<path fill="#100E0F" d="M22.4,30.9c0-0.5,0-9.1,0-9.1c0-0.2-0.1-0.3-0.3-0.3h-3.7c-0.2,0-0.3,0.2-0.3,0.3c0,0,0,10.9,0,13
				c0,0.4,0.2,0.5,0.5,0.5c0,0,1.6,0,3.4,0c0.4,0,0.5-0.2,0.5-0.5C22.4,34.1,22.4,31.4,22.4,30.9z"/>
		</g>
	</g>
	<path fill="#100E0F" d="M64.2,21.5h-3.7c-0.2,0-0.3,0.1-0.3,0.3v9.6c0,0-0.9,0.7-2.3,0.7c-1.3,0-1.7-0.6-1.7-1.9c0-1.3,0-8.4,0-8.4
		c0-0.2-0.1-0.3-0.3-0.3h-3.8c-0.2,0-0.3,0.1-0.3,0.3c0,0,0,5.1,0,9c0,3.9,2.2,4.9,5.2,4.9c2.5,0,4.4-1.4,4.4-1.4s0.1,0.7,0.1,0.8
		c0,0.1,0.2,0.2,0.3,0.2l2.4,0c0.2,0,0.3-0.1,0.3-0.3l0-13.2C64.5,21.7,64.4,21.5,64.2,21.5z"/>
	<path fill="#100E0F" d="M74.4,21.1c-2.1,0-3.6,0.9-3.6,0.9v-6.6c0-0.2-0.1-0.3-0.3-0.3h-3.8c-0.2,0-0.3,0.1-0.3,0.3V35
		c0,0.2,0.1,0.3,0.3,0.3c0,0,2.6,0,2.6,0c0.1,0,0.2-0.1,0.3-0.2c0.1-0.1,0.2-0.9,0.2-0.9s1.5,1.5,4.5,1.5c3.4,0,5.4-1.7,5.4-7.8
		C79.7,21.9,76.5,21.1,74.4,21.1z M72.9,32.1c-1.3,0-2.2-0.6-2.2-0.6v-6.2c0,0,0.9-0.5,1.9-0.6c1.3-0.1,2.6,0.3,2.6,3.5
		C75.3,31.5,74.7,32.2,72.9,32.1z"/>
	<path fill="#100E0F" d="M33.2,21.5h-2.8c0,0,0-3.7,0-3.7c0-0.1-0.1-0.2-0.2-0.2h-3.8c-0.1,0-0.2,0.1-0.2,0.2v3.8
		c0,0-1.9,0.5-2.1,0.5c-0.1,0-0.2,0.2-0.2,0.3v2.4c0,0.2,0.1,0.3,0.3,0.3h2c0,0,0,2.5,0,5.8c0,4.3,3,4.7,5.1,4.7
		c0.9,0,2-0.3,2.2-0.4c0.1,0,0.2-0.2,0.2-0.3l0-2.7c0-0.2-0.1-0.3-0.3-0.3c-0.2,0-0.6,0.1-1,0.1c-1.4,0-1.9-0.6-1.9-1.5
		c0-0.8,0-5.5,0-5.5h2.8c0.2,0,0.3-0.1,0.3-0.3v-3C33.5,21.6,33.4,21.5,33.2,21.5z"/>
</g>
</svg>
