<?xml version="1.0" encoding="utf-8"?>
<!-- Generator: Adobe Illustrator 21.0.0, SVG Export Plug-In . SVG Version: 6.00 Build 0)  -->
<svg version="1.1" id="Layer_1" xmlns="http://www.w3.org/2000/svg" xmlns:xlink="http://www.w3.org/1999/xlink" x="0px" y="0px"
	 width="280px" height="150px" viewBox="0 0 280 150" enable-background="new 0 0 280 150" xml:space="preserve">
<g id="g10" transform="matrix(1.3333333,0,0,-1.3333333,0,199.76)">
	<g id="g12" transform="scale(0.1)">
		<path id="path14" fill="#5ECAE6" d="M395.5,905.6l33.3,91.5l33.3-91.5H395.5z M386.5,1098.1L262.8,773.6h84.1l22.7,62.7h117.9
			l23.3-62.7h86.2l-123.7,324.5H386.5"/>
		<path id="path16" fill="#5ECAE6" d="M604.7,773.6h85.1v324.5h-85.1V773.6z"/>
		<path id="path18" fill="#5ECAE6" d="M812.8,1098.1h-85.1V773.6h206.6l12.7,71.6H812.8V1098.1"/>
		<path id="path20" fill="#5ECAE6" d="M1388,975h-125.3v123.1H919.2l-12.7-73.9h99.9l-44.4-250.7h85.1l44.4,250.7h86V773.6h85.1
			v127.6H1388V773.6h85.1v324.5H1388V975"/>
		<path id="path22" fill="#5ECAE6" d="M187.7,966.3l-63.4,14.8c-17,3.7-27,11.6-27,25.9c0,18,16.4,28.7,40.7,28.7
			c28,0,42.8-13.7,49.7-31.6h83c-9,56-53.9,99.3-133.2,99.3c-71.9,0-124.8-41.9-124.8-105.3c0-55,35.9-79.9,83.6-90.5l62.3-13.2
			c20.6-4.7,30.7-11.6,30.7-27c0-20.1-18-31.1-43.9-31.1c-26.5,0-45.5,11-52.4,33.4H4.7C16.4,804.9,69.3,768.2,147,768.2
			c70.9,0,126.9,38,126.9,104.6C273.9,923,243.2,953.1,187.7,966.3"/>
		<path id="path24" fill="#5ECAE6" d="M1651.2,948.1h-52.8v78.3h52.8c30.1,0,43.9-15.4,43.9-39.2
			C1695.1,963.5,1681.3,948.1,1651.2,948.1z M1778.1,987.5c0,70.8-48.1,110.6-117.9,110.6h-146.8V773.6h85.1V881h29.5l67.7-107.4
			h94.1l-76.1,116.2C1753.2,904.6,1778.1,938.3,1778.1,987.5"/>
		<path id="path26" fill="#5ECAE6" d="M2012.5,1098.1V913.4c0-46-21.9-69.8-56.8-69.8c-35.4,0-57.3,23.8-57.3,69.8v184.7h-85.1V906
			c0-89.4,55.6-138,141.2-138c85.7,0,140.8,48.6,140.8,137.4v192.6H2012.5"/>
	</g>
</g>
</svg>
