<?xml version="1.0" encoding="utf-8"?>
<!-- Generator: Adobe Illustrator 21.0.0, SVG Export Plug-In . SVG Version: 6.00 Build 0)  -->
<svg version="1.1" id="Layer_1" xmlns="http://www.w3.org/2000/svg" xmlns:xlink="http://www.w3.org/1999/xlink" x="0px" y="0px"
	 width="180px" height="100px" viewBox="0 0 180 100" enable-background="new 0 0 180 100" xml:space="preserve">
<g>
	<defs>
		<rect id="SVGID_16_" x="10.9" width="159.2" height="99"/>
	</defs>
	<clipPath id="SVGID_2_">
		<use xlink:href="#SVGID_16_"  overflow="visible"/>
	</clipPath>
	<polygon clip-path="url(#SVGID_2_)" fill="#E41F28" points="10.7,0 10.7,99 170.1,99 170.1,0 10.7,0 	"/>
</g>
<g id="FISH">
	<path fill="#FFFFFF" d="M42.8,66.5c3.1,0.7,3.8,2.5,3.8,4.2c0,2.7-2,4.6-6,4.6c-4.3,0-6.2-2.1-6.2-3.7c0-0.8,0.6-1.4,1.4-1.4
		c1.8,0,1.4,2.7,4.7,2.7c1.7,0,2.7-1,2.7-1.9c0-0.6-0.3-1.3-1.4-1.5l-3.8-1c-3-0.8-3.6-2.5-3.6-4c0-3.3,3-4.5,5.9-4.5
		c2.6,0,5.7,1.5,5.7,3.4c0,0.8-0.7,1.3-1.5,1.3c-1.6,0-1.3-2.2-4.4-2.2c-1.6,0-2.4,0.7-2.4,1.7c0,1,1.2,1.4,2.3,1.6L42.8,66.5
		L42.8,66.5z"/>
	<path fill="#FFFFFF" d="M51.4,62c0-1.4,0.7-2,2.1-2c0.7,0,1.3,0.3,1.7,0.9l5.9,9.5l0,0v-8.7c0-1.1,0.6-1.6,1.6-1.6
		c1,0,1.6,0.5,1.6,1.6v11.5c0,1.3-0.6,2.1-2,2.1c-1.1,0-1.4-0.2-1.9-0.9l-5.8-9.2h0v8.5c0,1.1-0.6,1.6-1.6,1.6c-1,0-1.6-0.5-1.6-1.6
		V62L51.4,62z"/>
	<path fill="#FFFFFF" d="M75,63.7L75,63.7l-2,5.9l3.9,0L75,63.7L75,63.7z M73,61c0.3-0.8,0.8-1,1.6-1h0.8c0.8,0,1.4,0.2,1.8,1.2
		l4,11.3c0.1,0.3,0.3,0.9,0.3,1.3c0,0.8-0.7,1.5-1.6,1.5c-0.7,0-1.3-0.3-1.5-0.9l-0.9-2.5h-5.4l-0.9,2.5c-0.2,0.7-0.7,0.9-1.5,0.9
		c-0.9,0-1.6-0.6-1.6-1.5c0-0.4,0.2-1,0.3-1.3L73,61L73,61z"/>
	<path fill="#FFFFFF" d="M118,62.2c0-1.5,0.8-2,2-2h7.9c1,0,1.7,0.3,1.7,1.3c0,1.1-0.7,1.3-1.7,1.3h-6.5v3.2h5.7
		c0.9,0,1.6,0.2,1.6,1.3c0,1-0.7,1.3-1.6,1.3h-5.7v3.6l6.6,0c1,0,1.7,0.3,1.7,1.3c0,1.1-0.7,1.4-1.7,1.4l-8,0c-1.2,0-2-0.5-2-2V62.2
		L118,62.2z"/>
	<path fill="#FFFFFF" d="M137.4,66.8h3.3c1.3,0,2.5-0.3,2.5-2c0-1.6-1-2-2.4-2l-3.4,0V66.8L137.4,66.8z M134,62.3c0-1.5,0.8-2,2-2
		h5.6c4,0,5,2.2,5,4.1c0,1.6-0.9,3.2-2.5,3.5v0c1.7,0.3,2,1.5,2,3c0,1.7,0.4,2.3,0.4,3c0,0.8-0.8,1.3-1.6,1.3c-1.8,0-2-1.8-2-2.4
		c0-2.6-0.5-3.6-2.3-3.6h-3.3v4.3c0,1-0.7,1.7-1.7,1.7c-1,0-1.7-0.7-1.7-1.7V62.3L134,62.3z"/>
	<path fill="#FFFFFF" d="M89,73.6c0,1-0.7,1.7-1.7,1.7c-1,0-1.7-0.7-1.7-1.7V62.2c0-1.5,0.8-2,2-2h5.1c2.8,0,5.1,1.4,5.1,4.7
		c0,2.7-1.9,4.6-5.1,4.6h-1.5c-0.8,0-1.3-0.5-1.3-1.3c0-0.8,0.5-1.3,1.3-1.3l0.9,0c1.3,0,2.4-0.8,2.4-2.1c0-1.5-1-2.1-2.7-2.1H89
		L89,73.6L89,73.6z"/>
	<path fill="#FFFFFF" d="M105.2,73.6c0,1-0.7,1.7-1.7,1.7c-1,0-1.7-0.7-1.7-1.7V62.2c0-1.5,0.8-2,2-2l5.1,0c2.8,0,5.1,1.4,5.1,4.7
		c0,2.7-1.9,4.7-5.1,4.6h-1.5c-0.8,0-1.3-0.5-1.3-1.3c0-0.8,0.5-1.3,1.3-1.3l0.9,0c1.3,0,2.3-0.8,2.3-2.1c0-1.5-1-2.1-2.7-2.1h-2.8
		V73.6L105.2,73.6z"/>
	<g>
		<path fill="#FFFFFF" d="M109.1,46.9c-0.5,0-1-0.2-1.3-0.5l-7.1-6.8c0.5-0.5,2.2-2.1,2.7-2.6l7,6.7c0.4,0.3,0.6,0.8,0.6,1.3
			C111,46,110.2,46.9,109.1,46.9"/>
		<path fill="#FFFFFF" d="M110.4,27.5l-17,16c-2.5,2.4-6,3.8-9.9,3.8c-7.4,0-13.5-5.3-13.5-11.8c0-6.5,6-11.8,13.5-11.8
			c3.9,0,7.4,1.5,9.9,3.8l0,0l4.2,4L95,34.1l-4.1-3.9c-1.8-1.7-4.4-2.8-7.4-2.8c-5.4,0-9.8,3.6-9.8,8.1c0,4.5,4.4,8.1,9.8,8.1
			c3,0,5.7-1.1,7.5-2.9l16.8-16c0.3-0.3,0.8-0.5,1.3-0.5c1,0,1.9,0.8,1.9,1.9C111,26.6,110.8,27.1,110.4,27.5"/>
		<path fill="#FFFFFF" d="M81.3,32.2c0,1.2-0.9,1.8-1.8,1.8c-1,0-1.8-0.7-1.8-1.8c0-1.2,0.9-1.9,1.8-1.9
			C80.4,30.4,81.3,31.1,81.3,32.2"/>
		<g>
			<path fill="#FFFFFF" d="M112.7,25.2h-0.3c-0.1,0-0.1-0.1-0.1-0.1c0-0.1,0.1-0.1,0.1-0.1h0.9c0.1,0,0.1,0.1,0.1,0.1
				c0,0.1-0.1,0.1-0.1,0.1H113v1c0,0.1-0.1,0.2-0.2,0.2c-0.1,0-0.2-0.1-0.2-0.2V25.2z"/>
			<path fill="#FFFFFF" d="M113.7,25.1c0-0.1,0.1-0.2,0.2-0.2h0c0.1,0,0.1,0,0.1,0.1l0.4,0.6l0.4-0.6c0-0.1,0.1-0.1,0.1-0.1h0
				c0.1,0,0.2,0.1,0.2,0.2v1.1c0,0.1-0.1,0.2-0.2,0.2c-0.1,0-0.2-0.1-0.2-0.2v-0.7l-0.3,0.4c0,0-0.1,0.1-0.1,0.1
				c-0.1,0-0.1,0-0.1-0.1l-0.3-0.4v0.7c0,0.1-0.1,0.2-0.2,0.2c-0.1,0-0.2-0.1-0.2-0.2V25.1z"/>
		</g>
	</g>
</g>
</svg>
