<?xml version="1.0" encoding="utf-8"?>
<!-- Generator: Adobe Illustrator 21.0.0, SVG Export Plug-In . SVG Version: 6.00 Build 0)  -->
<svg version="1.1" id="Layer_1" xmlns="http://www.w3.org/2000/svg" xmlns:xlink="http://www.w3.org/1999/xlink" x="0px" y="0px"
	 width="580px" height="300px" viewBox="0 0 580 300" enable-background="new 0 0 580 300" xml:space="preserve">
<path id="XMLID_2_" fill="#603494" d="M567.6,196.4c1,1.5,1.5,2.9,1.5,4.3c0,1.5-0.5,2.9-1.5,3.9c-1,1-2.3,1.6-3.8,1.6h-8.2
	c-1.6,0-3.8-0.6-5.8-3.3l-22.5-28.4l-22.6,28.4c-0.8,1-1.5,1.7-2.3,2.2c-0.9,0.7-2.1,1-3.5,1h-7.9c-1.5,0-2.8-0.5-3.8-1.6
	c-1-1-1.5-2.4-1.5-3.9c0-1.4,0.5-2.9,1.5-4.3l0.1-0.1l28.3-36.7l-26.5-33.7c-1.1-1.6-1.7-3-1.7-4.2c0-1.5,0.6-2.9,1.7-3.9
	c1.1-1,2.3-1.5,3.6-1.5h8c2.3,0,4.2,1.2,5.8,3.5l21.2,26.6l21.2-26.6c0.8-1,1.5-1.8,2.3-2.4c0.9-0.7,2.1-1,3.5-1h7.7
	c1.4,0,2.6,0.5,3.6,1.6c1,1,1.5,2.3,1.5,3.7c0,1.6-0.5,3-1.5,4.4l-26.8,34L567.6,196.4 M463.4,196.2c6.2-6.4,9.2-16.1,9.2-29.6
	v-44.5c0-1.6-0.6-3.1-1.6-4.1c-1.1-1.1-2.4-1.7-4-1.7h-7.7c-1.6,0-3,0.6-4,1.7c-1,1.1-1.6,2.5-1.6,4.1v43.6c0,16.2-7,24.5-20.9,24.5
	c-13.9,0-20.9-8.2-20.9-24.5v-43.6c0-1.6-0.6-3.1-1.6-4.1c-1.1-1.1-2.4-1.7-4-1.7h-7.7c-1.6,0-2.9,0.6-4,1.7
	c-1.1,1.1-1.6,2.5-1.6,4.1v44.5c0,13.5,3,23.2,9.2,29.6c9,9.3,18.7,11.2,30.7,11.2S454.5,205.4,463.4,196.2 M374.8,204.6
	c1.1-1.1,1.6-2.5,1.6-4.1V77.1c0-1.6-0.5-3-1.6-4.2c-1.1-1.1-2.4-1.7-4-1.7h-7.4c-1.6,0-2.9,0.5-4,1.5c-1.1,1.1-1.7,2.5-1.7,4.3
	v123.3c0,1.6,0.6,3.1,1.6,4.1c1,1.1,2.4,1.7,4,1.7h7.4C372.4,206.2,373.8,205.6,374.8,204.6 M341.5,86.8c1.1-1,1.7-2.5,1.7-4.1v-5.5
	c0-1.6-0.6-3.1-1.6-4.1c-1.1-1.1-2.4-1.7-4-1.7h-9.9c-10.5,0-18.3,2.8-23,8.3c-4.7,5.5-7.1,13.2-7.1,22.9v13.7h-12.6
	c-1.6,0-3,0.6-4,1.7c-1.1,1.1-1.6,2.5-1.6,4.1v5.5c0,1.7,0.6,3.1,1.7,4.1c1.1,1,2.4,1.5,4,1.5h12.6v67.2c0,1.6,0.6,3.1,1.6,4.1
	c1.1,1.1,2.4,1.7,4,1.7h7.2c1.6,0,3-0.6,4-1.7c1.1-1.1,1.6-2.5,1.6-4.1v-67.2h19.8c1.6,0,2.9-0.5,4-1.5c1.1-1,1.7-2.5,1.7-4.1v-5.5
	c0-1.6-0.6-3.1-1.6-4.2c-1.1-1.1-2.4-1.7-4-1.7H316v-12.9c0-5.3,0.9-9.3,2.7-11.7c1.6-2.3,4.8-3.4,9.3-3.4h9.5
	C339.1,88.3,340.4,87.8,341.5,86.8 M218.8,71.3H154c-7.3,0-13.5,4.7-15.9,11.2l0,0c-2.3,6.6-8.6,11.3-15.9,11.3l-71.9,0
	c-9.3,0-16.9,7.6-16.9,16.9v11.2c0,9.3,7.6,16.9,16.9,16.9l56.9,0c7.3,0,13.5-4.7,15.9-11.2l0,0c2.3-6.6,8.6-11.3,16-11.3l79.9,0
	c9.3,0,16.9-7.6,16.9-16.9V88.2C235.7,78.8,228.2,71.3,218.8,71.3z M218.8,161.2H124c-7.3,0-13.6,4.7-15.9,11.2
	c-2.3,6.6-8.6,11.2-15.9,11.2l-64.4,0c-9.3,0-16.9,7.6-16.9,16.9v11.2c0,9.3,7.6,16.9,16.9,16.9h49.4c7.4,0,13.6-4.7,15.9-11.3
	c2.3-6.5,8.6-11.2,15.9-11.2h109.9c9.3,0,16.9-7.6,16.9-16.9v-11.2C235.7,168.8,228.2,161.2,218.8,161.2z"/>
</svg>
