<?xml version="1.0" encoding="utf-8"?>
<!-- Generator: Adobe Illustrator 21.0.0, SVG Export Plug-In . SVG Version: 6.00 Build 0)  -->
<svg version="1.1" id="Layer_1" xmlns="http://www.w3.org/2000/svg" xmlns:xlink="http://www.w3.org/1999/xlink" x="0px" y="0px"
	 width="180px" height="100px" viewBox="0 0 180 100" enable-background="new 0 0 180 100" xml:space="preserve">
<g id="Page-1">
	<g id="Springload-logo" transform="translate(0.000000, -0.738300)">
		<path id="Leaf" fill="#7DC265" d="M148.1,51.6c1.3,0,2-0.9,2-2.1c0-1.3-0.7-2.1-2-2.1c-1.3,0-2,0.9-2,2.1
			C146.1,50.7,146.8,51.6,148.1,51.6 M148.1,44c3.5,0,5.5,2.2,5.5,5.3c0,2.5-1.3,4.3-3.5,5c0.6,1.4,1.7,2,3.5,2
			c2.3,0,4.3-1.4,4.7-5.6c0.6-5.5,3.8-6.8,7.2-6.8c3.8,0,5.1,1.1,8.8,1.1c2,0,3.8-0.4,5.7-1.1c-1.4,5.7-5.9,10.5-12.2,10.5
			c-2.3,0-4.5-0.6-6.2-2.4c-0.7,4.9-4,7.5-8.1,7.5c-3.6,0-6.4-1.4-7.2-5.1c-2.4-0.6-3.7-2.6-3.7-5.1C142.6,46.3,144.6,44,148.1,44"
			/>
		<path id="Logotype" fill="#62626B" d="M134.7,50.1c-0.3-1.2-1.6-2.5-3.6-2.5c-1.9,0-3.3,1.4-3.3,4.2c0,2.8,1.4,4.2,3.3,4.2
			c2,0,3.3-1.3,3.6-2.5V50.1z M138.5,36.9v18.3l0.3,4h-3.5l-0.3-1.7c-0.6,1.4-2.1,2.1-4.3,2.1c-4.4,0-6.8-2.8-6.8-7.8
			c0-5,2.4-7.8,6.8-7.8c2,0,3.4,0.6,4,1.9v-9H138.5z M117.8,50.1c-0.3-1.2-1.6-2.5-3.5-2.5c-1.9,0-3.3,1.4-3.3,4.2
			c0,2.8,1.4,4.2,3.3,4.2c2,0,3.3-1.3,3.5-2.5V50.1z M121.6,48.4v6.8l0.3,4h-3.5l-0.3-1.7c-0.6,1.4-2.1,2.1-4.2,2.1
			c-4.4,0-6.8-2.8-6.8-7.8c0-5,2.4-7.8,6.8-7.8c2.2,0,3.5,0.8,4.2,2.1l0.3-1.8h3.5L121.6,48.4z M94.7,51.8c0,3.1,1.2,4.2,3.3,4.2
			c2.1,0,3.3-1.2,3.3-4.2c0-3.1-1.2-4.2-3.3-4.2C95.9,47.6,94.7,48.8,94.7,51.8L94.7,51.8z M90.8,51.8c0-5.1,2.8-7.8,7.2-7.8
			c4.5,0,7.2,2.6,7.2,7.8c0,5.1-2.8,7.8-7.2,7.8C93.5,59.6,90.8,56.9,90.8,51.8L90.8,51.8z M84.9,59.2h3.8V36.9h-3.8V59.2z
			 M74.8,55.3c2,0,3.3-1.3,3.6-2.5v-2.6c-0.3-1.3-1.6-2.6-3.6-2.6c-1.9,0-3.4,1-3.4,3.9C71.4,54.4,72.9,55.3,74.8,55.3L74.8,55.3z
			 M78.4,56.9c-0.7,1.4-2.3,1.9-4.1,1.9c-4.4,0-6.8-2.4-6.8-7.4s2.6-7.4,6.9-7.4c2.1,0,3.6,0.8,4.3,2.2l0.3-1.8h3.5l-0.3,4v10.8
			c0,4.1-3.1,5.9-7.3,5.9c-4.9,0-6.8-1.8-7-4.7l4.1-0.6c0.1,1.2,0.6,2.1,2.8,2.1c2.1,0,3.6-0.9,3.6-3V56.9z M55.5,46.3
			c0.8-1.4,2.3-2.3,4.6-2.3c3.4,0,5.4,1.7,5.4,5.2v9.9h-3.8v-9.4c0-1.5-0.8-2.2-2.3-2.2c-1.9,0-3.3,1.3-3.7,2.5v9.1H52V48.4l-0.3-4
			h3.5L55.5,46.3z M45.4,59.2h3.8V44.4h-3.8V59.2z M47.4,36.6c1.4,0,2.5,1.1,2.5,2.5c0,1.4-1.1,2.5-2.5,2.5c-1.4,0-2.5-1.1-2.5-2.5
			C44.9,37.7,46,36.6,47.4,36.6L47.4,36.6z M43.6,47.9c-2.9,0.1-4.6,1.8-5,3.1v8.2h-3.8V48.4l-0.3-4H38l0.3,2.8
			c0.8-1.7,2.3-3.1,5.3-3.1V47.9z M25.3,47.7c-1.9,0-3.3,1.3-3.5,2.5v3.5c0.3,1.2,1.6,2.5,3.5,2.5c1.9,0,3.4-1.4,3.4-4.3
			C28.7,49,27.2,47.7,25.3,47.7L25.3,47.7z M21.7,64.8H18V48.4l-0.2-4h3.5l0.3,1.8c0.7-1.5,2.7-2.2,4.4-2.2c4.5,0,6.8,2.8,6.8,7.8
			c0,5-2.3,7.8-6.8,7.8c-2.2,0-3.6-0.7-4.1-1.9V64.8z M12.1,54.9c0-1.1-1-1.3-3.2-1.5c-2.9-0.3-6-0.7-6-4.6c0-3.6,3.5-4.8,6.4-4.8
			c4.5,0,6.2,1.5,6.6,4.7l-3.9,0.5c-0.2-1.2-0.8-1.9-2.7-1.9c-1.3,0-2.3,0.3-2.3,1.3c0,1,0.8,1.1,3,1.4c3,0.3,6.2,0.7,6.2,4.6
			c0,3.8-3.2,5-6.9,5c-4.5,0-6.5-1.6-6.7-4.8l3.9-0.5c0.2,1.5,1,2.1,2.8,2.1C11.1,56.4,12.1,56.1,12.1,54.9L12.1,54.9z"/>
	</g>
</g>
</svg>
