<?xml version="1.0" encoding="utf-8"?>
<!-- Generator: Adobe Illustrator 21.0.0, SVG Export Plug-In . SVG Version: 6.00 Build 0)  -->
<svg version="1.1" id="Layer_1" xmlns="http://www.w3.org/2000/svg" xmlns:xlink="http://www.w3.org/1999/xlink" x="0px" y="0px"
	 width="280px" height="150px" viewBox="0 0 280 150" enable-background="new 0 0 280 150" xml:space="preserve">
<g>
	<g>
		<g>
			<path fill="#313948" d="M41.5,83.6c0,0.1-0.1,0.1-0.1,0.2c-0.6,0.9-1.3,1.7-2.1,2.4c-0.1,0.1-0.1,0.1-0.2,0.2
				c-0.7,0.6-1.5,1.1-2.3,1.5c-0.2,0.1-0.3,0.2-0.5,0.2c-0.3,0.1-0.7,0.3-1.1,0.4c-0.1,0-0.2,0.1-0.3,0.1c-1,0.3-2.1,0.4-3.1,0.4
				c-3,0-5.7-1.1-7.7-3c-0.1-0.1-0.3-0.3-0.4-0.4c-0.1-0.1-0.3-0.3-0.4-0.4c-0.1-0.1-0.2-0.3-0.4-0.4c-0.3-0.3-0.5-0.7-0.8-1
				c-0.1-0.1-0.1-0.2-0.2-0.3c-1.1-1.7-1.7-3.8-1.7-5.9c0-2.8,1-5.3,2.6-7.3c0.1-0.1,0.1-0.1,0.2-0.2c0.3-0.3,0.6-0.7,1-1
				c0.1-0.1,0.2-0.2,0.3-0.3c0.2-0.2,0.4-0.3,0.5-0.4c0.1-0.1,0.3-0.2,0.4-0.3c0.1-0.1,0.2-0.1,0.3-0.2c0.1-0.1,0.2-0.1,0.3-0.2
				c0.2-0.1,0.5-0.3,0.8-0.4c0.1-0.1,0.3-0.1,0.4-0.2c0.2-0.1,0.4-0.2,0.6-0.2c0.1,0,0.1,0,0.2-0.1c1.2-0.4,2.5-0.7,3.9-0.7
				c1.7,0,3.3,0.4,4.7,1c0.1,0,0.2,0.1,0.3,0.1c3.8,1.9,6.5,5.8,6.5,10.3C43.2,79.8,42.6,81.9,41.5,83.6 M45.1,68.8
				c-1.1-0.1-2.1-0.2-3.2-0.2c-2.5-2.8-6.1-4.6-10.1-4.6c-5.4,0-10,3.1-12.2,7.7c-4.4,1.5-8.5,3.4-12.3,5.8c1.7,1,3.4,2,5.1,2.8
				c-4.4,1-8.5,2.8-12.2,5.2c3.7-1.5,7.7-2.3,11.8-2.3c1.5,0,3,0.1,4.5,0.3c-0.5-1.2-0.8-2.4-1-3.7c0.3,0.8,0.6,1.5,1,2.3
				c1,0.4,2.1,0.8,3.1,1.2c2.2,4.5,6.8,7.7,12.2,7.7c4,0,7.6-1.8,10.1-4.6c1.1-0.1,2.1-0.1,3.2-0.2c-0.1-2.9-0.1-5.8-0.1-8.7
				C44.9,74.7,45,71.8,45.1,68.8"/>
		</g>
		<polygon fill="#313948" points="35.4,76.7 32.1,76.1 33.6,69 27.7,78 31.1,78.6 29.4,86.1 		"/>
		<g>
			<path fill="#313948" d="M45.8,77.6c0,6.5,0.2,13,0.7,19.4c1.2-0.2,2.3-0.5,3.4-0.8c0.4-6.2,0.7-12.4,0.7-18.6
				c0-6.3-0.2-12.5-0.7-18.6c-1.1-0.3-2.2-0.6-3.4-0.8C46.1,64.6,45.8,71,45.8,77.6"/>
			<path fill="#313948" d="M17,65.6c1.3-1.4,2.8-2.6,4.5-3.7c1.7-1.1,3.5-2,5.5-2.8c0.6-0.2,1.1-0.4,1.7-0.6
				c-0.7-0.1-1.4-0.1-2.2-0.1c-3.2,0-6.4,0.5-9.5,1.5c-2.6,0.8-5.1,2-7.4,3.5l4.9,5.5C15.2,67.7,16,66.6,17,65.6"/>
			<path fill="#313948" d="M26.5,57.4c1.5,0,3.1,0.1,4.6,0.3c1.1-0.3,2.2-0.5,3.4-0.7c-4.1-1.5-8.5-2.3-13.1-2.3
				c-3.8,0-7.5,0.6-11,1.6l1.7,4.5C16.4,58.7,21.3,57.4,26.5,57.4"/>
			<path fill="#313948" d="M67.4,77.7c0-2.1-1.7-3.8-3.8-3.8c-2.1,0-3.8,1.7-3.8,3.8c0,2.1,1.7,3.8,3.8,3.8
				C65.7,81.5,67.4,79.8,67.4,77.7"/>
			<path fill="#313948" d="M59.1,79.3c-0.2-0.5-0.3-1.1-0.3-1.6c0-0.6,0.1-1.1,0.3-1.6c-2.8,0-5.4-0.9-7.5-2.4c0,1.3,0,2.6,0,3.9
				c0,1.4,0,2.7,0,4.1C53.7,80.2,56.3,79.3,59.1,79.3"/>
			<path fill="#313948" d="M24,65.4c2.3-1.5,5-2.3,7.8-2.3c2.1,0,4.1,0.4,6,1.3c0.9,0.4,1.8,0.9,2.6,1.5c0.7,0.5,1.3,1.1,1.9,1.7
				c0.9,0.1,1.9,0.1,2.8,0.2c0.1-3.3,0.3-6.6,0.6-9.8l0-0.1c-1.8-0.3-3.6-0.4-5.5-0.4c-13,0-23.8,6.6-26.6,15.5
				c1.8-0.8,3.6-1.5,5.4-2.2C20.1,68.7,21.8,66.8,24,65.4"/>
			<path fill="#313948" d="M45.6,97.1L45.6,97.1c-0.3-3.3-0.4-6.6-0.6-9.9c-0.9,0.1-1.8,0.2-2.8,0.2c-0.6,0.6-1.2,1.2-1.9,1.7
				c-0.8,0.6-1.7,1.1-2.6,1.5c-1.9,0.9-3.9,1.3-6,1.3c-2.8,0-5.5-0.8-7.8-2.3c-2.2-1.4-3.9-3.3-5.1-5.6c-0.5-0.2-0.9-0.3-1.4-0.5
				l0.5,1.2l-1.6-0.2c-0.6-0.1-1.3-0.2-1.9-0.2c1.5,3,3.9,5.6,7,7.7l0,0c1.9,2,3,4.7,3,7.7c0,1.9-0.5,3.6-1.3,5.2
				c-0.2,0.3-0.1,0.9,0.4,1.2c1.4,0.6,2.9,0.9,4.5,0.9c0.7,0,1.4-0.1,2.1-0.2l0,0c-0.2-0.8-0.2-1.5-0.2-2.3c0-3,1.1-5.7,3-7.7l0,0
				c1.2,0.2,2.5,0.4,3.8,0.5l0,0c0,1.6,0.4,3.1,1.1,4.5l1-1c-0.3-0.9-0.5-1.9-0.5-2.9c0-0.2,0-0.3,0-0.5l-0.1,0c0.6,0,1.2,0,1.8,0
				C42,97.5,43.9,97.4,45.6,97.1"/>
		</g>
	</g>
	<g>
		<path fill="#313948" d="M104.6,69.1c0-7.8-5.1-11.6-15.6-11.6c-4.3,0-8.5,0.2-10.9,0.4c0,0-0.8,0.1-0.8,0.8v38c0,0,0,0.8,0.8,0.8
			h6.3c0,0,0.8,0,0.8-0.8V82.4c0,0,0-0.8,0.8-0.8h3.5c0,0,0.8,0,1.1,0.7l6.7,14.5c0,0,0.3,0.7,1.1,0.7h7.1c0,0,0.8,0,0.4-0.7
			l-8.2-16.6c0,0-0.3-0.7-0.3-0.7c0,0,0,0.1,0,0c0,0,0-0.1,0.7-0.3C101.5,78.2,104.6,74.3,104.6,69.1 M96.6,69.6c0,3.8-2.8,6-7,6
			h-3.7c0,0-0.8,0-0.8-0.8V64.6c0,0,0-0.8,0.5-0.8c0.5,0,1.9-0.1,3.8-0.1C93.9,63.7,96.6,65.1,96.6,69.6"/>
		<path fill="#313948" d="M278.2,97.5c0,0,0.8,0,0.8-0.8V58.4c0,0,0-0.8-0.8-0.8h-6c0,0-0.8,0-0.8,0.8V73c0,0,0,0.8,0,1.5l0.2,10.4
			c0,0,0,0.8,0,0.8c0,0,0.1,0,0,0c0,0-0.1,0-0.4-0.7c-4-8.7-9.4-18.1-14.1-26.6c0,0-0.4-0.7-1.1-0.7h-7.5c0,0-0.8,0-0.8,0.8v38.3
			c0,0,0,0.8,0.8,0.8h5.9c0,0,0.8,0,0.8-0.8V81.5c0,0,0-0.8,0-1.5l-0.2-10.3c0,0,0-0.8,0.1-0.8c0,0-0.1,0,0,0c0,0,0.1,0,0.4,0.7
			c2.7,5.7,7,13.3,14.6,27.2c0,0,0.4,0.7,1.1,0.7H278.2z"/>
		<path fill="#313948" d="M225.3,98.1c10.8,0,15.8-6,15.8-17.7v-22c0,0,0-0.8-0.8-0.8h-6.4c0,0-0.8,0-0.8,0.8V82
			c0,6.4-2.6,9.7-7.6,9.7c-4.8,0-7.5-3.6-7.5-9.7V58.4c0,0,0-0.8-0.8-0.8h-6.5c0,0-0.8,0-0.8,0.8v23.1
			C210,92.8,215.6,98.1,225.3,98.1"/>
		<path fill="#313948" d="M163.8,57.7c0,0-0.8,0-1,0.7l-3.7,8.9l-3.2,8.8h-0.1c0,0-0.1,0-0.3-0.7l-3-8.1l-3.6-8.9c0,0-0.3-0.7-1-0.7
			h-7.5c0,0-0.8,0-0.4,0.7l11.4,23.1c0,0,0.3,0.7,0.3,1.4v13.8c0,0,0,0.8,0.8,0.8h6.8c0,0,0.8,0,0.8-0.8V82.9c0,0,0-0.8,0.3-1.4
			l11.5-23.1c0,0,0.3-0.7-0.4-0.7H163.8z"/>
		<path fill="#313948" d="M197.1,81c0,0-0.8,0-0.8,0.8v8.5c0,0,0,0.8-0.4,0.9c-0.4,0.1-1.9,0.4-3.6,0.4c-7.4,0-12.1-5.1-12.1-13.8
			c0-9,5-13.8,12.4-13.8c3.9,0,7.7,0.6,10.2,1.7l0.3-5.7c0,0,0-0.8-0.7-1.1c-1.6-0.7-5.4-1.5-9.9-1.5c-12.9,0-20.5,8.4-20.5,20.7
			c0,11.8,6.5,20.1,19.9,20.1c4.7,0,9.5-1,11.6-1.8c0,0,0.7-0.3,0.7-1V81.7c0,0,0-0.8-0.8-0.8H197.1z"/>
		<path fill="#313948" d="M120.6,81l1.9-7.5l2.4-9.3h0.2c0,0,0.2,0,0.3,0.8l2.1,8.6l2,7.5h8l-6.9-22.7c0,0-0.2-0.8-1-0.8h-8.7
			c0,0-0.8,0-1,0.8L113,81H120.6z"/>
		<path fill="#313948" d="M139.3,87.2H131l2.5,9.5l0.1,0.4c0,0,0.1,0.4,0.9,0.4h7.1c0,0,0.8,0,0.5-0.7L139.3,87.2z"/>
		<path fill="#313948" d="M111.1,87.2l-2.9,9.6c0,0-0.2,0.7,0.5,0.7h6.8c0,0,0.8,0,0.9-0.7l2.5-9.6H111.1z"/>
	</g>
</g>
</svg>
