<svg xmlns="http://www.w3.org/2000/svg" xmlns:xlink="http://www.w3.org/1999/xlink" version="1.1" x="0px" y="0px" viewBox="0 0 100 125" enable-background="new 0 0 100 100" xml:space="preserve"><path d="M5,47.994c0-0.985,0-1.971,0-2.956c0.17-0.906,0.301-1.822,0.519-2.716  c0.315-1.293,0.618-1.506,1.938-1.557c0.131-0.005,0.261-0.031,0.387-0.046c0.206-1.272,0.348-2.515,0.615-3.73  c1.031-4.701,2.077-9.398,3.19-14.08c0.13-0.545,0.621-1.115,1.102-1.441c0.75-0.509,1.597-0.971,2.469-1.187  c2.749-0.681,5.516-1.306,8.302-1.812c1.113-0.202,2.308-0.151,3.435,0.008c0.65,0.092,1.248,0.61,1.849,0.971  c0.587,0.354,1.298,0.638,1.687,1.155c0.844,1.123,1.517,2.376,2.261,3.574c0.187,0.302,0.38,0.6,0.646,1.018  c0.612-0.649,1.028-1.275,1.606-1.65c0.581-0.377,1.324-0.503,1.996-0.742c0.049-0.017,0.087-0.065,0.133-0.092  c2.78-1.585,5.78-2.613,8.896-3.222c1.693-0.331,3.459-0.317,5.194-0.37c0.346-0.011,0.848,0.294,1.034,0.601  c1.094,1.807,2.171,3.629,3.147,5.502c0.944,1.811,1.757,3.689,2.632,5.536c0.214,0.452,0.443,0.757,1.066,0.488  c0.268-0.116,0.813,0.019,1.027,0.239c0.912,0.938,1.588,2.015,1.607,3.403c0.002,0.174,0.291,0.463,0.479,0.492  c0.367,0.056,0.793,0.056,1.129-0.082c0.569-0.234,0.991-0.054,1.3,0.356c0.295,0.39,0.441,0.889,0.71,1.302  c0.669,1.029,1.304,2.093,2.085,3.031c0.47,0.565,0.679,1.044,0.22,1.854c0.542-0.111,0.921-0.133,1.255-0.267  c0.766-0.309,1.23,0.061,1.63,0.634c0.109,0.156,0.216,0.315,0.308,0.481c0.784,1.417,2.378,2.29,2.696,4.019  c0.005,0.025,0.015,0.049,0.028,0.091c-0.187,0.098-0.376,0.198-0.565,0.298c1.242-0.283,2.043,0.251,2.722,1.217  c0.575,0.818,1.304,1.529,1.881,2.346c0.206,0.291,0.206,0.755,0.221,1.144c0.009,0.241-0.13,0.488-0.145,0.538  c0.832,0.326,1.775,0.432,2.303,0.957c1.128,1.12,2.037,2.461,3.047,3.702c0.159,0.195,0.349,0.404,0.57,0.499  c0.468,0.201,0.969,0.324,1.453,0.49c3.514,1.204,6.354,3.178,7.789,6.779c0.062,0.154,0.348,0.26,0.549,0.311  c1.058,0.265,1.625,0.939,1.595,2.046c-0.044,1.611-0.189,3.221-0.179,4.831c0.005,0.804-0.125,1.411-0.578,2.147  c-2.005,3.257-5.363,4.422-8.6,5.706c-1.431,0.567-3.129,0.431-4.608,0.913c-1.596,0.521-3.187,0.58-4.816,0.629  c-0.638,0.019-1.271,0.204-1.907,0.313c-0.657,0-1.314,0-1.971,0c-1.621-0.274-3.243-0.543-4.862-0.824  c-4.381-0.76-8.599-2.099-12.594-4.01c-5.317-2.544-10.56-5.245-15.792-7.96c-3.967-2.059-7.872-4.236-11.794-6.381  c-2.284-1.249-4.492-2.647-6.829-3.784c-5.056-2.458-9.863-5.326-14.526-8.448c-0.381-0.255-0.92-0.47-0.668-1.198  C5.376,48.771,5.103,48.353,5,47.994z M92.292,69.239c-0.093,0.036-0.201,0.061-0.291,0.115c-3.21,1.926-6.641,3.357-10.237,4.345  c-1.154,0.317-2.43,0.177-3.647,0.275c-2.911,0.234-5.773-0.067-8.585-0.817c-2.146-0.572-4.253-1.3-6.412-1.814  c-5.083-1.209-9.795-3.343-14.433-5.664c-3.054-1.528-6.084-3.107-9.093-4.723c-4.019-2.158-8.008-4.374-12.009-6.567  c-0.92-0.504-1.837-1.013-2.98-1.644c-0.054,2.104-0.119,3.956-0.129,5.809c-0.001,0.256,0.207,0.624,0.428,0.754  c1.895,1.113,3.793,2.225,5.732,3.259c6.276,3.348,12.561,6.682,18.86,9.986c4.871,2.555,9.854,4.836,15.293,5.941  c2.119,0.431,4.212,1.058,6.414,0.854c1.626-0.15,3.26-0.511,4.874-0.43c2.442,0.122,4.774-0.447,7.076-0.967  c3.422-0.774,6.42-2.507,8.81-5.158c0.137-0.152,0.309-0.351,0.315-0.533C92.309,71.26,92.292,70.26,92.292,69.239z M71.404,72.455  c0.648,0.063,1.375,0.169,2.105,0.199c3.002,0.126,6.002,0.535,8.963-0.508c2.911-1.024,5.762-2.156,8.441-3.694  c0.413-0.237,0.788-0.542,1.206-0.833c-0.669-0.932-1.244-1.802-1.89-2.616c-1.045-1.318-2.008-2.742-3.247-3.853  c-1.106-0.992-2.537-1.623-3.83-2.405c-0.078-0.047-0.219-0.053-0.304-0.016c-0.715,0.312-1.177-0.152-1.555-0.594  c-0.489-0.571-1.006-0.605-1.591-0.284c-1.691,0.931-3.436,1.786-5.036,2.856c-1.417,0.948-2.82,1.986-3.703,3.528  c-0.128,0.223-0.381,0.464-0.357,0.67c0.144,1.217,0.395,2.422,0.527,3.64C71.271,69.814,71.314,71.09,71.404,72.455z   M30.668,27.349c-0.351-0.763-0.694-1.685-1.182-2.523c-0.512-0.879-1.09-1.743-1.77-2.495c-1.05-1.162-2.456-0.813-3.752-0.595  c-1.487,0.249-2.94,0.718-4.431,0.919c-0.717,0.097-1.147,0.347-1.425,0.948c-0.257,0.557-0.748,1.163-0.676,1.684  c0.211,1.523,0.512,3.064,1.03,4.507c1.25,3.486,3.594,6.105,6.808,7.936c0.491,0.28,1.012,0.67,1.536,0.699  c2.109,0.116,4.232,0.556,6.336-0.099c0.241-0.075,0.536,0.047,0.799,0.015c0.221-0.027,0.476-0.098,0.629-0.242  c0.085-0.08,0.049-0.376-0.026-0.528c-0.527-1.069-1.046-2.143-1.628-3.182c-1.062-1.893-1.781-3.918-2.369-5.993  C30.466,28.114,30.614,27.763,30.668,27.349z M53.722,29.506c-0.858-1.702-1.734-3.389-2.559-5.1  c-0.296-0.615-0.725-0.837-1.355-0.714c-3.727,0.726-7.173,2.102-10.214,4.418c-0.388,0.295-0.557,0.583-0.315,1.103  c0.642,1.38,1.184,2.807,1.838,4.181c0.3,0.63,0.767,1.18,1.187,1.811C46.155,33.283,49.935,31.397,53.722,29.506z M21.622,50.904  c-1.886-1.107-3.896-2.278-5.898-3.463c-1.795-1.062-3.583-2.135-5.371-3.21c-0.324-0.195-0.603-0.501-0.949-0.618  c-0.507-0.171-1.056-0.217-1.654-0.329c-0.004,0.01-0.108,0.182-0.13,0.363c-0.171,1.431-0.305,2.866-0.493,4.294  c-0.119,0.904,0.141,1.515,1.063,1.792c0.278,0.083,0.52,0.287,0.775,0.442c3.385,2.053,6.766,4.112,10.158,6.153  c0.593,0.357,1.233,0.635,1.802,0.925C21.159,55.127,21.384,53.078,21.622,50.904z M60.318,54.095  c-0.552-0.424-1.093-0.696-1.431-1.126c-0.823-1.048-1.732-0.83-2.735-0.38c-3.11,1.395-6.071,3.044-8.835,5.047  c-0.918,0.665-1.898,1.245-2.83,1.893c-0.567,0.395-1.096,0.844-1.765,1.365c1.555,0.839,2.924,1.597,4.32,2.3  c0.151,0.076,0.518-0.119,0.698-0.283c0.906-0.824,1.729-1.747,2.681-2.513C53.447,57.961,56.681,55.835,60.318,54.095z   M46.912,43.518c-0.932-0.746-1.733-1.437-2.594-2.041c-0.212-0.148-0.67-0.119-0.932,0.005c-4.652,2.199-8.849,5.143-13.067,8.049  c-1.365,0.941-2.703,1.921-4.05,2.881c1.001,0.575,2.07,1.189,3.129,1.798c0.629-0.538,1.174-1.086,1.798-1.522  c3.316-2.317,6.621-4.652,9.992-6.886C42.874,44.684,44.658,43.681,46.912,43.518z M38.019,58.584  c1.191-1.135,2.257-2.26,3.435-3.251c3.063-2.576,6.284-4.938,9.873-6.746c0.46-0.232,0.99-0.325,1.456-0.472  c-0.15-0.117-0.418-0.266-0.606-0.484c-1.443-1.675-2.987-1.289-4.572-0.252c-0.046,0.03-0.089,0.063-0.135,0.093  c-2.745,1.818-5.522,3.59-8.225,5.47c-1.622,1.128-3.128,2.423-4.743,3.687C35.794,57.347,36.996,58.015,38.019,58.584z   M63.585,36.796c-4.363,1.238-8.231,3.352-11.568,6.604c1.263,0.845,2.434,1.578,3.541,2.396c0.413,0.305,0.665,0.229,0.989-0.036  c0.675-0.552,1.344-1.111,2.032-1.647c1.65-1.287,3.284-2.623,5.404-3.062c0.725-0.15,1.483-0.14,2.352-0.214  C65.388,39.445,64.509,38.154,63.585,36.796z M71.27,46.117c-0.572-0.862-1.067-1.64-1.602-2.389  c-0.115-0.16-0.41-0.339-0.565-0.297c-0.648,0.176-1.353,0.316-1.895,0.68c-2.363,1.592-4.676,3.257-7.072,4.942  c0.81,0.762,1.52,1.43,2.253,2.12C65.053,48.938,67.79,46.957,71.27,46.117z M67.287,56.183c2.019-1.771,4.085-3.298,6.559-4.192  c0.662-0.24,1.304-0.536,1.95-0.805c-0.547-0.773-1.011-1.411-1.455-2.063c-0.282-0.414-0.591-0.603-1.087-0.324  c-0.988,0.555-2.011,1.05-2.98,1.636c-1.764,1.067-3.499,2.181-5.293,3.305C65.812,54.62,66.539,55.39,67.287,56.183z   M47.021,39.227c0.704,0.63,1.372,1.227,1.951,1.746c1.394-1.138,2.693-2.305,4.1-3.323c2.061-1.49,4.157-2.964,6.834-3.199  c-0.176-0.353-0.323-0.734-0.548-1.062c-0.11-0.161-0.38-0.332-0.553-0.309c-0.721,0.096-1.44,0.234-2.147,0.41  C52.925,34.419,49.96,36.651,47.021,39.227z M80.784,56.736c-0.513-0.694-0.872-1.195-1.247-1.683  c-0.796-1.037-1.024-1.129-2.167-0.484c-1.825,1.03-3.619,2.119-5.405,3.217c-0.692,0.425-1.327,0.942-2.017,1.438  c0.533,0.721,1.016,1.372,1.538,2.078C74.123,58.986,76.835,56.829,80.784,56.736z M23.537,58.535  c-0.552-1.966-0.439-3.836-0.142-5.702c0.112-0.703-0.168-1.052-0.96-1.211c-0.169,1.569-0.352,3.08-0.489,4.595  C21.808,57.753,21.894,57.858,23.537,58.535z M55.295,46.887c-1.339-0.914-2.584-1.764-3.833-2.617  c-0.501,0.488-0.109,0.781,0.224,1.037c0.962,0.741,1.942,1.458,2.946,2.207C54.837,47.322,55.028,47.14,55.295,46.887z   M61.576,51.92c-0.799-0.719-1.541-1.386-2.306-2.076c-0.273,0.245-0.513,0.461-0.8,0.719c0.867,0.709,1.7,1.391,2.563,2.096  C61.231,52.389,61.373,52.195,61.576,51.92z M48.253,42.266c0.068-0.067,0.136-0.135,0.204-0.202  c-0.527-0.859-1.364-1.443-2.098-2.171c-0.18,0.201-0.3,0.335-0.411,0.459C46.737,41.005,47.495,41.635,48.253,42.266z   M63.504,54.695c1.055,1.003,1.918,1.824,2.782,2.646c0.062-0.06,0.123-0.121,0.185-0.181c-0.759-0.822-1.511-1.65-2.288-2.454  C64.105,54.625,63.872,54.695,63.504,54.695z M68.942,60.062c-0.059,0.05-0.119,0.1-0.178,0.15c0.4,0.73,0.8,1.459,1.215,2.217  c0.182-0.136,0.345-0.257,0.549-0.408C69.979,61.342,69.46,60.702,68.942,60.062z"/></svg>