<svg xmlns="http://www.w3.org/2000/svg" xmlns:xlink="http://www.w3.org/1999/xlink" version="1.1" x="0px" y="0px" viewBox="0 0 100 125" enable-background="new 0 0 100 100" xml:space="preserve"><path d="M12.521,43.821c1.514-2.194,4.041-2.533,6.274-3.358c5.167-1.907,10.369-3.722,15.465-5.541  c0.275-3.848,0.531-7.624,0.823-11.396c0.104-1.34,0.271-2.677,0.462-4.008c0.044-0.307,0.241-0.658,0.477-0.861  c4.228-3.644,8.453-7.292,12.726-10.882c1.098-0.923,2.363-1.647,3.541-2.477c0.799-0.563,1.706-0.303,2.099,0.596  c2.752,6.306,5.502,12.613,8.274,18.91c0.77,1.749,0.791,1.686,2.656,1.2c5.874-1.53,11.76-3.009,17.634-4.538  c0.931-0.242,1.807-0.695,2.737-0.941c0.49-0.13,1.042-0.023,1.567-0.023c0.074,0.107,0.147,0.214,0.221,0.321  c-1.604,2.629-3.158,5.291-4.823,7.881c-2.965,4.611-5.928,9.227-9.047,13.734c-0.807,1.166-0.985,2.036-0.577,3.378  c1.774,5.837,4.116,11.445,6.49,17.051c1.252,2.958,2.274,6.012,3.419,9.016c0.356,0.935,0.769,1.85,1.165,2.77  c0.41,0.956-0.498,2.219-1.527,2.045c-1.99-0.337-3.873-0.924-5.705-1.865c-4.629-2.377-9.353-4.567-14.037-6.838  c-0.873-0.423-1.734-0.872-2.831-1.425c-2.094,2.812-4.275,5.642-6.349,8.549c-2.84,3.98-5.604,8.014-8.39,12.032  c-1.276,1.84-2.487,3.726-3.803,5.535c-0.611,0.84-1.403,1.547-2.112,2.315c-0.601,0-1.202,0-1.804,0  c-2.954-3.763-5.967-7.483-8.838-11.308c-1.341-1.787-2.435-3.765-3.583-5.69c-0.317-0.531-0.654-1.208-0.594-1.777  c0.197-1.882,0.536-3.753,0.883-5.616c0.957-5.147,1.945-10.288,2.862-15.124c-5.363-3.433-10.559-6.759-15.755-10.084  C12.521,44.873,12.521,44.347,12.521,43.821z M18.508,44.948c0.492,0.314,0.762,0.513,1.054,0.669  c4.661,2.485,9.336,4.942,13.983,7.454c2.196,1.187,4.353,2.451,6.489,3.744c0.408,0.247,0.575,1.053,0.962,1.145  c0.87,0.207,0.58,0.667,0.502,1.176c-0.43,2.8-0.873,5.598-1.252,8.405c-0.27,2-0.438,4.014-0.667,6.02  c-0.216,1.89-0.477,3.775-0.676,5.666c-0.235,2.231-0.44,4.466-0.627,6.702c-0.113,1.349-0.164,2.704-0.244,4.056  c0.133,0.054,0.267,0.108,0.4,0.161c6.684-9.601,13.368-19.202,20.136-28.924c6.44,3.149,12.704,6.211,19.241,9.407  c-0.344-1.377-0.545-2.47-0.891-3.515c-1.387-4.182-2.782-8.361-4.245-12.517c-1.216-3.454-2.541-6.87-3.791-10.312  c-0.128-0.352-0.205-0.838-0.062-1.149c0.356-0.775,0.809-1.516,1.3-2.218c3.613-5.168,7.244-10.322,10.869-15.481  c-0.514-0.132-0.835-0.087-1.142,0.004c-5.548,1.648-11.095,3.303-16.643,4.952c-1.761,0.523-2.059,0.442-2.825-1.241  c-2.479-5.446-4.915-10.913-7.355-16.377c-0.276-0.618-0.474-1.272-0.709-1.909c-0.378,0.303-0.532,0.59-0.589,0.896  c-0.487,2.635-0.974,5.269-1.427,7.91c-0.881,5.14-1.73,10.285-2.633,15.421c-0.059,0.334-0.413,0.772-0.725,0.876  c-0.776,0.26-1.627,0.291-2.414,0.527c-3.062,0.921-6.124,1.85-9.163,2.845C29.795,41.166,24.241,43.039,18.508,44.948z"/></svg>