<svg xmlns="http://www.w3.org/2000/svg" xmlns:xlink="http://www.w3.org/1999/xlink" version="1.1" x="0px" y="0px" viewBox="0 0 100 125" enable-background="new 0 0 100 100" xml:space="preserve"><path d="M95,49.502c-0.179,1.437-0.317,2.879-0.544,4.308c-0.5,3.153-1.165,6.272-2.567,9.167  c-2.119,4.377-5.746,6.911-10.342,8.114c-6.342,1.659-12.018,0.013-17.18-3.756c-2.793-2.039-5.023-4.645-6.772-7.604  c-1.489-2.518-2.782-5.154-4.104-7.767c-0.725-1.434-1.985-2.059-3.751-1.692c-0.145,0.03-0.284,0.087-0.429,0.114  c-1.598,0.298-1.513,0.358-1.891,1.921c-0.567,2.345-1.2,4.687-2.018,6.954c-1.232,3.417-2.576,6.8-4.541,9.89  c-3.274,5.145-7.783,8.357-13.914,9.307c-7.373,1.143-13.01-1.598-17.339-7.404c-2.346-3.147-3.611-6.77-4.253-10.621  C5.236,59.706,5.119,58.979,5,58.252c0-0.595,0-1.19,0-1.786c0.319-1.492,0.638-2.984,0.956-4.477  c0.483-2.263,1.8-4.144,2.778-6.186c3.217-6.72,7.963-12.113,14.002-16.385c1.046-0.74,2.377-1.093,3.608-1.54  c0.229-0.083,0.62,0.215,0.911,0.383c0.381,0.22,0.743,0.475,1.101,0.732c2.587,1.856,3.807,4.407,3.771,7.561  c-0.01,0.828-0.228,1.541-1.264,1.757c-0.631,0.132-1.173,0.684-1.804,0.819c-1.546,0.33-3.194-0.529-3.869-1.974  c-0.361-0.772-0.58-1.61-0.925-2.595c-2.264,2.681-4.502,5.33-6.919,8.191c1.18-0.17,2.12-0.257,3.038-0.446  c6.761-1.394,13.505-2.87,20.28-4.189c2.774-0.54,5.607-0.789,8.42-1.11c3.907-0.445,7.816-0.867,11.731-1.23  c2.156-0.2,4.325-0.336,6.489-0.363c4.461-0.055,8.923-0.023,13.385-0.012c0.43,0.001,0.86,0.107,1.558,0.2  c-3.414-3.08-6.745-5.89-9.702-9.08c0.104-0.114,0.208-0.228,0.312-0.343c3.717,2.964,7.824,5.476,10.806,9.461  c0.845,0.228,1.846,0.499,2.848,0.77c-0.01,0.095-0.019,0.189-0.029,0.284c-0.242,0.042-0.483,0.119-0.725,0.12  c-1.488,0.008-2.976-0.006-4.464-0.005c-5.918,0.003-11.838-0.081-17.753,0.052c-2.827,0.064-5.643,0.554-8.465,0.83  c-2.089,0.204-4.188,0.313-6.27,0.574c-2.978,0.373-5.946,0.829-8.913,1.278c-2.937,0.444-5.873,0.893-8.8,1.397  c-2.638,0.455-5.259,1.008-7.895,1.478c-2.057,0.367-4.122,0.686-6.189,0.994c-0.345,0.051-0.715-0.064-1.249-0.121  c2.579-4.146,5.332-7.815,9.399-10.256c0.066,0.054,0.132,0.109,0.198,0.163c-0.221,0.327-0.442,0.654-0.603,0.892  c0.317,0.431,0.616,0.821,0.897,1.223c0.34,0.485,0.616,1.023,1.007,1.462c1.174,1.319,2.193,1.381,3.468,0.161  c0.223-0.213,0.215-0.77,0.165-1.148c-0.367-2.744-1.768-4.93-4.332-6.72c-1.75,1.369-3.615,2.688-5.321,4.189  c-4.703,4.137-8.462,9.05-11.476,14.525c-0.329,0.598-0.205,1.437-0.33,2.158c-0.313,1.802-0.627,3.604-0.981,5.398  c-0.41,2.071,0.008,4.081,0.439,6.077c0.892,4.136,2.678,7.852,5.497,11.029c2.4,2.705,5.45,4.306,9.037,4.528  c6.256,0.385,11.349-2.052,15.22-6.946c3.213-4.063,4.845-8.897,6.418-13.741c0.52-1.602,1.019-3.212,1.469-4.835  c0.442-1.594,1.556-2.387,3.093-2.443c0.999-0.036,2.017,0.275,3.018,0.474c2.291,0.456,3.027,2.413,4.006,4.157  c1.478,2.633,2.842,5.352,4.555,7.825c2.681,3.871,6.077,6.988,10.786,8.244c6.143,1.638,11.62,0.364,16.272-4.034  c1.952-1.845,2.715-4.347,3.353-6.843c0.882-3.449,1.466-6.948,1.321-10.541c-0.136-3.363-0.508-6.679-1.683-9.855  c-0.178-0.48-0.509-0.951-0.886-1.301c-2.651-2.465-5.298-4.937-8.016-7.327c-2.339-2.056-4.746-4.038-7.18-5.98  c-0.772-0.616-1.723-1.013-2.607-1.481c-0.145-0.076-0.418-0.073-0.55,0.016c-2.053,1.374-4.123,2.743-5.163,5.13  c-0.185,0.425-0.319,0.898-0.354,1.358c-0.064,0.844,0.132,0.991,0.903,0.656c1.245-0.541,2.46-1.151,3.694-1.718  c0.526-0.241,1.068-0.447,1.603-0.669c0.058,0.089,0.115,0.178,0.173,0.268c-0.585,0.502-1.147,1.036-1.762,1.5  c-1.143,0.863-2.366,1.554-3.824,1.775c-1.601,0.242-2.625-0.785-2.236-2.326c0.405-1.601,1.25-2.977,2.494-4.02  c1.306-1.095,2.75-2.026,4.134-3.029c0.179,0,0.357,0,0.536,0c0.101,0.056,0.197,0.151,0.302,0.161  c1.721,0.165,3.264,0.795,4.619,1.843c1.949,1.507,3.895,3.021,5.785,4.599c3.121,2.607,6.221,5.241,9.276,7.926  c0.74,0.65,1.492,1.454,1.84,2.343c0.575,1.468,0.865,3.055,1.2,4.607c0.198,0.919,0.251,1.869,0.37,2.805  C95,46.883,95,48.192,95,49.502z M24.566,73.932c3.314-0.621,6.217-2.199,8.733-4.33c4.049-3.429,6.907-7.774,8.844-12.711  c0.85-2.167,1.094-4.444,1.317-6.751c0.223-2.306-0.446-4.231-1.902-5.9c-0.469-0.538-1.263-1.086-1.925-1.109  c-2.296-0.077-4.662-0.237-6.889,0.201c-6.179,1.214-12.24,2.905-17.887,5.808c-0.31,0.159-0.643,0.343-0.858,0.604  c-2.117,2.57-2.806,5.649-2.893,8.857c-0.102,3.745,0.904,7.268,3.074,10.313c2.136,2.997,4.928,5.11,8.874,5.031  C23.558,73.944,24.078,74.023,24.566,73.932z M22.786,60.601c2.649-3.964,5.344-7.901,7.886-11.933  c0.745-1.183,1.712-1.338,3.008-1.507c-0.261,0.539-0.462,0.955-0.663,1.369c-2.657,5.461-5.417,10.879-7.359,16.655  c-0.589,1.752-1.139,3.518-1.665,5.291c-0.161,0.541-0.459,0.699-0.969,0.635c-2.067-0.261-4.084-0.647-5.749-2.333  C19.115,66.049,20.961,63.332,22.786,60.601z M14.903,61.245c0.97-2.527,1.8-5.114,2.554-7.714c0.27-0.933,0.765-1.502,1.571-1.851  c1.478-0.64,2.98-1.227,4.553-1.76c-3.301,4.731-5.969,9.793-8.481,15.138C14.691,63.672,14.401,62.553,14.903,61.245z   M57.537,46.799c-0.457,3.63,0.494,6.992,2.396,10.018c2.588,4.117,6.167,7.22,10.717,8.993c5.036,1.962,10.194,1.064,14.002-2.993  c2.793-2.975,4.723-6.416,5.71-10.38c0.797-3.198,1.146-6.417,0.335-9.666c-0.401-1.607-1.499-2.704-3.057-3.007  c-2.362-0.46-4.772-0.847-7.17-0.91c-2.476-0.065-4.97,0.222-7.443,0.484c-3.282,0.347-6.56,0.76-9.821,1.264  c-1.413,0.219-2.779,0.735-4.164,1.126c-0.049,0.014-0.069,0.127-0.12,0.227c0.242,0.028,0.442,0.051,0.691,0.08  C58.534,43.526,57.757,45.056,57.537,46.799z M76.85,48.994c1.287-2.049,2.544-4.119,3.743-6.22  c0.317-0.555,0.582-0.888,1.259-0.782c0.665,0.104,1.342,0.136,2.106,0.208c-0.848,2.011-1.738,3.927-2.471,5.902  c-1.798,4.841-3.54,9.703-5.254,14.574c-0.201,0.571-0.563,0.657-0.978,0.656c-2.146-0.005-4.156-0.639-6.13-1.409  c-0.072-0.028-0.115-0.13-0.27-0.316C71.507,57.427,74.195,53.221,76.85,48.994z M63.123,55.663c-0.062-0.129-0.01-0.336,0.04-0.491  c1.145-3.563,2.284-7.129,3.469-10.679c0.121-0.361,0.472-0.795,0.811-0.908c1.604-0.531,3.241-0.962,4.897-1.438  c-2.618,5.521-5.149,10.856-7.781,16.406C64.056,57.55,63.575,56.613,63.123,55.663z M54.37,40.124  c-2.243,0.303-4.48,0.668-6.703,1.093c-1.265,0.242-2.486,0.711-3.751,0.953c-0.868,0.166-1.085,0.344-0.826,1.172  c0.743,2.374,3.349,3.911,5.798,3.444c0.749-0.143,1.514-0.201,2.268-0.324c1.073-0.174,2.154-0.324,3.207-0.581  c0.522-0.128,1.234-0.298,0.828-1.179c-0.041-0.088,0.132-0.256,0.158-0.396c0.2-1.066,0.38-2.136,0.588-3.201  c0.039-0.198,0.175-0.376,0.354-0.744C55.633,40.271,54.98,40.042,54.37,40.124z M54.187,43.753  c-0.172,0.603-0.516,0.919-1.237,0.995c-1.928,0.203-3.844,0.527-5.76,0.837c-0.618,0.1-1.026-0.098-1.332-0.619  c-0.386-0.657-0.791-1.303-1.254-2.061c3.438-1.059,6.784-1.895,10.384-2.209C54.699,41.813,54.463,42.789,54.187,43.753z"/></svg>